G04*
G04 #@! TF.GenerationSoftware,Altium Limited,Altium Designer,20.1.14 (287)*
G04*
G04 Layer_Physical_Order=2*
G04 Layer_Color=16711680*
%FSLAX25Y25*%
%MOIN*%
G70*
G04*
G04 #@! TF.SameCoordinates,CC44B269-2998-40F0-A8BF-F6E1C517B7F2*
G04*
G04*
G04 #@! TF.FilePolarity,Positive*
G04*
G01*
G75*
%ADD37C,0.01000*%
%ADD38R,0.06000X0.12000*%
%ADD39O,0.06000X0.12000*%
%ADD40C,0.03500*%
G36*
X299500Y458500D02*
X299500Y386000D01*
X213000Y386000D01*
X213000Y458500D01*
X299500Y458500D01*
D02*
G37*
%LPC*%
G36*
X245500Y456274D02*
X244782Y456179D01*
X244113Y455902D01*
X243539Y455461D01*
X243207Y455029D01*
X235793D01*
X235461Y455461D01*
X234887Y455902D01*
X234218Y456179D01*
X233500Y456274D01*
X232782Y456179D01*
X232113Y455902D01*
X231539Y455461D01*
X231098Y454887D01*
X230821Y454218D01*
X230726Y453500D01*
X230821Y452782D01*
X231098Y452113D01*
X231539Y451539D01*
X231971Y451207D01*
Y447000D01*
X232087Y446415D01*
X232419Y445919D01*
X258468Y419869D01*
X258098Y419387D01*
X257821Y418718D01*
X257726Y418000D01*
X257821Y417282D01*
X258098Y416613D01*
X258539Y416039D01*
X259113Y415598D01*
X259782Y415321D01*
X260500Y415226D01*
X261218Y415321D01*
X261887Y415598D01*
X262461Y416039D01*
X262793Y416471D01*
X265343D01*
X265928Y416587D01*
X266425Y416919D01*
X267755Y418249D01*
X268228Y418015D01*
X268226Y418000D01*
X268297Y417460D01*
X257366Y406529D01*
X255793D01*
X255461Y406961D01*
X254887Y407402D01*
X254218Y407679D01*
X254000Y407708D01*
Y405000D01*
Y402292D01*
X254218Y402321D01*
X254887Y402598D01*
X255461Y403039D01*
X255793Y403471D01*
X258000D01*
X258585Y403587D01*
X259081Y403919D01*
X270460Y415297D01*
X270500Y415292D01*
Y418000D01*
X271500D01*
Y415292D01*
X271718Y415321D01*
X272387Y415598D01*
X272961Y416039D01*
X273371Y416572D01*
X273427Y416573D01*
X273871Y416237D01*
Y403430D01*
X273622Y403397D01*
X272649Y402994D01*
X271814Y402353D01*
X271173Y401517D01*
X270770Y400544D01*
X270632Y399500D01*
Y393500D01*
X270770Y392456D01*
X271173Y391483D01*
X271520Y391029D01*
X271274Y390529D01*
X268893D01*
X268646Y391029D01*
X268994Y391483D01*
X269397Y392456D01*
X269534Y393500D01*
Y396000D01*
X265500D01*
X261466D01*
Y393500D01*
X261603Y392456D01*
X262006Y391483D01*
X262354Y391029D01*
X262107Y390529D01*
X241133D01*
X236029Y395634D01*
Y415367D01*
X245460Y424797D01*
X246000Y424726D01*
X246718Y424821D01*
X247387Y425098D01*
X247961Y425539D01*
X248402Y426113D01*
X248679Y426782D01*
X248774Y427500D01*
X248679Y428218D01*
X248402Y428887D01*
X247961Y429461D01*
X247387Y429902D01*
X246718Y430179D01*
X246000Y430274D01*
X245460Y430203D01*
X228529Y447133D01*
Y448707D01*
X228961Y449039D01*
X229402Y449613D01*
X229679Y450282D01*
X229774Y451000D01*
X229679Y451718D01*
X229402Y452387D01*
X228961Y452961D01*
X228387Y453402D01*
X227718Y453679D01*
X227000Y453774D01*
X226282Y453679D01*
X225613Y453402D01*
X225039Y452961D01*
X224598Y452387D01*
X224321Y451718D01*
X224226Y451000D01*
X224321Y450282D01*
X224598Y449613D01*
X225039Y449039D01*
X225471Y448707D01*
Y446500D01*
X225587Y445915D01*
X225919Y445419D01*
X243297Y428040D01*
X243226Y427500D01*
X243297Y426960D01*
X233419Y417081D01*
X233087Y416585D01*
X232971Y416000D01*
Y395000D01*
X233087Y394415D01*
X233419Y393919D01*
X239419Y387919D01*
X239915Y387587D01*
X240500Y387471D01*
X283033D01*
X283619Y387587D01*
X284115Y387919D01*
X284539Y388342D01*
X284915Y388719D01*
X285246Y389215D01*
X285363Y389800D01*
Y389804D01*
X285851Y390006D01*
X286686Y390647D01*
X287327Y391483D01*
X287731Y392456D01*
X287868Y393500D01*
Y399500D01*
X287731Y400544D01*
X287327Y401517D01*
X286686Y402353D01*
X285851Y402994D01*
X284878Y403397D01*
X283833Y403535D01*
X282789Y403397D01*
X281816Y402994D01*
X280981Y402353D01*
X280339Y401517D01*
X279936Y400544D01*
X279799Y399500D01*
Y393500D01*
X279936Y392456D01*
X280339Y391483D01*
X280687Y391029D01*
X280441Y390529D01*
X278059D01*
X277813Y391029D01*
X278161Y391483D01*
X278564Y392456D01*
X278701Y393500D01*
Y399500D01*
X278564Y400544D01*
X278161Y401517D01*
X277519Y402353D01*
X276929Y402806D01*
Y413864D01*
Y420000D01*
Y434100D01*
X276813Y434685D01*
X276481Y435181D01*
X262081Y449581D01*
X261585Y449913D01*
X261000Y450029D01*
X255293D01*
X254961Y450461D01*
X254387Y450902D01*
X253718Y451179D01*
X253281Y451237D01*
D01*
X253000Y451274D01*
X252282Y451179D01*
X251613Y450902D01*
X251039Y450461D01*
X250598Y449887D01*
X250321Y449218D01*
X250226Y448500D01*
X250321Y447782D01*
X250598Y447113D01*
X251039Y446539D01*
X251613Y446098D01*
X252282Y445821D01*
X253000Y445726D01*
X253718Y445821D01*
X254387Y446098D01*
X254961Y446539D01*
X255293Y446971D01*
X260367D01*
X273871Y433466D01*
Y423830D01*
X273484Y423513D01*
X273400Y423529D01*
X269343D01*
X268758Y423413D01*
X268262Y423081D01*
X264710Y419529D01*
X262793D01*
X262461Y419961D01*
X261887Y420402D01*
X261537Y420547D01*
X261435Y421064D01*
X261103Y421560D01*
X235029Y447634D01*
Y451207D01*
X235461Y451539D01*
X235793Y451971D01*
X243207D01*
X243539Y451539D01*
X244113Y451098D01*
X244782Y450821D01*
X245500Y450726D01*
X246218Y450821D01*
X246887Y451098D01*
X247461Y451539D01*
X247902Y452113D01*
X248179Y452782D01*
X248274Y453500D01*
X248179Y454218D01*
X247902Y454887D01*
X247461Y455461D01*
X246887Y455902D01*
X246218Y456179D01*
X245500Y456274D01*
D02*
G37*
G36*
X253000Y407708D02*
X252782Y407679D01*
X252113Y407402D01*
X251539Y406961D01*
X251098Y406387D01*
X250821Y405718D01*
X250792Y405500D01*
X253000D01*
Y407708D01*
D02*
G37*
G36*
Y404500D02*
X250792D01*
X250821Y404282D01*
X251098Y403613D01*
X251539Y403039D01*
X252113Y402598D01*
X252782Y402321D01*
X253000Y402292D01*
Y404500D01*
D02*
G37*
G36*
X266000Y403469D02*
Y397000D01*
X269534D01*
Y399500D01*
X269397Y400544D01*
X268994Y401517D01*
X268353Y402353D01*
X267517Y402994D01*
X266544Y403397D01*
X266000Y403469D01*
D02*
G37*
G36*
X265000D02*
X264456Y403397D01*
X263483Y402994D01*
X262647Y402353D01*
X262006Y401517D01*
X261603Y400544D01*
X261466Y399500D01*
Y397000D01*
X265000D01*
Y403469D01*
D02*
G37*
G36*
X297000Y403500D02*
X289000D01*
Y389500D01*
X297000D01*
Y403500D01*
D02*
G37*
%LPD*%
D37*
X227000Y446500D02*
X246000Y427500D01*
X246000D01*
X227000Y446500D02*
Y451000D01*
X234500Y416000D02*
X246000Y427500D01*
X234500Y395000D02*
Y416000D01*
Y395000D02*
X240500Y389000D01*
X233500Y447000D02*
X260022Y420478D01*
X233500Y447000D02*
Y453500D01*
X245500D01*
X253000Y448500D02*
X261000D01*
X275400Y434100D01*
Y420000D02*
Y434100D01*
X260022Y418478D02*
Y420478D01*
Y418478D02*
X260500Y418000D01*
X258000Y405000D02*
X271000Y418000D01*
X253500Y405000D02*
X258000D01*
X265343Y418000D02*
X269343Y422000D01*
X260500Y418000D02*
X265343D01*
X269343Y422000D02*
X273400D01*
X275400Y420000D01*
Y399500D02*
Y420000D01*
X240500Y389000D02*
X283033D01*
X283833Y389800D02*
Y396500D01*
X283033Y389000D02*
X283833Y389800D01*
X274667Y399500D02*
X275400D01*
X274667Y396500D02*
Y399500D01*
D38*
X293000Y396500D02*
D03*
D39*
X265500D02*
D03*
X283833D02*
D03*
X274667D02*
D03*
D40*
X246000Y427500D02*
D03*
X227000Y451000D02*
D03*
X233500Y453500D02*
D03*
X245500D02*
D03*
X253000Y448500D02*
D03*
X253500Y405000D02*
D03*
X271000Y418000D02*
D03*
X260500D02*
D03*
M02*
