G04*
G04 #@! TF.GenerationSoftware,Altium Limited,Altium Designer,20.1.14 (287)*
G04*
G04 Layer_Color=8388736*
%FSLAX25Y25*%
%MOIN*%
G70*
G04*
G04 #@! TF.SameCoordinates,CC44B269-2998-40F0-A8BF-F6E1C517B7F2*
G04*
G04*
G04 #@! TF.FilePolarity,Negative*
G04*
G01*
G75*
%ADD17R,0.03150X0.03150*%
%ADD25R,0.04934X0.06115*%
%ADD26R,0.02965X0.02375*%
%ADD27R,0.04934X0.06706*%
%ADD28R,0.04147X0.03753*%
%ADD29R,0.04343X0.09068*%
%ADD30R,0.13398X0.09068*%
%ADD31R,0.04147X0.02572*%
%ADD32R,0.03950X0.03950*%
%ADD33O,0.06115X0.03162*%
%ADD34R,0.06800X0.12800*%
%ADD35O,0.06800X0.12800*%
%ADD36C,0.04300*%
D17*
X274500Y440594D02*
D03*
Y446500D02*
D03*
D25*
X220594Y443500D02*
D03*
X226500D02*
D03*
D26*
X248177Y438850D02*
D03*
Y442000D02*
D03*
Y445150D02*
D03*
X257823Y438850D02*
D03*
Y442000D02*
D03*
Y445150D02*
D03*
D27*
X253000Y442000D02*
D03*
D28*
X231500Y434500D02*
D03*
Y429382D02*
D03*
X233500Y445559D02*
D03*
Y440441D02*
D03*
X239500Y429882D02*
D03*
Y435000D02*
D03*
D29*
X240555Y420941D02*
D03*
X231500D02*
D03*
X222445D02*
D03*
D30*
X231500Y398500D02*
D03*
D31*
X240500Y440047D02*
D03*
Y445953D02*
D03*
X222000Y429547D02*
D03*
Y435453D02*
D03*
D32*
X265500Y446000D02*
D03*
Y440094D02*
D03*
D33*
X279378Y412500D02*
D03*
Y417500D02*
D03*
Y422500D02*
D03*
Y427500D02*
D03*
X251622Y412500D02*
D03*
Y417500D02*
D03*
Y422500D02*
D03*
Y427500D02*
D03*
D34*
X293000Y396500D02*
D03*
D35*
X265500D02*
D03*
X283833D02*
D03*
X274667D02*
D03*
D36*
X246000Y427500D02*
D03*
X227000Y451000D02*
D03*
X233500Y453500D02*
D03*
X245500D02*
D03*
X253000Y448500D02*
D03*
X253500Y405000D02*
D03*
X271000Y418000D02*
D03*
X260500D02*
D03*
M02*
