G04*
G04 #@! TF.GenerationSoftware,Altium Limited,Altium Designer,20.1.14 (287)*
G04*
G04 Layer_Color=65535*
%FSLAX25Y25*%
%MOIN*%
G70*
G04*
G04 #@! TF.SameCoordinates,CC44B269-2998-40F0-A8BF-F6E1C517B7F2*
G04*
G04*
G04 #@! TF.FilePolarity,Positive*
G04*
G01*
G75*
%ADD10C,0.00984*%
%ADD11C,0.02362*%
%ADD12C,0.00787*%
%ADD13C,0.01575*%
%ADD14C,0.00500*%
%ADD15C,0.00400*%
G36*
X249500Y447000D02*
X247500D01*
Y448000D01*
X249500D01*
Y447000D01*
D02*
G37*
D10*
X274992Y450634D02*
G03*
X274992Y450634I-492J0D01*
G01*
X244984Y420941D02*
G03*
X244984Y420941I-492J0D01*
G01*
X252114Y430847D02*
G03*
X252114Y430847I-492J0D01*
G01*
D11*
X260972Y426890D02*
G03*
X260972Y426890I-1181J0D01*
G01*
D12*
X271154Y440201D02*
Y446894D01*
X277846Y440201D02*
Y446894D01*
X218311Y415626D02*
X244689D01*
X218311Y403815D02*
X244689D01*
Y415626D01*
X218311Y403815D02*
Y415626D01*
X239220Y442409D02*
Y443591D01*
X241780Y442409D02*
Y443591D01*
X220720Y431909D02*
Y433091D01*
X223280Y431909D02*
Y433091D01*
X255854Y409173D02*
X275146D01*
X255854Y430827D02*
X275146D01*
Y409173D02*
Y430827D01*
X255854Y409173D02*
Y430827D01*
D13*
X263925Y436551D02*
X267075D01*
D14*
X297798Y456000D02*
X295798D01*
X294799Y455000D01*
X295798Y454001D01*
X297798D01*
Y451502D02*
Y452501D01*
X297298Y453001D01*
X295299D01*
X294799Y452501D01*
Y451502D01*
X295299Y451002D01*
X297298D01*
X297798Y451502D01*
X297298Y448003D02*
X297798Y448502D01*
Y449502D01*
X297298Y450002D01*
X295299D01*
X294799Y449502D01*
Y448502D01*
X295299Y448003D01*
X294299Y447003D02*
Y445004D01*
X297298Y444004D02*
X297798Y443504D01*
Y442504D01*
X297298Y442004D01*
X295299D01*
X294799Y442504D01*
Y443504D01*
X295299Y444004D01*
X297298D01*
X294799Y441005D02*
Y440005D01*
Y440505D01*
X297798D01*
X297298Y441005D01*
X292499Y456000D02*
X289500D01*
Y454500D01*
X290000Y454001D01*
X290500D01*
X291000Y454500D01*
Y456000D01*
Y454500D01*
X291499Y454001D01*
X291999D01*
X292499Y454500D01*
Y456000D01*
X291499Y453001D02*
X289500D01*
X290500D01*
X291000Y452501D01*
X291499Y452001D01*
Y451502D01*
Y449502D02*
Y448502D01*
X291000Y448003D01*
X289500D01*
Y449502D01*
X290000Y450002D01*
X290500Y449502D01*
Y448003D01*
X292499Y445004D02*
X289500D01*
Y446503D01*
X290000Y447003D01*
X291000D01*
X291499Y446503D01*
Y445004D01*
X292499Y444004D02*
X289500D01*
X290500Y443004D01*
X289500Y442004D01*
X292499D01*
X289500Y441005D02*
Y440005D01*
Y440505D01*
X291499D01*
Y441005D01*
X289500Y438506D02*
Y437506D01*
Y438006D01*
X292499D01*
Y438506D01*
X289500Y436006D02*
Y435007D01*
Y435507D01*
X292499D01*
Y436006D01*
X289500Y433507D02*
Y432508D01*
Y433007D01*
X291499D01*
Y433507D01*
Y430508D02*
Y429509D01*
X291000Y429009D01*
X289500D01*
Y430508D01*
X290000Y431008D01*
X290500Y430508D01*
Y429009D01*
X289500Y428009D02*
X291499D01*
Y427509D01*
X291000Y427009D01*
X289500D01*
X291000D01*
X291499Y426510D01*
X291000Y426010D01*
X289500D01*
Y425010D02*
Y423511D01*
X290000Y423011D01*
X290500Y423511D01*
Y424510D01*
X291000Y425010D01*
X291499Y424510D01*
Y423011D01*
X273167Y437500D02*
Y435500D01*
X274167D01*
X274500Y435834D01*
Y437167D01*
X274167Y437500D01*
X273167D01*
X275166Y435500D02*
X275833D01*
X275500D01*
Y437500D01*
X275166Y437167D01*
X223167Y449166D02*
X222834Y449500D01*
X222167D01*
X221834Y449166D01*
Y447834D01*
X222167Y447500D01*
X222834D01*
X223167Y447834D01*
X225166Y447500D02*
X223833D01*
X225166Y448833D01*
Y449166D01*
X224833Y449500D01*
X224166D01*
X223833Y449166D01*
X251500Y437999D02*
Y436333D01*
X251833Y436000D01*
X252500D01*
X252833Y436333D01*
Y437999D01*
X254832Y436000D02*
X253499D01*
X254832Y437333D01*
Y437666D01*
X254499Y437999D01*
X253833D01*
X253499Y437666D01*
X228500Y430334D02*
X226500D01*
Y431334D01*
X226834Y431667D01*
X227500D01*
X227833Y431334D01*
Y430334D01*
Y431000D02*
X228500Y431667D01*
Y433666D02*
Y432333D01*
X227167Y433666D01*
X226834D01*
X226500Y433333D01*
Y432666D01*
X226834Y432333D01*
X232167Y448000D02*
Y450000D01*
X233167D01*
X233500Y449667D01*
Y449000D01*
X233167Y448667D01*
X232167D01*
X232834D02*
X233500Y448000D01*
X234166D02*
X234833D01*
X234500D01*
Y450000D01*
X234166Y449667D01*
X240500Y394888D02*
X242166D01*
X242500Y395221D01*
Y395887D01*
X242166Y396220D01*
X240500D01*
X242500Y396887D02*
Y397553D01*
Y397220D01*
X240500D01*
X240833Y396887D01*
X240167Y449667D02*
X239834Y450000D01*
X239167D01*
X238834Y449667D01*
Y448334D01*
X239167Y448000D01*
X239834D01*
X240167Y448334D01*
X240833Y449667D02*
X241166Y450000D01*
X241833D01*
X242166Y449667D01*
Y449333D01*
X241833Y449000D01*
X241500D01*
X241833D01*
X242166Y448667D01*
Y448334D01*
X241833Y448000D01*
X241166D01*
X240833Y448334D01*
X217833Y432000D02*
X217500Y431667D01*
Y431000D01*
X217833Y430667D01*
X219166D01*
X219500Y431000D01*
Y431667D01*
X219166Y432000D01*
X219500Y432666D02*
Y433333D01*
Y433000D01*
X217500D01*
X217833Y432666D01*
X263834Y451000D02*
Y449000D01*
X264834D01*
X265167Y449334D01*
Y450667D01*
X264834Y451000D01*
X263834D01*
X267166Y450667D02*
X266833Y451000D01*
X266166D01*
X265833Y450667D01*
Y450333D01*
X266166Y450000D01*
X266833D01*
X267166Y449667D01*
Y449334D01*
X266833Y449000D01*
X266166D01*
X265833Y449334D01*
X236500Y430334D02*
X234500D01*
Y431334D01*
X234834Y431667D01*
X235500D01*
X235833Y431334D01*
Y430334D01*
Y431000D02*
X236500Y431667D01*
X234834Y432333D02*
X234500Y432666D01*
Y433333D01*
X234834Y433666D01*
X235167D01*
X235500Y433333D01*
Y433000D01*
Y433333D01*
X235833Y433666D01*
X236166D01*
X236500Y433333D01*
Y432666D01*
X236166Y432333D01*
X263834Y434000D02*
Y432334D01*
X264167Y432000D01*
X264834D01*
X265167Y432334D01*
Y434000D01*
X265833Y433667D02*
X266166Y434000D01*
X266833D01*
X267166Y433667D01*
Y433333D01*
X266833Y433000D01*
X266500D01*
X266833D01*
X267166Y432667D01*
Y432334D01*
X266833Y432000D01*
X266166D01*
X265833Y432334D01*
D15*
X259850Y395900D02*
X259600Y395650D01*
Y395150D01*
X259850Y394900D01*
X260850D01*
X261100Y395150D01*
Y395650D01*
X260850Y395900D01*
X260350D01*
Y395400D01*
X261100Y396399D02*
X259600D01*
X261100Y397399D01*
X259600D01*
Y397899D02*
X261100D01*
Y398649D01*
X260850Y398899D01*
X259850D01*
X259600Y398649D01*
Y397899D01*
X273900Y405150D02*
X273650Y405400D01*
X273150D01*
X272900Y405150D01*
Y404900D01*
X273150Y404650D01*
X273650D01*
X273900Y404400D01*
Y404150D01*
X273650Y403900D01*
X273150D01*
X272900Y404150D01*
X275399Y405150D02*
X275149Y405400D01*
X274649D01*
X274399Y405150D01*
Y404150D01*
X274649Y403900D01*
X275149D01*
X275399Y404150D01*
X275899Y405400D02*
Y403900D01*
X276899D01*
X282900Y405150D02*
X282650Y405400D01*
X282150D01*
X281900Y405150D01*
Y404900D01*
X282150Y404650D01*
X282650D01*
X282900Y404400D01*
Y404150D01*
X282650Y403900D01*
X282150D01*
X281900Y404150D01*
X283400Y405400D02*
Y403900D01*
X284149D01*
X284399Y404150D01*
Y405150D01*
X284149Y405400D01*
X283400D01*
X284899Y403900D02*
Y404900D01*
X285399Y405400D01*
X285899Y404900D01*
Y403900D01*
Y404650D01*
X284899D01*
X297850Y394400D02*
X297601Y394650D01*
Y395150D01*
X297850Y395400D01*
X298100D01*
X298350Y395150D01*
Y394900D01*
Y395150D01*
X298600Y395400D01*
X298850D01*
X299100Y395150D01*
Y394650D01*
X298850Y394400D01*
X297601Y395900D02*
X298600D01*
X299100Y396399D01*
X298600Y396899D01*
X297601D01*
X297850Y397399D02*
X297601Y397649D01*
Y398149D01*
X297850Y398399D01*
X298100D01*
X298350Y398149D01*
Y397899D01*
Y398149D01*
X298600Y398399D01*
X298850D01*
X299100Y398149D01*
Y397649D01*
X298850Y397399D01*
M02*
