G04*
G04 #@! TF.GenerationSoftware,Altium Limited,Altium Designer,20.1.14 (287)*
G04*
G04 Layer_Color=65535*
%FSLAX24Y24*%
%MOIN*%
G70*
G04*
G04 #@! TF.SameCoordinates,A3AF8FF9-738B-471D-B888-556D1E7F3E26*
G04*
G04*
G04 #@! TF.FilePolarity,Positive*
G04*
G01*
G75*
%ADD10C,0.0236*%
%ADD11C,0.0098*%
%ADD12C,0.0079*%
%ADD13C,0.0157*%
%ADD14C,0.0060*%
%ADD15C,0.0050*%
G36*
X27710Y45330D02*
X27510D01*
Y45430D01*
X27710D01*
Y45330D01*
D02*
G37*
D10*
X26549Y42909D02*
X26505Y43001D01*
X26405Y43024D01*
X26325Y42960D01*
Y42858D01*
X26405Y42794D01*
X26505Y42817D01*
X26549Y42909D01*
D11*
X25664Y43305D02*
X25590Y43347D01*
Y43262D01*
X25664Y43305D01*
X29109Y40429D02*
X29035Y40472D01*
Y40387D01*
X29109Y40429D01*
X24988Y41862D02*
X24915Y41905D01*
Y41819D01*
X24988Y41862D01*
D12*
X26038Y41137D02*
X27967D01*
X26038Y43303D02*
X27967D01*
Y41137D02*
Y43303D01*
X26038Y41137D02*
Y43303D01*
X29560Y37008D02*
Y38008D01*
X25560Y37008D02*
X29560D01*
X25560D02*
Y38008D01*
X29560D01*
X22321Y40149D02*
Y41331D01*
X24959Y40149D02*
Y41331D01*
X22321Y40149D02*
X24959D01*
X22321Y41331D02*
X24959D01*
X23978Y44733D02*
Y45127D01*
Y44733D02*
X24096D01*
X23978Y45127D02*
X24096D01*
X23356Y43902D02*
X23474D01*
X23356Y44158D02*
X23474D01*
X26912Y44791D02*
Y44909D01*
X27168Y44791D02*
Y44909D01*
D13*
X22584Y42853D02*
Y43167D01*
D14*
X29073Y41400D02*
X29206D01*
X29273Y41467D01*
X29206Y41533D01*
X29073D01*
Y41700D02*
Y41633D01*
X29106Y41600D01*
X29239D01*
X29273Y41633D01*
Y41700D01*
X29239Y41733D01*
X29106D01*
X29073Y41700D01*
X29106Y41933D02*
X29073Y41900D01*
Y41833D01*
X29106Y41800D01*
X29239D01*
X29273Y41833D01*
Y41900D01*
X29239Y41933D01*
X29306Y42000D02*
Y42133D01*
X29106Y42200D02*
X29073Y42233D01*
Y42300D01*
X29106Y42333D01*
X29239D01*
X29273Y42300D01*
Y42233D01*
X29239Y42200D01*
X29106D01*
X29273Y42400D02*
Y42466D01*
Y42433D01*
X29073D01*
X29106Y42400D01*
X29490Y41400D02*
X29690D01*
Y41500D01*
X29657Y41533D01*
X29623D01*
X29590Y41500D01*
Y41400D01*
Y41500D01*
X29557Y41533D01*
X29523D01*
X29490Y41500D01*
Y41400D01*
X29557Y41600D02*
X29690D01*
X29623D01*
X29590Y41633D01*
X29557Y41667D01*
Y41700D01*
Y41833D02*
Y41900D01*
X29590Y41933D01*
X29690D01*
Y41833D01*
X29657Y41800D01*
X29623Y41833D01*
Y41933D01*
X29490Y42133D02*
X29690D01*
Y42033D01*
X29657Y42000D01*
X29590D01*
X29557Y42033D01*
Y42133D01*
X29490Y42200D02*
X29690D01*
X29623Y42266D01*
X29690Y42333D01*
X29490D01*
X29690Y42400D02*
Y42466D01*
Y42433D01*
X29557D01*
Y42400D01*
X29690Y42566D02*
Y42633D01*
Y42600D01*
X29490D01*
Y42566D01*
X29690Y42733D02*
Y42800D01*
Y42766D01*
X29490D01*
Y42733D01*
X29690Y42900D02*
Y42966D01*
Y42933D01*
X29557D01*
Y42900D01*
Y43099D02*
Y43166D01*
X29590Y43199D01*
X29690D01*
Y43099D01*
X29657Y43066D01*
X29623Y43099D01*
Y43199D01*
X29690Y43266D02*
X29557D01*
Y43299D01*
X29590Y43333D01*
X29690D01*
X29590D01*
X29557Y43366D01*
X29590Y43399D01*
X29690D01*
Y43466D02*
Y43566D01*
X29657Y43599D01*
X29623Y43566D01*
Y43499D01*
X29590Y43466D01*
X29557Y43499D01*
Y43599D01*
X27953Y40667D02*
X27920Y40700D01*
X27853D01*
X27820Y40667D01*
Y40633D01*
X27853Y40600D01*
X27920D01*
X27953Y40567D01*
Y40533D01*
X27920Y40500D01*
X27853D01*
X27820Y40533D01*
X28153Y40667D02*
X28120Y40700D01*
X28053D01*
X28020Y40667D01*
Y40533D01*
X28053Y40500D01*
X28120D01*
X28153Y40533D01*
X28220Y40700D02*
Y40500D01*
X28353D01*
X26933Y40647D02*
X26900Y40680D01*
X26833D01*
X26800Y40647D01*
Y40613D01*
X26833Y40580D01*
X26900D01*
X26933Y40547D01*
Y40513D01*
X26900Y40480D01*
X26833D01*
X26800Y40513D01*
X27000Y40680D02*
Y40480D01*
X27100D01*
X27133Y40513D01*
Y40647D01*
X27100Y40680D01*
X27000D01*
X27200Y40480D02*
Y40613D01*
X27267Y40680D01*
X27333Y40613D01*
Y40480D01*
Y40580D01*
X27200D01*
X25913Y40657D02*
X25880Y40690D01*
X25813D01*
X25780Y40657D01*
Y40523D01*
X25813Y40490D01*
X25880D01*
X25913Y40523D01*
Y40590D01*
X25847D01*
X25980Y40490D02*
Y40690D01*
X26113Y40490D01*
Y40690D01*
X26180D02*
Y40490D01*
X26280D01*
X26313Y40523D01*
Y40657D01*
X26280Y40690D01*
X26180D01*
X28790Y40827D02*
X28823Y40860D01*
X28890D01*
X28923Y40827D01*
Y40793D01*
X28890Y40760D01*
X28857D01*
X28890D01*
X28923Y40727D01*
Y40693D01*
X28890Y40660D01*
X28823D01*
X28790Y40693D01*
X28990Y40860D02*
Y40727D01*
X29057Y40660D01*
X29123Y40727D01*
Y40860D01*
X29190Y40827D02*
X29223Y40860D01*
X29290D01*
X29323Y40827D01*
Y40793D01*
X29290Y40760D01*
X29257D01*
X29290D01*
X29323Y40727D01*
Y40693D01*
X29290Y40660D01*
X29223D01*
X29190Y40693D01*
D15*
X24300Y43863D02*
X24100D01*
Y43963D01*
X24133Y43997D01*
X24200D01*
X24233Y43963D01*
Y43863D01*
Y43930D02*
X24300Y43997D01*
X24133Y44063D02*
X24100Y44097D01*
Y44163D01*
X24133Y44197D01*
X24167D01*
X24200Y44163D01*
Y44130D01*
Y44163D01*
X24233Y44197D01*
X24267D01*
X24300Y44163D01*
Y44097D01*
X24267Y44063D01*
X24060Y42873D02*
X23860D01*
Y42973D01*
X23893Y43007D01*
X23960D01*
X23993Y42973D01*
Y42873D01*
Y42940D02*
X24060Y43007D01*
Y43207D02*
Y43073D01*
X23927Y43207D01*
X23893D01*
X23860Y43173D01*
Y43107D01*
X23893Y43073D01*
X27950Y45540D02*
Y45373D01*
X27983Y45340D01*
X28050D01*
X28083Y45373D01*
Y45540D01*
X28150Y45507D02*
X28183Y45540D01*
X28250D01*
X28283Y45507D01*
Y45473D01*
X28250Y45440D01*
X28217D01*
X28250D01*
X28283Y45407D01*
Y45373D01*
X28250Y45340D01*
X28183D01*
X28150Y45373D01*
X23650Y45530D02*
Y45330D01*
X23750D01*
X23783Y45363D01*
Y45497D01*
X23750Y45530D01*
X23650D01*
X23850Y45330D02*
Y45463D01*
X23917Y45530D01*
X23983Y45463D01*
Y45330D01*
Y45430D01*
X23850D01*
X24050Y45530D02*
X24183D01*
X24117D01*
Y45330D01*
X24250D02*
Y45463D01*
X24317Y45530D01*
X24383Y45463D01*
Y45330D01*
Y45430D01*
X24250D01*
X22908Y43260D02*
Y43460D01*
X23008D01*
X23041Y43427D01*
Y43360D01*
X23008Y43327D01*
X22908D01*
X23108Y43460D02*
Y43260D01*
X23175Y43327D01*
X23241Y43260D01*
Y43460D01*
X23308Y43260D02*
Y43460D01*
X23408D01*
X23441Y43427D01*
Y43360D01*
X23408Y43327D01*
X23308D01*
X23375D02*
X23441Y43260D01*
X26969Y43670D02*
Y43503D01*
X27002Y43470D01*
X27069D01*
X27102Y43503D01*
Y43670D01*
X27169Y43470D02*
X27235D01*
X27202D01*
Y43670D01*
X27169Y43637D01*
X28157Y44110D02*
Y44310D01*
X28257D01*
X28290Y44277D01*
Y44210D01*
X28257Y44177D01*
X28157D01*
X28223D02*
X28290Y44110D01*
X28357D02*
X28423D01*
X28390D01*
Y44310D01*
X28357Y44277D01*
X24423Y39520D02*
Y39353D01*
X24457Y39320D01*
X24523D01*
X24557Y39353D01*
Y39520D01*
X24757Y39320D02*
X24623D01*
X24757Y39453D01*
Y39487D01*
X24723Y39520D01*
X24657D01*
X24623Y39487D01*
X27007Y45567D02*
X26973Y45600D01*
X26907D01*
X26873Y45567D01*
Y45433D01*
X26907Y45400D01*
X26973D01*
X27007Y45433D01*
X27073Y45567D02*
X27107Y45600D01*
X27173D01*
X27207Y45567D01*
Y45533D01*
X27173Y45500D01*
X27140D01*
X27173D01*
X27207Y45467D01*
Y45433D01*
X27173Y45400D01*
X27107D01*
X27073Y45433D01*
X25897Y45072D02*
X25863Y45105D01*
X25797D01*
X25763Y45072D01*
Y44939D01*
X25797Y44905D01*
X25863D01*
X25897Y44939D01*
X26097Y44905D02*
X25963D01*
X26097Y45039D01*
Y45072D01*
X26063Y45105D01*
X25997D01*
X25963Y45072D01*
X22738Y44040D02*
X22705Y44007D01*
Y43940D01*
X22738Y43907D01*
X22871D01*
X22905Y43940D01*
Y44007D01*
X22871Y44040D01*
X22905Y44107D02*
Y44173D01*
Y44140D01*
X22705D01*
X22738Y44107D01*
M02*
