G04*
G04 #@! TF.GenerationSoftware,Altium Limited,Altium Designer,20.1.14 (287)*
G04*
G04 Layer_Physical_Order=2*
G04 Layer_Color=16440176*
%FSLAX24Y24*%
%MOIN*%
G70*
G04*
G04 #@! TF.SameCoordinates,A3AF8FF9-738B-471D-B888-556D1E7F3E26*
G04*
G04*
G04 #@! TF.FilePolarity,Positive*
G04*
G01*
G75*
%ADD43R,0.0500X0.1252*%
%ADD44C,0.0280*%
G36*
X30010Y45620D02*
X30010Y37260D01*
X29670Y36920D01*
X25410D01*
X25130Y37200D01*
Y38170D01*
X24290Y39010D01*
X22290Y39010D01*
X22050Y39250D01*
X22050Y45416D01*
X22748Y46100D01*
X29530Y46100D01*
X30010Y45620D01*
D02*
G37*
%LPC*%
G36*
X24900Y45895D02*
X24806Y45876D01*
X24727Y45823D01*
X24674Y45744D01*
X24655Y45650D01*
X24674Y45556D01*
X24727Y45477D01*
X24806Y45424D01*
X24900Y45405D01*
X24994Y45424D01*
X25073Y45477D01*
X25126Y45556D01*
X25145Y45650D01*
X25126Y45744D01*
X25073Y45823D01*
X24994Y45876D01*
X24900Y45895D01*
D02*
G37*
G36*
X26170Y45745D02*
X26076Y45726D01*
X25997Y45673D01*
X25944Y45594D01*
X25925Y45500D01*
X25944Y45406D01*
X25997Y45327D01*
X26076Y45274D01*
X26170Y45255D01*
X26264Y45274D01*
X26343Y45327D01*
X26396Y45406D01*
X26415Y45500D01*
X26396Y45594D01*
X26343Y45673D01*
X26264Y45726D01*
X26170Y45745D01*
D02*
G37*
G36*
X28820Y45665D02*
X28726Y45646D01*
X28647Y45593D01*
X28594Y45514D01*
X28575Y45420D01*
X28594Y45326D01*
X28647Y45247D01*
X28726Y45194D01*
X28820Y45175D01*
X28914Y45194D01*
X28993Y45247D01*
X29046Y45326D01*
X29065Y45420D01*
X29046Y45514D01*
X28993Y45593D01*
X28914Y45646D01*
X28820Y45665D01*
D02*
G37*
G36*
X22730Y45275D02*
X22636Y45256D01*
X22557Y45203D01*
X22504Y45124D01*
X22485Y45030D01*
X22504Y44936D01*
X22557Y44857D01*
X22636Y44804D01*
X22730Y44785D01*
X22824Y44804D01*
X22903Y44857D01*
X22956Y44936D01*
X22975Y45030D01*
X22956Y45124D01*
X22903Y45203D01*
X22824Y45256D01*
X22730Y45275D01*
D02*
G37*
G36*
X22570Y44585D02*
Y44400D01*
X22755D01*
X22746Y44444D01*
X22693Y44523D01*
X22614Y44576D01*
X22570Y44585D01*
D02*
G37*
G36*
X22470D02*
X22426Y44576D01*
X22347Y44523D01*
X22294Y44444D01*
X22285Y44400D01*
X22470D01*
Y44585D01*
D02*
G37*
G36*
X22755Y44300D02*
X22570D01*
Y44115D01*
X22614Y44124D01*
X22693Y44177D01*
X22746Y44256D01*
X22755Y44300D01*
D02*
G37*
G36*
X22470D02*
X22285D01*
X22294Y44256D01*
X22347Y44177D01*
X22426Y44124D01*
X22470Y44115D01*
Y44300D01*
D02*
G37*
G36*
X26430Y44245D02*
X26336Y44226D01*
X26257Y44173D01*
X26204Y44094D01*
X26185Y44000D01*
X26204Y43906D01*
X26257Y43827D01*
X26336Y43774D01*
X26430Y43755D01*
X26524Y43774D01*
X26603Y43827D01*
X26656Y43906D01*
X26675Y44000D01*
X26656Y44094D01*
X26603Y44173D01*
X26524Y44226D01*
X26430Y44245D01*
D02*
G37*
G36*
X27240Y44185D02*
X27146Y44166D01*
X27067Y44113D01*
X27014Y44034D01*
X26995Y43940D01*
X27014Y43846D01*
X27067Y43767D01*
X27146Y43714D01*
X27240Y43695D01*
X27334Y43714D01*
X27413Y43767D01*
X27466Y43846D01*
X27485Y43940D01*
X27466Y44034D01*
X27413Y44113D01*
X27334Y44166D01*
X27240Y44185D01*
D02*
G37*
G36*
X26130Y43545D02*
X26036Y43526D01*
X25957Y43473D01*
X25904Y43394D01*
X25885Y43300D01*
X25904Y43206D01*
X25957Y43127D01*
X26036Y43074D01*
X26130Y43055D01*
X26224Y43074D01*
X26303Y43127D01*
X26356Y43206D01*
X26375Y43300D01*
X26356Y43394D01*
X26303Y43473D01*
X26224Y43526D01*
X26130Y43545D01*
D02*
G37*
G36*
X29060Y43085D02*
Y42900D01*
X29245D01*
X29236Y42944D01*
X29183Y43023D01*
X29104Y43076D01*
X29060Y43085D01*
D02*
G37*
G36*
X28960D02*
X28916Y43076D01*
X28837Y43023D01*
X28784Y42944D01*
X28775Y42900D01*
X28960D01*
Y43085D01*
D02*
G37*
G36*
X24184Y42959D02*
Y42774D01*
X24369D01*
X24361Y42818D01*
X24307Y42897D01*
X24228Y42951D01*
X24184Y42959D01*
D02*
G37*
G36*
X24084D02*
X24041Y42951D01*
X23961Y42897D01*
X23908Y42818D01*
X23900Y42774D01*
X24084D01*
Y42959D01*
D02*
G37*
G36*
X29245Y42800D02*
X29060D01*
Y42615D01*
X29104Y42624D01*
X29183Y42677D01*
X29236Y42756D01*
X29245Y42800D01*
D02*
G37*
G36*
X28960D02*
X28775D01*
X28784Y42756D01*
X28837Y42677D01*
X28916Y42624D01*
X28960Y42615D01*
Y42800D01*
D02*
G37*
G36*
X24369Y42674D02*
X24184D01*
Y42490D01*
X24228Y42498D01*
X24307Y42551D01*
X24361Y42631D01*
X24369Y42674D01*
D02*
G37*
G36*
X24084D02*
X23900D01*
X23908Y42631D01*
X23961Y42551D01*
X24041Y42498D01*
X24084Y42490D01*
Y42674D01*
D02*
G37*
G36*
X26850Y42725D02*
X26756Y42706D01*
X26677Y42653D01*
X26624Y42574D01*
X26605Y42480D01*
X26624Y42386D01*
X26677Y42307D01*
X26756Y42254D01*
X26850Y42235D01*
X26944Y42254D01*
X27023Y42307D01*
X27076Y42386D01*
X27095Y42480D01*
X27076Y42574D01*
X27023Y42653D01*
X26944Y42706D01*
X26850Y42725D01*
D02*
G37*
G36*
X23640Y42107D02*
X23546Y42088D01*
X23467Y42035D01*
X23414Y41956D01*
X23395Y41862D01*
X23414Y41768D01*
X23467Y41689D01*
X23546Y41636D01*
X23640Y41617D01*
X23734Y41636D01*
X23813Y41689D01*
X23866Y41768D01*
X23885Y41862D01*
X23866Y41956D01*
X23813Y42035D01*
X23734Y42088D01*
X23640Y42107D01*
D02*
G37*
G36*
X23180Y41075D02*
Y40890D01*
X23365D01*
X23356Y40934D01*
X23303Y41013D01*
X23224Y41066D01*
X23180Y41075D01*
D02*
G37*
G36*
X23080D02*
X23036Y41066D01*
X22957Y41013D01*
X22904Y40934D01*
X22895Y40890D01*
X23080D01*
Y41075D01*
D02*
G37*
G36*
X23365Y40790D02*
X23180D01*
Y40605D01*
X23224Y40614D01*
X23303Y40667D01*
X23356Y40746D01*
X23365Y40790D01*
D02*
G37*
G36*
X23080D02*
X22895D01*
X22904Y40746D01*
X22957Y40667D01*
X23036Y40614D01*
X23080Y40605D01*
Y40790D01*
D02*
G37*
G36*
X29410Y40313D02*
X29110D01*
Y39637D01*
X29410D01*
Y40313D01*
D02*
G37*
G36*
X29010D02*
X28710D01*
Y39637D01*
X29010D01*
Y40313D01*
D02*
G37*
G36*
X23640Y39863D02*
X23546Y39844D01*
X23467Y39791D01*
X23414Y39712D01*
X23395Y39618D01*
X23414Y39524D01*
X23467Y39445D01*
X23546Y39392D01*
X23640Y39373D01*
X23734Y39392D01*
X23813Y39445D01*
X23866Y39524D01*
X23885Y39618D01*
X23866Y39712D01*
X23813Y39791D01*
X23734Y39844D01*
X23640Y39863D01*
D02*
G37*
G36*
X29410Y39537D02*
X29110D01*
Y38861D01*
X29410D01*
Y39537D01*
D02*
G37*
G36*
X29010D02*
X28710D01*
Y38861D01*
X29010D01*
Y39537D01*
D02*
G37*
G36*
X28410Y40313D02*
X27710D01*
Y38861D01*
X28410D01*
Y40313D01*
D02*
G37*
G36*
X27410D02*
X26710D01*
Y38861D01*
X27410D01*
Y40313D01*
D02*
G37*
G36*
X26410D02*
X25710D01*
Y38861D01*
X26410D01*
Y40313D01*
D02*
G37*
%LPD*%
D43*
X29060Y39587D02*
D03*
D44*
X22520Y44350D02*
D03*
X23130Y40840D02*
D03*
X24134Y42724D02*
D03*
X29010Y42850D02*
D03*
M02*
