G04*
G04 #@! TF.GenerationSoftware,Altium Limited,Altium Designer,20.1.14 (287)*
G04*
G04 Layer_Color=8388736*
%FSLAX24Y24*%
%MOIN*%
G70*
G04*
G04 #@! TF.SameCoordinates,A3AF8FF9-738B-471D-B888-556D1E7F3E26*
G04*
G04*
G04 #@! TF.FilePolarity,Negative*
G04*
G01*
G75*
%ADD28O,0.0572X0.0276*%
%ADD29R,0.0276X0.0355*%
%ADD30R,0.0453X0.0631*%
%ADD31R,0.0257X0.0198*%
%ADD32R,0.1300X0.0867*%
%ADD33R,0.0394X0.0867*%
%ADD34R,0.0473X0.0512*%
%ADD35R,0.0217X0.0375*%
%ADD36R,0.0316X0.0375*%
%ADD37R,0.0572X0.0453*%
%ADD38R,0.0375X0.0217*%
%ADD39R,0.0335X0.0375*%
%ADD40R,0.0540X0.1292*%
%ADD41C,0.0320*%
D28*
X28390Y41470D02*
D03*
Y41970D02*
D03*
Y42470D02*
D03*
Y42970D02*
D03*
X25614Y41470D02*
D03*
Y41970D02*
D03*
Y42470D02*
D03*
Y42970D02*
D03*
D29*
X22899Y43010D02*
D03*
X23470D02*
D03*
D30*
X28100Y44830D02*
D03*
D31*
X28582Y45145D02*
D03*
Y44830D02*
D03*
Y44515D02*
D03*
X27618Y45145D02*
D03*
Y44830D02*
D03*
Y44515D02*
D03*
D32*
X23640Y39618D02*
D03*
D33*
X22734Y41862D02*
D03*
X23640D02*
D03*
X24546D02*
D03*
D34*
X24450Y44930D02*
D03*
X23623D02*
D03*
D35*
X23710Y44030D02*
D03*
X23119D02*
D03*
D36*
X24294Y43030D02*
D03*
X24786D02*
D03*
X25046Y44020D02*
D03*
X24554D02*
D03*
D37*
X25950Y44025D02*
D03*
Y44615D02*
D03*
D38*
X27040Y44555D02*
D03*
Y45145D02*
D03*
D39*
X28034Y43840D02*
D03*
X28546D02*
D03*
D40*
X26060Y39587D02*
D03*
X27060D02*
D03*
X29060D02*
D03*
X28060D02*
D03*
D41*
X26170Y45500D02*
D03*
X23640Y41862D02*
D03*
Y39618D02*
D03*
X22730Y45030D02*
D03*
X26430Y44000D02*
D03*
X26130Y43300D02*
D03*
X26850Y42480D02*
D03*
X27060Y39587D02*
D03*
X28060D02*
D03*
X28820Y45420D02*
D03*
X27240Y43940D02*
D03*
X24900Y45650D02*
D03*
X22520Y44350D02*
D03*
X23130Y40840D02*
D03*
X24134Y42724D02*
D03*
X29010Y42850D02*
D03*
M02*
