G04*
G04 #@! TF.GenerationSoftware,Altium Limited,Altium Designer,20.1.14 (287)*
G04*
G04 Layer_Physical_Order=1*
G04 Layer_Color=255*
%FSLAX24Y24*%
%MOIN*%
G70*
G04*
G04 #@! TF.SameCoordinates,A3AF8FF9-738B-471D-B888-556D1E7F3E26*
G04*
G04*
G04 #@! TF.FilePolarity,Positive*
G04*
G01*
G75*
%ADD16O,0.0531X0.0236*%
%ADD17R,0.0236X0.0315*%
%ADD18R,0.0413X0.0591*%
%ADD19R,0.0217X0.0158*%
%ADD20R,0.1260X0.0827*%
%ADD21R,0.0354X0.0827*%
%ADD22R,0.0433X0.0472*%
%ADD23R,0.0177X0.0335*%
%ADD24R,0.0276X0.0335*%
%ADD25R,0.0531X0.0413*%
%ADD26R,0.0335X0.0177*%
%ADD27R,0.0295X0.0335*%
%ADD42C,0.0100*%
%ADD43R,0.0500X0.1252*%
%ADD44C,0.0280*%
G36*
X29530Y46100D02*
X30010Y45620D01*
X30010Y37260D01*
X29670Y36920D01*
X25410D01*
X25130Y37200D01*
Y38170D01*
X24290Y39010D01*
X22290Y39010D01*
X22050Y39250D01*
X22050Y45410D01*
X22740Y46100D01*
X29530Y46100D01*
D02*
G37*
%LPC*%
G36*
X29036Y45863D02*
X27676D01*
X27618Y45851D01*
X27568Y45818D01*
X27510Y45760D01*
X27476Y45710D01*
X27465Y45651D01*
Y45324D01*
X27409D01*
Y45298D01*
X27307D01*
Y45334D01*
X26773D01*
Y44957D01*
X27307D01*
Y44992D01*
X27409D01*
Y44880D01*
X27618D01*
Y44780D01*
X27409D01*
Y44651D01*
Y44336D01*
X27409Y44336D01*
X27409D01*
X27382Y44299D01*
X27264Y44180D01*
X27240Y44185D01*
X27146Y44166D01*
X27067Y44113D01*
X27014Y44034D01*
X26995Y43940D01*
X27014Y43846D01*
X27067Y43767D01*
X27146Y43714D01*
X27240Y43695D01*
X27334Y43714D01*
X27413Y43767D01*
X27466Y43846D01*
X27485Y43940D01*
X27480Y43964D01*
X27726Y44210D01*
X27759Y44259D01*
X27771Y44318D01*
Y44336D01*
X27826D01*
Y44435D01*
X28050D01*
Y44830D01*
X28150D01*
Y44435D01*
X28374D01*
Y44336D01*
X28532D01*
Y44515D01*
X28582D01*
Y44565D01*
X28791D01*
Y44677D01*
X29081D01*
X29140Y44689D01*
X29190Y44722D01*
X29248Y44780D01*
X29281Y44830D01*
X29293Y44889D01*
Y45606D01*
X29281Y45665D01*
X29248Y45714D01*
X29144Y45818D01*
X29095Y45851D01*
X29036Y45863D01*
D02*
G37*
G36*
X26170Y45745D02*
X26076Y45726D01*
X25997Y45673D01*
X25944Y45594D01*
X25925Y45500D01*
X25930Y45476D01*
X25842Y45388D01*
X25809Y45339D01*
X25797Y45280D01*
Y44922D01*
X25584D01*
Y44309D01*
Y43718D01*
X26316D01*
Y43732D01*
X26366Y43768D01*
X26430Y43755D01*
X26524Y43774D01*
X26603Y43827D01*
X26656Y43906D01*
X26675Y44000D01*
X26656Y44094D01*
X26603Y44173D01*
X26524Y44226D01*
X26430Y44245D01*
X26366Y44232D01*
X26316Y44268D01*
Y44402D01*
X26773D01*
Y44366D01*
X27307D01*
Y44743D01*
X26773D01*
Y44708D01*
X26316D01*
Y44922D01*
X26103D01*
Y45217D01*
X26146Y45260D01*
X26170Y45255D01*
X26264Y45274D01*
X26343Y45327D01*
X26396Y45406D01*
X26415Y45500D01*
X26396Y45594D01*
X26343Y45673D01*
X26264Y45726D01*
X26170Y45745D01*
D02*
G37*
G36*
X23940Y45266D02*
X23673D01*
Y44980D01*
X23940D01*
Y45266D01*
D02*
G37*
G36*
X23573D02*
X23307D01*
Y44980D01*
X23573D01*
Y45266D01*
D02*
G37*
G36*
X28791Y44465D02*
X28632D01*
Y44336D01*
X28791D01*
Y44465D01*
D02*
G37*
G36*
X24900Y45895D02*
X24806Y45876D01*
X24727Y45823D01*
X24714Y45803D01*
X24509D01*
X24450Y45791D01*
X24400Y45758D01*
X24342Y45700D01*
X24309Y45650D01*
X24297Y45591D01*
Y45266D01*
X24133D01*
Y44594D01*
X24767D01*
Y45266D01*
X24603D01*
Y45497D01*
X24714D01*
X24727Y45477D01*
X24806Y45424D01*
X24900Y45405D01*
X24994Y45424D01*
X25039Y45454D01*
X25137Y45357D01*
Y44287D01*
X24842D01*
X24808Y44287D01*
X24758Y44287D01*
X24316D01*
Y44173D01*
X24210D01*
X24151Y44161D01*
X24102Y44128D01*
X24012Y44038D01*
X23979Y43989D01*
X23967Y43930D01*
Y43866D01*
X23899D01*
Y44297D01*
X23863D01*
Y44421D01*
X23851Y44480D01*
X23818Y44530D01*
X23804Y44544D01*
X23825Y44594D01*
X23940D01*
Y44880D01*
X23623D01*
X23307D01*
Y44633D01*
X23233D01*
Y44680D01*
X23221Y44739D01*
X23188Y44788D01*
X22970Y45006D01*
X22975Y45030D01*
X22956Y45124D01*
X22903Y45203D01*
X22824Y45256D01*
X22730Y45275D01*
X22636Y45256D01*
X22557Y45203D01*
X22504Y45124D01*
X22485Y45030D01*
X22504Y44936D01*
X22557Y44857D01*
X22636Y44804D01*
X22730Y44785D01*
X22754Y44790D01*
X22927Y44617D01*
Y44539D01*
X22939Y44480D01*
X22972Y44430D01*
X23030Y44372D01*
X23067Y44347D01*
X23052Y44297D01*
X22931D01*
Y44183D01*
X22757D01*
X22730Y44233D01*
X22746Y44256D01*
X22765Y44350D01*
X22746Y44444D01*
X22693Y44523D01*
X22614Y44576D01*
X22520Y44595D01*
X22426Y44576D01*
X22347Y44523D01*
X22294Y44444D01*
X22275Y44350D01*
X22294Y44256D01*
X22347Y44177D01*
X22383Y44153D01*
X22394Y44097D01*
X22428Y44047D01*
X22553Y43922D01*
X22603Y43889D01*
X22661Y43877D01*
X22931D01*
Y43763D01*
X23282D01*
X23292Y43713D01*
X23326Y43663D01*
X23384Y43605D01*
X23434Y43571D01*
X23492Y43560D01*
X24061D01*
X24120Y43571D01*
X24170Y43605D01*
X24228Y43663D01*
X24261Y43713D01*
X24268Y43748D01*
X24316Y43753D01*
X24316Y43753D01*
X24316Y43753D01*
X24758D01*
X24792Y43753D01*
X24842Y43753D01*
X25284D01*
Y43913D01*
X25334Y43923D01*
X25383Y43956D01*
X25398Y43970D01*
X25431Y44020D01*
X25443Y44079D01*
Y45420D01*
X25431Y45479D01*
X25398Y45528D01*
X25193Y45733D01*
X25144Y45766D01*
X25106Y45774D01*
X25073Y45823D01*
X24994Y45876D01*
X24900Y45895D01*
D02*
G37*
G36*
X28596Y44107D02*
Y43890D01*
X28794D01*
Y44107D01*
X28596D01*
D02*
G37*
G36*
X28794Y43790D02*
X28596D01*
Y43573D01*
X28794D01*
Y43790D01*
D02*
G37*
G36*
X28298Y44107D02*
X28248Y44107D01*
X27786D01*
Y43573D01*
X27652Y43438D01*
X27619Y43388D01*
X27607Y43330D01*
Y42120D01*
X27619Y42061D01*
X27652Y42012D01*
X27802Y41862D01*
X27851Y41829D01*
X27910Y41817D01*
X28082D01*
X28085Y41813D01*
X28157Y41765D01*
X28242Y41748D01*
X28247D01*
Y41692D01*
X28242D01*
X28157Y41675D01*
X28085Y41627D01*
X28037Y41555D01*
X28020Y41470D01*
X28037Y41385D01*
X28085Y41313D01*
X28157Y41265D01*
X28242Y41248D01*
X28538D01*
X28623Y41265D01*
X28695Y41313D01*
X28743Y41385D01*
X28760Y41470D01*
X28743Y41555D01*
X28695Y41627D01*
X28623Y41675D01*
X28553Y41689D01*
Y41751D01*
X28623Y41765D01*
X28695Y41813D01*
X28743Y41885D01*
X28760Y41970D01*
X28743Y42055D01*
X28695Y42127D01*
X28623Y42175D01*
X28538Y42192D01*
X28242D01*
X28157Y42175D01*
X28085Y42127D01*
X28082Y42123D01*
X27973D01*
X27913Y42183D01*
Y43267D01*
X28119Y43473D01*
X28153Y43523D01*
X28163Y43573D01*
X28282Y43573D01*
X28332Y43573D01*
X28496D01*
Y43840D01*
Y44107D01*
X28332D01*
X28298Y44107D01*
D02*
G37*
G36*
X26130Y43545D02*
X26036Y43526D01*
X25957Y43473D01*
X25904Y43394D01*
X25885Y43300D01*
X25904Y43206D01*
X25914Y43191D01*
X25878Y43155D01*
X25847Y43175D01*
X25762Y43192D01*
X25467D01*
X25382Y43175D01*
X25310Y43127D01*
X25261Y43055D01*
X25244Y42970D01*
X25261Y42885D01*
X25310Y42813D01*
X25382Y42765D01*
X25467Y42748D01*
X25762D01*
X25847Y42765D01*
X25919Y42813D01*
X25922Y42817D01*
X26010D01*
X26069Y42829D01*
X26118Y42862D01*
X26238Y42982D01*
X26271Y43031D01*
X26283Y43090D01*
Y43113D01*
X26303Y43127D01*
X26356Y43206D01*
X26375Y43300D01*
X26356Y43394D01*
X26303Y43473D01*
X26224Y43526D01*
X26130Y43545D01*
D02*
G37*
G36*
X23117Y43267D02*
X22949D01*
Y43060D01*
X23117D01*
Y43267D01*
D02*
G37*
G36*
X22849D02*
X22681D01*
Y43060D01*
X22849D01*
Y43267D01*
D02*
G37*
G36*
X23117Y42960D02*
X22949D01*
Y42753D01*
X23117D01*
Y42960D01*
D02*
G37*
G36*
X22849D02*
X22681D01*
Y42753D01*
X22849D01*
Y42960D01*
D02*
G37*
G36*
X28538Y43192D02*
X28242D01*
X28157Y43175D01*
X28085Y43127D01*
X28037Y43055D01*
X28020Y42970D01*
X28037Y42885D01*
X28085Y42813D01*
X28157Y42765D01*
X28237Y42749D01*
Y42691D01*
X28157Y42675D01*
X28085Y42627D01*
X28037Y42555D01*
X28020Y42470D01*
X28037Y42385D01*
X28085Y42313D01*
X28157Y42265D01*
X28242Y42248D01*
X28538D01*
X28623Y42265D01*
X28695Y42313D01*
X28743Y42385D01*
X28760Y42470D01*
X28743Y42555D01*
X28695Y42627D01*
X28623Y42675D01*
X28543Y42691D01*
Y42749D01*
X28623Y42765D01*
X28695Y42813D01*
X28698Y42817D01*
X28772D01*
X28784Y42756D01*
X28837Y42677D01*
X28916Y42624D01*
X29010Y42605D01*
X29104Y42624D01*
X29183Y42677D01*
X29236Y42756D01*
X29255Y42850D01*
X29236Y42944D01*
X29183Y43023D01*
X29104Y43076D01*
X29010Y43095D01*
X28960Y43085D01*
X28920Y43111D01*
X28861Y43123D01*
X28698D01*
X28695Y43127D01*
X28623Y43175D01*
X28538Y43192D01*
D02*
G37*
G36*
X24823Y42375D02*
X24596D01*
Y41912D01*
X24823D01*
Y42375D01*
D02*
G37*
G36*
X24496D02*
X24268D01*
Y41912D01*
X24496D01*
Y42375D01*
D02*
G37*
G36*
X25762Y42192D02*
X25467D01*
X25382Y42175D01*
X25310Y42127D01*
X25261Y42055D01*
X25244Y41970D01*
X25261Y41885D01*
X25310Y41813D01*
X25382Y41765D01*
X25467Y41748D01*
X25762D01*
X25847Y41765D01*
X25919Y41813D01*
X25967Y41885D01*
X25984Y41970D01*
X25967Y42055D01*
X25919Y42127D01*
X25847Y42175D01*
X25762Y42192D01*
D02*
G37*
G36*
Y41692D02*
X25664D01*
Y41520D01*
X25974D01*
X25967Y41555D01*
X25919Y41627D01*
X25847Y41675D01*
X25762Y41692D01*
D02*
G37*
G36*
X25564D02*
X25467D01*
X25382Y41675D01*
X25310Y41627D01*
X25261Y41555D01*
X25254Y41520D01*
X25564D01*
Y41692D01*
D02*
G37*
G36*
X24823Y41812D02*
X24596D01*
Y41349D01*
X24823D01*
Y41812D01*
D02*
G37*
G36*
X24496D02*
X24268D01*
Y41349D01*
X24496D01*
Y41812D01*
D02*
G37*
G36*
X23688Y43267D02*
X23252D01*
Y42753D01*
X23472D01*
X23487Y42737D01*
Y42375D01*
X23363D01*
Y41349D01*
X23917D01*
Y42375D01*
X23793D01*
Y42801D01*
X23781Y42859D01*
X23748Y42909D01*
X23688Y42969D01*
Y43267D01*
D02*
G37*
G36*
X25974Y41420D02*
X25664D01*
Y41248D01*
X25762D01*
X25847Y41265D01*
X25919Y41313D01*
X25967Y41385D01*
X25974Y41420D01*
D02*
G37*
G36*
X25564D02*
X25254D01*
X25261Y41385D01*
X25310Y41313D01*
X25382Y41265D01*
X25467Y41248D01*
X25564D01*
Y41420D01*
D02*
G37*
G36*
X23012Y42375D02*
X22457D01*
Y41349D01*
X22582D01*
Y41236D01*
X22593Y41177D01*
X22626Y41127D01*
X22890Y40864D01*
X22885Y40840D01*
X22904Y40746D01*
X22957Y40667D01*
X23036Y40614D01*
X23130Y40595D01*
X23224Y40614D01*
X23303Y40667D01*
X23356Y40746D01*
X23375Y40840D01*
X23356Y40934D01*
X23303Y41013D01*
X23224Y41066D01*
X23130Y41085D01*
X23106Y41080D01*
X22888Y41299D01*
X22888Y41349D01*
X23012D01*
Y42375D01*
D02*
G37*
G36*
X26410Y40313D02*
X26110D01*
Y39637D01*
X26410D01*
Y40313D01*
D02*
G37*
G36*
X26010D02*
X25710D01*
Y39637D01*
X26010D01*
Y40313D01*
D02*
G37*
G36*
X24370Y40131D02*
X22910D01*
Y39105D01*
X24370D01*
Y40131D01*
D02*
G37*
G36*
X29410Y40313D02*
X28710D01*
Y38861D01*
X29410D01*
Y40313D01*
D02*
G37*
G36*
X24548Y43297D02*
X24498Y43297D01*
X24056D01*
Y42957D01*
X24055Y42953D01*
X24041Y42951D01*
X23961Y42897D01*
X23908Y42818D01*
X23890Y42724D01*
X23908Y42631D01*
X23961Y42551D01*
X24041Y42498D01*
X24134Y42480D01*
X24228Y42498D01*
X24307Y42551D01*
X24361Y42631D01*
X24379Y42724D01*
X24411Y42763D01*
X24532Y42763D01*
X24582Y42763D01*
X24633D01*
X24645Y42705D01*
X24678Y42656D01*
X24972Y42362D01*
X25021Y42329D01*
X25080Y42317D01*
X25307D01*
X25310Y42313D01*
X25382Y42265D01*
X25467Y42248D01*
X25762D01*
X25847Y42265D01*
X25919Y42313D01*
X25922Y42317D01*
X26670D01*
X26677Y42307D01*
X26697Y42294D01*
Y41830D01*
X26709Y41771D01*
X26742Y41722D01*
X27907Y40557D01*
Y40313D01*
X27710D01*
Y38861D01*
X28410D01*
Y40313D01*
X28213D01*
Y40620D01*
X28201Y40679D01*
X28168Y40728D01*
X27003Y41893D01*
Y42294D01*
X27023Y42307D01*
X27076Y42386D01*
X27095Y42480D01*
X27076Y42574D01*
X27023Y42653D01*
X26944Y42706D01*
X26850Y42725D01*
X26756Y42706D01*
X26677Y42653D01*
X26657Y42623D01*
X25922D01*
X25919Y42627D01*
X25847Y42675D01*
X25762Y42692D01*
X25467D01*
X25382Y42675D01*
X25310Y42627D01*
X25307Y42623D01*
X25143D01*
X25045Y42721D01*
X25024Y42763D01*
X25024D01*
X25024Y42763D01*
Y43297D01*
X24582D01*
X24548Y43297D01*
D02*
G37*
G36*
X27410Y40313D02*
X26710D01*
Y38861D01*
X27410D01*
Y40313D01*
D02*
G37*
G36*
X26410Y39537D02*
X26110D01*
Y38861D01*
X26410D01*
Y39537D01*
D02*
G37*
G36*
X26010D02*
X25710D01*
Y38861D01*
X26010D01*
Y39537D01*
D02*
G37*
%LPD*%
D16*
X28390Y41470D02*
D03*
Y41970D02*
D03*
Y42470D02*
D03*
Y42970D02*
D03*
X25614Y41470D02*
D03*
Y41970D02*
D03*
Y42470D02*
D03*
Y42970D02*
D03*
D17*
X22899Y43010D02*
D03*
X23470D02*
D03*
D18*
X28100Y44830D02*
D03*
D19*
X28582Y45145D02*
D03*
Y44830D02*
D03*
Y44515D02*
D03*
X27618Y45145D02*
D03*
Y44830D02*
D03*
Y44515D02*
D03*
D20*
X23640Y39618D02*
D03*
D21*
X22734Y41862D02*
D03*
X23640D02*
D03*
X24546D02*
D03*
D22*
X24450Y44930D02*
D03*
X23623D02*
D03*
D23*
X23710Y44030D02*
D03*
X23119D02*
D03*
D24*
X24294Y43030D02*
D03*
X24786D02*
D03*
X25046Y44020D02*
D03*
X24554D02*
D03*
D25*
X25950Y44025D02*
D03*
Y44615D02*
D03*
D26*
X27040Y44555D02*
D03*
Y45145D02*
D03*
D27*
X28034Y43840D02*
D03*
X28546D02*
D03*
D42*
X23640Y41862D02*
Y42801D01*
X25950Y44615D02*
Y45280D01*
X26170Y45500D01*
X23470Y42971D02*
X23640Y42801D01*
X23470Y42971D02*
Y43010D01*
X26011Y44555D02*
X27040D01*
X25950Y44615D02*
X26011Y44555D01*
X23139Y44480D02*
X23651D01*
X23710Y44030D02*
Y44421D01*
X23651Y44480D02*
X23710Y44421D01*
X23080Y44539D02*
Y44680D01*
Y44539D02*
X23139Y44480D01*
X22730Y45030D02*
X23080Y44680D01*
X25975Y44000D02*
X26430D01*
X25950Y44025D02*
X25975Y44000D01*
X26010Y42970D02*
X26130Y43090D01*
X25614Y42970D02*
X26010D01*
X26130Y43090D02*
Y43300D01*
X26130Y43300D01*
X28739Y45174D02*
X28798Y45232D01*
X28611Y45174D02*
X28739D01*
X28798Y45232D02*
Y45398D01*
X28582Y45145D02*
X28611Y45174D01*
X26840Y42470D02*
X26850Y42460D01*
Y41830D02*
Y42460D01*
X25614Y42470D02*
X26840D01*
X28390Y41470D02*
X28400Y41480D01*
X28390Y41970D02*
X28400Y41960D01*
Y41480D02*
Y41960D01*
X27760Y42120D02*
Y43330D01*
X28011Y43581D01*
Y43817D02*
X28034Y43840D01*
X28011Y43581D02*
Y43817D01*
X27760Y42120D02*
X27910Y41970D01*
X28390D01*
X28060Y39587D02*
Y40620D01*
X26850Y41830D02*
X28060Y40620D01*
X25080Y42470D02*
X25614D01*
X24786Y42764D02*
Y43030D01*
Y42764D02*
X25080Y42470D01*
X27676Y45710D02*
X29036D01*
X27618Y45145D02*
Y45651D01*
X27676Y45710D01*
X29036D02*
X29140Y45606D01*
Y44889D02*
Y45606D01*
X28798Y45398D02*
X28820Y45420D01*
X28582Y44830D02*
X29081D01*
X29140Y44889D01*
X27618Y44318D02*
Y44515D01*
X27240Y43940D02*
X27618Y44318D01*
X27040Y45145D02*
X27040Y45145D01*
X27618D01*
X27618Y45145D01*
X23470Y43010D02*
X23538Y42942D01*
X24206Y42845D02*
Y42942D01*
X24294Y43030D01*
X24134Y42773D02*
X24206Y42845D01*
X24134Y42724D02*
Y42773D01*
X25290Y44079D02*
Y45420D01*
X24900Y45650D02*
X24925Y45625D01*
X25085D01*
X25290Y45420D01*
X24509Y45650D02*
X24900D01*
X25046Y44020D02*
X25090Y44064D01*
X25275D01*
X25290Y44079D01*
X24450Y44930D02*
Y45591D01*
X24509Y45650D01*
X22520Y44350D02*
X22536Y44334D01*
X22661Y44030D02*
X23119D01*
X22536Y44156D02*
Y44334D01*
Y44156D02*
X22661Y44030D01*
X23119D02*
X23151Y43998D01*
X23375D01*
X24061Y43713D02*
X24120Y43771D01*
X23434D02*
Y43940D01*
X24120Y43771D02*
Y43930D01*
X23434Y43771D02*
X23492Y43713D01*
X24061D01*
X23375Y43998D02*
X23434Y43940D01*
X24210Y44020D02*
X24554D01*
X24120Y43930D02*
X24210Y44020D01*
X22734Y41236D02*
X23130Y40840D01*
X22734Y41236D02*
Y41862D01*
X28390Y42970D02*
X28861D01*
X28981Y42850D02*
X29010D01*
X28861Y42970D02*
X28981Y42850D01*
X28390Y42470D02*
Y42970D01*
D43*
X26060Y39587D02*
D03*
X27060D02*
D03*
X29060D02*
D03*
X28060D02*
D03*
D44*
X26170Y45500D02*
D03*
X23640Y41862D02*
D03*
Y39618D02*
D03*
X22730Y45030D02*
D03*
X26430Y44000D02*
D03*
X26130Y43300D02*
D03*
X26850Y42480D02*
D03*
X27060Y39587D02*
D03*
X28060D02*
D03*
X28820Y45420D02*
D03*
X27240Y43940D02*
D03*
X24900Y45650D02*
D03*
X22520Y44350D02*
D03*
X23130Y40840D02*
D03*
X24134Y42724D02*
D03*
X29010Y42850D02*
D03*
M02*
