G04*
G04 #@! TF.GenerationSoftware,Altium Limited,Altium Designer,20.1.14 (287)*
G04*
G04 Layer_Physical_Order=4*
G04 Layer_Color=16711680*
%FSLAX24Y24*%
%MOIN*%
G70*
G04*
G04 #@! TF.SameCoordinates,A3AF8FF9-738B-471D-B888-556D1E7F3E26*
G04*
G04*
G04 #@! TF.FilePolarity,Positive*
G04*
G01*
G75*
%ADD42C,0.0100*%
%ADD43R,0.0500X0.1252*%
%ADD44C,0.0280*%
G36*
X29530Y46100D02*
X30010Y45620D01*
Y37260D01*
X29670Y36920D01*
X25410D01*
X25130Y37200D01*
Y38170D01*
X24290Y39010D01*
X22290Y39010D01*
X22050Y39250D01*
Y45410D01*
X22740Y46100D01*
X29530Y46100D01*
D02*
G37*
%LPC*%
G36*
X26250Y45913D02*
X25224D01*
X25166Y45901D01*
X25116Y45868D01*
X25072Y45824D01*
X24994Y45876D01*
X24900Y45895D01*
X24806Y45876D01*
X24727Y45823D01*
X24674Y45744D01*
X24655Y45650D01*
X24674Y45556D01*
X24727Y45477D01*
X24806Y45424D01*
X24900Y45405D01*
X24994Y45424D01*
X25073Y45477D01*
X25086Y45497D01*
X25114D01*
X25173Y45509D01*
X25223Y45542D01*
X25288Y45607D01*
X26187D01*
X26575Y45219D01*
Y44452D01*
X26587Y44394D01*
X26620Y44344D01*
X27000Y43964D01*
X26995Y43940D01*
X26998Y43929D01*
X26524Y43456D01*
X26315D01*
X26303Y43473D01*
X26224Y43526D01*
X26130Y43545D01*
X26036Y43526D01*
X25957Y43473D01*
X25904Y43394D01*
X25885Y43300D01*
X25904Y43206D01*
X25957Y43127D01*
X26036Y43074D01*
X26130Y43055D01*
X26178Y43065D01*
X26217Y43033D01*
Y41330D01*
X26229Y41271D01*
X26262Y41222D01*
X26907Y40577D01*
Y40313D01*
X26710D01*
Y38861D01*
X27410D01*
Y40313D01*
X27213D01*
Y40640D01*
X27201Y40699D01*
X27168Y40748D01*
X26523Y41393D01*
Y43022D01*
X26696Y43195D01*
X27204Y43703D01*
X27240Y43695D01*
X27334Y43714D01*
X27413Y43767D01*
X27466Y43846D01*
X27485Y43940D01*
X27466Y44034D01*
X27413Y44113D01*
X27334Y44166D01*
X27240Y44185D01*
X27216Y44180D01*
X26881Y44516D01*
Y45282D01*
X26869Y45341D01*
X26836Y45390D01*
X26358Y45868D01*
X26309Y45901D01*
X26250Y45913D01*
D02*
G37*
G36*
X28820Y45665D02*
X28726Y45646D01*
X28647Y45593D01*
X28634Y45573D01*
X28100D01*
X28041Y45561D01*
X27992Y45528D01*
X27582Y45118D01*
X27549Y45069D01*
X27537Y45010D01*
Y43756D01*
X26742Y42961D01*
X26709Y42911D01*
X26697Y42853D01*
Y42666D01*
X26677Y42653D01*
X26624Y42574D01*
X26605Y42480D01*
X26624Y42386D01*
X26677Y42307D01*
X26756Y42254D01*
X26850Y42235D01*
X26944Y42254D01*
X27023Y42307D01*
X27076Y42386D01*
X27095Y42480D01*
X27076Y42574D01*
X27023Y42653D01*
X27003Y42666D01*
Y42789D01*
X27798Y43585D01*
X27831Y43634D01*
X27843Y43693D01*
Y44947D01*
X28163Y45267D01*
X28634D01*
X28647Y45247D01*
X28726Y45194D01*
X28820Y45175D01*
X28914Y45194D01*
X28993Y45247D01*
X29046Y45326D01*
X29065Y45420D01*
X29046Y45514D01*
X28993Y45593D01*
X28914Y45646D01*
X28820Y45665D01*
D02*
G37*
G36*
X22730Y45275D02*
X22636Y45256D01*
X22557Y45203D01*
X22504Y45124D01*
X22485Y45030D01*
X22504Y44936D01*
X22557Y44857D01*
X22636Y44804D01*
X22683Y44795D01*
X22692Y44781D01*
X23581Y43892D01*
X23631Y43859D01*
X23689Y43847D01*
X26244D01*
X26257Y43827D01*
X26336Y43774D01*
X26430Y43755D01*
X26524Y43774D01*
X26603Y43827D01*
X26656Y43906D01*
X26675Y44000D01*
X26656Y44094D01*
X26603Y44173D01*
X26524Y44226D01*
X26430Y44245D01*
X26336Y44226D01*
X26257Y44173D01*
X26244Y44153D01*
X23753D01*
X22958Y44947D01*
X22975Y45030D01*
X22956Y45124D01*
X22903Y45203D01*
X22824Y45256D01*
X22730Y45275D01*
D02*
G37*
G36*
X26410Y40313D02*
X26110D01*
Y39637D01*
X26410D01*
Y40313D01*
D02*
G37*
G36*
X26010D02*
X25710D01*
Y39637D01*
X26010D01*
Y40313D01*
D02*
G37*
G36*
X29410D02*
X28710D01*
Y38861D01*
X29410D01*
Y40313D01*
D02*
G37*
G36*
X28410D02*
X27710D01*
Y38861D01*
X28410D01*
Y40313D01*
D02*
G37*
G36*
X26410Y39537D02*
X26110D01*
Y38861D01*
X26410D01*
Y39537D01*
D02*
G37*
G36*
X26010D02*
X25710D01*
Y38861D01*
X26010D01*
Y39537D01*
D02*
G37*
%LPD*%
D42*
X26370Y41330D02*
X27060Y40640D01*
X26370Y43085D02*
X26588Y43303D01*
X26370Y41330D02*
Y43085D01*
X27690Y43693D02*
Y45010D01*
X28100Y45420D02*
X28820D01*
X27690Y45010D02*
X28100Y45420D01*
X26850Y42853D02*
X27690Y43693D01*
X26850Y42480D02*
Y42853D01*
X23689Y44000D02*
X26430D01*
X22730Y44981D02*
Y45030D01*
Y44981D02*
X22800Y44912D01*
Y44890D02*
Y44912D01*
Y44890D02*
X23689Y44000D01*
X25224Y45760D02*
X26250D01*
X25114Y45650D02*
X25224Y45760D01*
X24900Y45650D02*
X25114D01*
X26588Y43303D02*
X27225Y43940D01*
X26130Y43300D02*
X26133Y43303D01*
X26588D01*
X27225Y43940D02*
X27240D01*
X27060Y39587D02*
Y40640D01*
X26250Y45760D02*
X26728Y45282D01*
Y44452D02*
X27240Y43940D01*
X26728Y44452D02*
Y45282D01*
D43*
X26060Y39587D02*
D03*
X27060D02*
D03*
X29060D02*
D03*
X28060D02*
D03*
D44*
X22730Y45030D02*
D03*
X26430Y44000D02*
D03*
X26130Y43300D02*
D03*
X26850Y42480D02*
D03*
X27060Y39587D02*
D03*
X28060D02*
D03*
X28820Y45420D02*
D03*
X27240Y43940D02*
D03*
X24900Y45650D02*
D03*
M02*
