G04*
G04 #@! TF.GenerationSoftware,Altium Limited,Altium Designer,20.1.14 (287)*
G04*
G04 Layer_Color=32768*
%FSLAX24Y24*%
%MOIN*%
G70*
G04*
G04 #@! TF.SameCoordinates,589AE504-9FD2-489B-9ED2-D25494F763CB*
G04*
G04*
G04 #@! TF.FilePolarity,Positive*
G04*
G01*
G75*
%ADD46C,0.0039*%
%ADD47C,0.0020*%
D46*
X27002Y42023D02*
Y42417D01*
X26805Y42220D02*
X27199D01*
X27363Y37460D02*
X27757D01*
X27560Y37263D02*
Y37657D01*
X23443Y40740D02*
X23837D01*
X23640Y40543D02*
Y40937D01*
X24037Y44733D02*
Y45127D01*
X23840Y44930D02*
X24233D01*
X23357Y44595D02*
X24716D01*
X23357Y45265D02*
X24716D01*
Y44595D02*
Y45265D01*
X23357Y44595D02*
Y45265D01*
X23185Y42912D02*
Y43108D01*
X23086Y43010D02*
X23283D01*
X23238Y44030D02*
X23592D01*
X23415Y43853D02*
Y44207D01*
X24353Y43030D02*
X24727D01*
X24540Y42843D02*
Y43217D01*
X24800Y43833D02*
Y44207D01*
X24613Y44020D02*
X24987D01*
X25950Y44123D02*
Y44517D01*
X25753Y44320D02*
X26147D01*
X26863Y44850D02*
X27217D01*
X27040Y44673D02*
Y45027D01*
X28103Y43840D02*
X28477D01*
X28290Y43653D02*
Y44027D01*
D47*
X25309Y41098D02*
X28695D01*
X25309Y43342D02*
X28695D01*
Y41098D02*
Y43342D01*
X25309Y41098D02*
Y43342D01*
X25471Y34658D02*
Y40262D01*
Y40262D02*
X29649D01*
X25471Y34658D02*
X29649D01*
Y34658D02*
Y40262D01*
X22282Y39165D02*
Y42315D01*
X24998Y39165D02*
Y42315D01*
X22282Y39165D02*
X24998D01*
X22282Y42315D02*
X24998D01*
X22742Y42813D02*
Y43207D01*
X23627D01*
Y42813D02*
Y43207D01*
X22742Y42810D02*
X23627D01*
X23848Y43813D02*
Y44247D01*
X22982Y43813D02*
Y44247D01*
Y43813D02*
X23848D01*
X22982Y44247D02*
X23848D01*
X24107Y42794D02*
Y43266D01*
X24973Y42794D02*
Y43266D01*
X24107D02*
X24973D01*
X24107Y42794D02*
X24973D01*
X24367Y43784D02*
X25233D01*
X24367Y44256D02*
X25233D01*
Y43784D02*
Y44256D01*
X24367Y43784D02*
Y44256D01*
X25635Y43788D02*
X26265D01*
X25635Y44851D02*
X26265D01*
X25635Y43788D02*
Y44851D01*
X26265Y43788D02*
Y44851D01*
X26823Y44417D02*
Y45283D01*
X27257Y44417D02*
Y45283D01*
X26823Y44417D02*
X27257D01*
X26823Y45283D02*
X27257D01*
X27837Y43604D02*
Y44076D01*
X28743Y43604D02*
Y44076D01*
X27837D02*
X28743D01*
X27837Y43604D02*
X28743D01*
M02*
