G04*
G04 #@! TF.GenerationSoftware,Altium Limited,Altium Designer,20.1.14 (287)*
G04*
G04 Layer_Color=65535*
%FSLAX25Y25*%
%MOIN*%
G70*
G04*
G04 #@! TF.SameCoordinates,09F66941-CC2D-4279-A4A5-F80E71D954FF*
G04*
G04*
G04 #@! TF.FilePolarity,Positive*
G04*
G01*
G75*
%ADD10C,0.00984*%
%ADD11C,0.02362*%
%ADD12C,0.01575*%
%ADD13C,0.00787*%
%ADD14C,0.00600*%
%ADD15C,0.00500*%
D10*
X256636Y433046D02*
G03*
X256636Y433046I-492J0D01*
G01*
X291092Y404293D02*
G03*
X291092Y404293I-492J0D01*
G01*
X249884Y418620D02*
G03*
X249884Y418620I-492J0D01*
G01*
D11*
X265494Y429090D02*
G03*
X265494Y429090I-1181J0D01*
G01*
D12*
X243650Y447125D02*
Y450275D01*
D13*
X285380Y445209D02*
Y446391D01*
X282820Y445209D02*
Y446391D01*
X260376Y411373D02*
Y433027D01*
X279668Y411373D02*
Y433027D01*
X260376D02*
X279668D01*
X260376Y411373D02*
X279668D01*
X255600Y380081D02*
X295600D01*
X255600Y370081D02*
Y380081D01*
Y370081D02*
X295600D01*
Y380081D01*
X223211Y413306D02*
X249589D01*
X223211Y401495D02*
X249589D01*
Y413306D01*
X223211Y401495D02*
Y413306D01*
X254459Y446931D02*
Y450869D01*
X253278D02*
X254459D01*
X253278Y446931D02*
X254459D01*
X233557Y439020D02*
X234738D01*
X233557Y441580D02*
X234738D01*
D14*
X269733Y406766D02*
X269400Y407099D01*
X268733D01*
X268400Y406766D01*
Y406433D01*
X268733Y406100D01*
X269400D01*
X269733Y405766D01*
Y405433D01*
X269400Y405100D01*
X268733D01*
X268400Y405433D01*
X271732Y406766D02*
X271399Y407099D01*
X270733D01*
X270399Y406766D01*
Y405433D01*
X270733Y405100D01*
X271399D01*
X271732Y405433D01*
X272399Y407099D02*
Y405100D01*
X273732D01*
X279333Y406966D02*
X279000Y407299D01*
X278333D01*
X278000Y406966D01*
Y406633D01*
X278333Y406300D01*
X279000D01*
X279333Y405966D01*
Y405633D01*
X279000Y405300D01*
X278333D01*
X278000Y405633D01*
X279999Y407299D02*
Y405300D01*
X280999D01*
X281332Y405633D01*
Y406966D01*
X280999Y407299D01*
X279999D01*
X281999Y405300D02*
Y406633D01*
X282665Y407299D01*
X283332Y406633D01*
Y405300D01*
Y406300D01*
X281999D01*
X259133Y406566D02*
X258800Y406899D01*
X258133D01*
X257800Y406566D01*
Y405233D01*
X258133Y404900D01*
X258800D01*
X259133Y405233D01*
Y405900D01*
X258466D01*
X259799Y404900D02*
Y406899D01*
X261132Y404900D01*
Y406899D01*
X261799D02*
Y404900D01*
X262798D01*
X263132Y405233D01*
Y406566D01*
X262798Y406899D01*
X261799D01*
X287900Y408266D02*
X288233Y408599D01*
X288900D01*
X289233Y408266D01*
Y407933D01*
X288900Y407600D01*
X288566D01*
X288900D01*
X289233Y407266D01*
Y406933D01*
X288900Y406600D01*
X288233D01*
X287900Y406933D01*
X289899Y408599D02*
Y407266D01*
X290566Y406600D01*
X291232Y407266D01*
Y408599D01*
X291899Y408266D02*
X292232Y408599D01*
X292898D01*
X293232Y408266D01*
Y407933D01*
X292898Y407600D01*
X292565D01*
X292898D01*
X293232Y407266D01*
Y406933D01*
X292898Y406600D01*
X292232D01*
X291899Y406933D01*
D15*
X240960Y428134D02*
X238961D01*
Y429134D01*
X239294Y429467D01*
X239961D01*
X240294Y429134D01*
Y428134D01*
Y428800D02*
X240960Y429467D01*
X239294Y430133D02*
X238961Y430467D01*
Y431133D01*
X239294Y431466D01*
X239627D01*
X239961Y431133D01*
Y430800D01*
Y431133D01*
X240294Y431466D01*
X240627D01*
X240960Y431133D01*
Y430467D01*
X240627Y430133D01*
X242400Y438534D02*
X240400D01*
Y439534D01*
X240734Y439867D01*
X241400D01*
X241733Y439534D01*
Y438534D01*
Y439200D02*
X242400Y439867D01*
Y441866D02*
Y440533D01*
X241067Y441866D01*
X240734D01*
X240400Y441533D01*
Y440867D01*
X240734Y440533D01*
X272600Y453699D02*
Y452033D01*
X272933Y451700D01*
X273600D01*
X273933Y452033D01*
Y453699D01*
X274599Y453366D02*
X274933Y453699D01*
X275599D01*
X275932Y453366D01*
Y453033D01*
X275599Y452700D01*
X275266D01*
X275599D01*
X275932Y452366D01*
Y452033D01*
X275599Y451700D01*
X274933D01*
X274599Y452033D01*
X250535Y455000D02*
Y453000D01*
X251534D01*
X251867Y453334D01*
Y454667D01*
X251534Y455000D01*
X250535D01*
X252534Y453000D02*
Y454333D01*
X253200Y455000D01*
X253867Y454333D01*
Y453000D01*
Y454000D01*
X252534D01*
X254533Y455000D02*
X255866D01*
X255200D01*
Y453000D01*
X256533D02*
Y454333D01*
X257199Y455000D01*
X257866Y454333D01*
Y453000D01*
Y454000D01*
X256533D01*
X235125Y451100D02*
Y453100D01*
X236125D01*
X236458Y452767D01*
Y452100D01*
X236125Y451767D01*
X235125D01*
X237125Y453100D02*
Y451100D01*
X237791Y451767D01*
X238458Y451100D01*
Y453100D01*
X239124Y451100D02*
Y453100D01*
X240124D01*
X240457Y452767D01*
Y452100D01*
X240124Y451767D01*
X239124D01*
X239791D02*
X240457Y451100D01*
X274467Y436800D02*
Y435134D01*
X274800Y434800D01*
X275467D01*
X275800Y435134D01*
Y436800D01*
X276466Y434800D02*
X277133D01*
X276800D01*
Y436800D01*
X276466Y436467D01*
X255100Y436867D02*
X253100D01*
Y437867D01*
X253433Y438200D01*
X254100D01*
X254433Y437867D01*
Y436867D01*
Y437534D02*
X255100Y438200D01*
Y438866D02*
Y439533D01*
Y439200D01*
X253100D01*
X253433Y438866D01*
X244234Y395200D02*
Y393534D01*
X244567Y393200D01*
X245234D01*
X245567Y393534D01*
Y395200D01*
X247566Y393200D02*
X246233D01*
X247566Y394533D01*
Y394866D01*
X247233Y395200D01*
X246567D01*
X246233Y394866D01*
X283767Y452214D02*
X283434Y452547D01*
X282767D01*
X282434Y452214D01*
Y450881D01*
X282767Y450548D01*
X283434D01*
X283767Y450881D01*
X284433Y452214D02*
X284767Y452547D01*
X285433D01*
X285766Y452214D01*
Y451880D01*
X285433Y451547D01*
X285100D01*
X285433D01*
X285766Y451214D01*
Y450881D01*
X285433Y450548D01*
X284767D01*
X284433Y450881D01*
X224386Y429867D02*
X224053Y429534D01*
Y428867D01*
X224386Y428534D01*
X225719D01*
X226052Y428867D01*
Y429534D01*
X225719Y429867D01*
X226052Y431866D02*
Y430533D01*
X224720Y431866D01*
X224386D01*
X224053Y431533D01*
Y430866D01*
X224386Y430533D01*
X227381Y440400D02*
X227047Y440067D01*
Y439400D01*
X227381Y439067D01*
X228714D01*
X229047Y439400D01*
Y440067D01*
X228714Y440400D01*
X229047Y441067D02*
Y441733D01*
Y441400D01*
X227047D01*
X227381Y441067D01*
M02*
