G04*
G04 #@! TF.GenerationSoftware,Altium Limited,Altium Designer,20.1.14 (287)*
G04*
G04 Layer_Physical_Order=1*
G04 Layer_Color=255*
%FSLAX25Y25*%
%MOIN*%
G70*
G04*
G04 #@! TF.SameCoordinates,CC44B269-2998-40F0-A8BF-F6E1C517B7F2*
G04*
G04*
G04 #@! TF.FilePolarity,Positive*
G04*
G01*
G75*
%ADD16R,0.04134X0.05315*%
%ADD17R,0.03150X0.03150*%
%ADD18R,0.02165X0.01575*%
%ADD19R,0.04134X0.05906*%
%ADD20R,0.03347X0.02953*%
%ADD21R,0.03543X0.08268*%
%ADD22R,0.12598X0.08268*%
%ADD23R,0.03347X0.01772*%
%ADD24O,0.05315X0.02362*%
%ADD37C,0.01000*%
%ADD38R,0.06000X0.12000*%
%ADD39O,0.06000X0.12000*%
%ADD40C,0.03500*%
D16*
X220594Y443500D02*
D03*
X226500D02*
D03*
D17*
X274500Y440594D02*
D03*
Y446500D02*
D03*
X265500Y446000D02*
D03*
Y440094D02*
D03*
D18*
X248177Y438850D02*
D03*
Y442000D02*
D03*
Y445150D02*
D03*
X257823Y438850D02*
D03*
Y442000D02*
D03*
Y445150D02*
D03*
D19*
X253000Y442000D02*
D03*
D20*
X231500Y434500D02*
D03*
Y429382D02*
D03*
X233500Y445559D02*
D03*
Y440441D02*
D03*
X239500Y429882D02*
D03*
Y435000D02*
D03*
D21*
X240555Y420941D02*
D03*
X231500D02*
D03*
X222445D02*
D03*
D22*
X231500Y398500D02*
D03*
D23*
X240500Y440047D02*
D03*
Y445953D02*
D03*
X222000Y429547D02*
D03*
Y435453D02*
D03*
D24*
X279378Y412500D02*
D03*
Y417500D02*
D03*
Y422500D02*
D03*
Y427500D02*
D03*
X251622Y412500D02*
D03*
Y417500D02*
D03*
Y422500D02*
D03*
Y427500D02*
D03*
D37*
X246000Y427500D02*
X251622D01*
X246000Y427500D02*
X246000Y427500D01*
X246000Y427500D02*
Y436673D01*
X246750Y437423D01*
X248177Y438850D01*
X243700Y437201D02*
Y440000D01*
X242500Y436001D02*
X243700Y437201D01*
X242500Y435000D02*
Y436001D01*
X239500Y435000D02*
X242500D01*
X251622Y427500D02*
X251622Y427500D01*
X239491Y427491D02*
Y429873D01*
X238575Y426575D02*
X239491Y427491D01*
X237586Y426575D02*
X238575D01*
X237000Y425989D02*
X237586Y426575D01*
X284875Y409375D02*
X287451Y406800D01*
X284875Y409375D02*
Y425625D01*
X283000Y427500D02*
X284875Y425625D01*
X287451Y406800D02*
X292414D01*
X293000Y396500D02*
Y406214D01*
Y390000D02*
Y396500D01*
X292414Y406800D02*
X293000Y406214D01*
X221249Y451000D02*
X227000D01*
X217027Y446779D02*
X221249Y451000D01*
X217027Y435745D02*
Y446779D01*
X233500Y445559D02*
Y453500D01*
X237300Y450643D02*
X243407Y456750D01*
X237300Y443461D02*
Y450643D01*
Y440047D02*
Y443461D01*
Y440047D02*
X240500D01*
X243407Y456750D02*
X271250D01*
X279000Y449000D01*
X245500Y453500D02*
X246927D01*
X247927Y454500D01*
X248177Y451414D02*
X248763Y452000D01*
X248177Y445150D02*
Y451414D01*
X248763Y452000D02*
X259820D01*
X260405Y451414D01*
Y442586D02*
Y451414D01*
X247927Y454500D02*
X261485D01*
X263647Y452338D01*
Y447853D02*
Y452338D01*
X253000Y448500D02*
X256759D01*
X257823Y447436D01*
X279000Y441180D02*
Y449000D01*
X274500Y440594D02*
X278414D01*
X279000Y441180D01*
X274111Y446111D02*
X274500Y446500D01*
X271516Y446111D02*
X274111D01*
X265500Y440094D02*
X269414D01*
X265500D02*
Y440094D01*
X266575Y441169D01*
X266575D01*
X271516Y446111D01*
X265594Y440094D02*
Y440189D01*
X262244Y440094D02*
X265594D01*
X271000Y418000D02*
Y418677D01*
X270000Y419676D02*
Y439509D01*
Y419676D02*
X271000Y418677D01*
X269414Y440094D02*
X270000Y439509D01*
X279378Y427500D02*
X283000D01*
X279378Y422500D02*
Y427500D01*
X240555Y413845D02*
X241881Y412519D01*
X260000Y412500D02*
X265500Y407000D01*
Y396500D02*
Y407000D01*
X241881Y412519D02*
X249400Y405000D01*
X251622Y412500D02*
X260000D01*
X241862D02*
X251622D01*
X237000Y406700D02*
Y425989D01*
X239491Y429873D02*
X239500Y429882D01*
X231587Y434413D02*
X234414D01*
X235000Y433827D01*
Y422000D02*
Y433827D01*
X231500Y420941D02*
X231745Y421186D01*
X234186D01*
X235000Y422000D01*
X231500Y398500D02*
Y420941D01*
X237000Y406700D02*
X254700Y389000D01*
X231500Y434500D02*
X231587Y434413D01*
X225500Y432500D02*
X228618Y429382D01*
X217027Y435745D02*
X220272Y432500D01*
X225500D01*
X221000Y439000D02*
Y443094D01*
X222000Y435453D02*
Y438000D01*
X221000Y439000D02*
X222000Y438000D01*
X220594Y443500D02*
X221000Y443094D01*
X230913Y440588D02*
X233353D01*
X229481Y442019D02*
X230913Y440588D01*
X226500Y443500D02*
X227981Y442019D01*
X229481D01*
X233353Y440588D02*
X233500Y440441D01*
X234986Y442583D02*
X236466D01*
X233606Y441462D02*
X234711Y442359D01*
X236466Y442583D02*
X237300Y443417D01*
X234711Y442359D02*
X234986Y442583D01*
X233500Y440441D02*
X233563Y441049D01*
X233606Y441462D01*
X244547Y445953D02*
X245350Y445150D01*
X240500Y445953D02*
X244547D01*
X245350Y445150D02*
X248177D01*
X257823D02*
Y447436D01*
Y442000D02*
X259820D01*
X260405Y442586D01*
X263647Y447853D02*
X265500Y446000D01*
X261000Y438850D02*
X262244Y440094D01*
X253000Y442000D02*
X256150Y438850D01*
X257823D01*
X249400Y405000D02*
X253500D01*
X254700Y389000D02*
X268000D01*
X251890Y422500D02*
X256390Y418000D01*
X251622Y422500D02*
X251890D01*
X256390Y418000D02*
X260500D01*
X222445Y391255D02*
Y420941D01*
Y391255D02*
X226700Y387000D01*
X290000D01*
X222000Y425445D02*
X222445Y425000D01*
Y420941D02*
Y425000D01*
X222000Y425445D02*
Y429547D01*
X228618Y429382D02*
X231500D01*
X240555Y413845D02*
Y420941D01*
X257823Y438850D02*
X261000D01*
X290000Y387000D02*
X293000Y390000D01*
X272000Y412500D02*
X279378D01*
X270000Y410500D02*
X272000Y412500D01*
X270000Y391000D02*
Y410500D01*
X268000Y389000D02*
X270000Y391000D01*
X243700Y440000D02*
X245700Y442000D01*
X248177D01*
X233500Y438400D02*
Y440441D01*
X231500Y436400D02*
X233500Y438400D01*
X231500Y434500D02*
Y436400D01*
X248177Y442000D02*
X253000D01*
X279378Y412500D02*
Y417500D01*
D38*
X293000Y396500D02*
D03*
D39*
X265500D02*
D03*
X283833D02*
D03*
X274667D02*
D03*
D40*
X246000Y427500D02*
D03*
X227000Y451000D02*
D03*
X233500Y453500D02*
D03*
X245500D02*
D03*
X253000Y448500D02*
D03*
X253500Y405000D02*
D03*
X271000Y418000D02*
D03*
X260500D02*
D03*
M02*
