G04*
G04 #@! TF.GenerationSoftware,Altium Limited,Altium Designer,20.1.14 (287)*
G04*
G04 Layer_Color=32768*
%FSLAX25Y25*%
%MOIN*%
G70*
G04*
G04 #@! TF.SameCoordinates,CC44B269-2998-40F0-A8BF-F6E1C517B7F2*
G04*
G04*
G04 #@! TF.FilePolarity,Positive*
G04*
G01*
G75*
%ADD42C,0.00394*%
%ADD43C,0.00197*%
D42*
X221579Y443500D02*
X225516D01*
X223547Y441532D02*
Y445469D01*
X231500Y430071D02*
Y433811D01*
X229630Y431941D02*
X233370D01*
X233500Y441130D02*
Y444870D01*
X231630Y443000D02*
X235370D01*
X231500Y407752D02*
Y411689D01*
X229532Y409720D02*
X233469D01*
X238728Y443000D02*
X242272D01*
X240500Y441228D02*
Y444772D01*
X220228Y432500D02*
X223772D01*
X222000Y430728D02*
Y434272D01*
X265500Y442063D02*
Y444031D01*
X264516Y443047D02*
X266484D01*
X239500Y430571D02*
Y434311D01*
X237630Y432441D02*
X241370D01*
X265500Y418032D02*
Y421969D01*
X263532Y420000D02*
X267469D01*
D43*
X218232Y440350D02*
Y446650D01*
X228862Y440350D02*
Y446650D01*
X218232D02*
X228862D01*
X218232Y440350D02*
X228862D01*
X229138Y436469D02*
X233862D01*
X229138Y427413D02*
X233862D01*
Y436469D01*
X229138Y427413D02*
Y436469D01*
X231138Y447528D02*
X235862D01*
X231138Y438472D02*
X235862D01*
Y447528D01*
X231138Y438472D02*
Y447528D01*
X217917Y425469D02*
X245083D01*
X217917Y393972D02*
X245083D01*
Y425469D01*
X217917Y393972D02*
Y425469D01*
X238335Y438669D02*
Y447331D01*
X242665Y438669D02*
Y447331D01*
X238335Y438669D02*
X242665D01*
X238335Y447331D02*
X242665D01*
X219835Y428169D02*
Y436831D01*
X224165Y428169D02*
Y436831D01*
X219835Y428169D02*
X224165D01*
X219835Y436831D02*
X224165D01*
X263532Y447969D02*
X267469D01*
Y438126D02*
Y447969D01*
X263532Y438126D02*
Y447969D01*
Y438126D02*
X267469D01*
X237138Y427913D02*
X241862D01*
X237138Y436969D02*
X241862D01*
X237138Y427913D02*
Y436969D01*
X241862Y427913D02*
Y436969D01*
X248571Y408780D02*
X282429D01*
X248571Y431220D02*
X282429D01*
Y408780D02*
Y431220D01*
X248571Y408780D02*
Y431220D01*
M02*
