G04*
G04 #@! TF.GenerationSoftware,Altium Limited,Altium Designer,20.1.14 (287)*
G04*
G04 Layer_Physical_Order=4*
G04 Layer_Color=16711680*
%FSLAX25Y25*%
%MOIN*%
G70*
G04*
G04 #@! TF.SameCoordinates,6E086365-E2DE-403D-A888-8F504F8E791D*
G04*
G04*
G04 #@! TF.FilePolarity,Positive*
G04*
G01*
G75*
%ADD42C,0.01000*%
%ADD43R,0.05000X0.12520*%
%ADD44C,0.02800*%
G36*
X298600Y454800D02*
Y386500D01*
X293800Y381700D01*
X251496D01*
X244598Y388598D01*
X244598Y388598D01*
X243896Y389137D01*
X243078Y389476D01*
X242200Y389591D01*
X225209D01*
X221391Y393409D01*
X221391Y454695D01*
X223911Y457215D01*
X226800Y459800D01*
X293600D01*
X298600Y454800D01*
D02*
G37*
%LPC*%
G36*
X263000Y440647D02*
X262064Y440461D01*
X261270Y439930D01*
X260739Y439136D01*
X260553Y438200D01*
X260739Y437264D01*
X261270Y436470D01*
X262064Y435939D01*
X263000Y435753D01*
X263936Y435939D01*
X264730Y436470D01*
X264793Y436564D01*
X264808Y436576D01*
X264845Y436602D01*
X264880Y436622D01*
X264916Y436638D01*
X264953Y436652D01*
X264993Y436663D01*
X265031Y436671D01*
X265866D01*
X272771Y429767D01*
Y418300D01*
X272887Y417715D01*
X273219Y417219D01*
X273883Y416555D01*
X273904Y416523D01*
X273925Y416486D01*
X273941Y416451D01*
X273955Y416414D01*
X273965Y416374D01*
X273973Y416330D01*
X273975Y416312D01*
X273953Y416200D01*
X274139Y415264D01*
X274670Y414470D01*
X275464Y413939D01*
X276400Y413753D01*
X277336Y413939D01*
X278130Y414470D01*
X278661Y415264D01*
X278847Y416200D01*
X278661Y417136D01*
X278130Y417930D01*
X277336Y418461D01*
X276400Y418647D01*
X276288Y418625D01*
X276270Y418627D01*
X276226Y418635D01*
X276186Y418645D01*
X276150Y418659D01*
X276114Y418675D01*
X276078Y418696D01*
X276045Y418717D01*
X275829Y418933D01*
Y430400D01*
X275713Y430985D01*
X275381Y431481D01*
X267581Y439281D01*
X267085Y439613D01*
X266500Y439729D01*
X265031D01*
X264993Y439737D01*
X264953Y439748D01*
X264916Y439761D01*
X264880Y439778D01*
X264845Y439798D01*
X264808Y439824D01*
X264793Y439836D01*
X264730Y439930D01*
X263936Y440461D01*
X263000Y440647D01*
D02*
G37*
G36*
X264100Y403129D02*
X261100D01*
Y396369D01*
X264100D01*
Y403129D01*
D02*
G37*
G36*
X260100D02*
X257100D01*
Y396369D01*
X260100D01*
Y403129D01*
D02*
G37*
G36*
X294100D02*
X287100D01*
Y388609D01*
X294100D01*
Y403129D01*
D02*
G37*
G36*
X284100D02*
X277100D01*
Y388609D01*
X284100D01*
Y403129D01*
D02*
G37*
G36*
X274100D02*
X267100D01*
Y388609D01*
X274100D01*
Y403129D01*
D02*
G37*
G36*
X264100Y395369D02*
X261100D01*
Y388609D01*
X264100D01*
Y395369D01*
D02*
G37*
G36*
X260100D02*
X257100D01*
Y388609D01*
X260100D01*
Y395369D01*
D02*
G37*
%LPD*%
G36*
X264096Y439089D02*
X264196Y439007D01*
X264301Y438935D01*
X264409Y438873D01*
X264522Y438820D01*
X264639Y438777D01*
X264760Y438743D01*
X264885Y438719D01*
X265014Y438705D01*
X265148Y438700D01*
Y437700D01*
X265014Y437695D01*
X264885Y437681D01*
X264760Y437657D01*
X264639Y437623D01*
X264522Y437580D01*
X264409Y437527D01*
X264301Y437465D01*
X264196Y437393D01*
X264096Y437311D01*
X264000Y437220D01*
Y439180D01*
X264096Y439089D01*
D02*
G37*
G36*
X275333Y417981D02*
X275434Y417900D01*
X275540Y417829D01*
X275649Y417767D01*
X275762Y417715D01*
X275879Y417672D01*
X276000Y417640D01*
X276125Y417617D01*
X276254Y417603D01*
X276386Y417600D01*
X275000Y416214D01*
X274997Y416347D01*
X274983Y416475D01*
X274960Y416600D01*
X274928Y416721D01*
X274885Y416838D01*
X274833Y416951D01*
X274771Y417060D01*
X274700Y417166D01*
X274619Y417267D01*
X274528Y417365D01*
X275235Y418072D01*
X275333Y417981D01*
D02*
G37*
D42*
X266500Y438200D02*
X274300Y430400D01*
Y418300D02*
X276400Y416200D01*
X274300Y418300D02*
Y430400D01*
X263000Y438200D02*
X266500D01*
D43*
X290600Y395869D02*
D03*
X280600D02*
D03*
X270600D02*
D03*
X260600D02*
D03*
D44*
X263000Y438200D02*
D03*
X276400Y416200D02*
D03*
X260600Y395869D02*
D03*
M02*
