G04*
G04 #@! TF.GenerationSoftware,Altium Limited,Altium Designer,20.1.14 (287)*
G04*
G04 Layer_Physical_Order=4*
G04 Layer_Color=16711680*
%FSLAX25Y25*%
%MOIN*%
G70*
G04*
G04 #@! TF.SameCoordinates,25341EFE-2045-4F96-BCC5-9C0D11CA6E78*
G04*
G04*
G04 #@! TF.FilePolarity,Positive*
G04*
G01*
G75*
%ADD42C,0.01000*%
%ADD43R,0.05000X0.12520*%
%ADD44C,0.02800*%
G36*
X294295Y459809D02*
X299009Y455095D01*
X299009Y374105D01*
X295795Y370891D01*
X254805D01*
X252791Y372905D01*
X252791Y381500D01*
X252676Y382378D01*
X252337Y383196D01*
X251798Y383898D01*
X247098Y388598D01*
X246396Y389137D01*
X245578Y389476D01*
X244700Y389591D01*
X224705D01*
X221391Y392905D01*
X221391Y453595D01*
X227605Y459809D01*
X294295Y459809D01*
D02*
G37*
%LPC*%
G36*
X262501Y459129D02*
X252244D01*
X251659Y459013D01*
X251163Y458681D01*
X250719Y458238D01*
X249936Y458761D01*
X249000Y458947D01*
X248064Y458761D01*
X247270Y458230D01*
X246739Y457436D01*
X246553Y456500D01*
X246739Y455564D01*
X247270Y454770D01*
X248064Y454239D01*
X249000Y454053D01*
X249936Y454239D01*
X250730Y454770D01*
X250845Y454942D01*
X250854Y454948D01*
X250871Y454953D01*
X250914Y454963D01*
X250968Y454971D01*
X251144D01*
X251729Y455087D01*
X252226Y455419D01*
X252878Y456071D01*
X261868D01*
X265749Y452189D01*
Y444522D01*
X265865Y443936D01*
X266197Y443440D01*
X270000Y439637D01*
X269953Y439400D01*
X269975Y439288D01*
X265243Y434556D01*
X263147D01*
X263030Y434730D01*
X262236Y435261D01*
X261300Y435447D01*
X260364Y435261D01*
X259570Y434730D01*
X259039Y433936D01*
X258853Y433000D01*
X259039Y432064D01*
X259570Y431270D01*
X260364Y430739D01*
X261300Y430553D01*
X261784Y430649D01*
X262171Y430332D01*
Y413300D01*
X262287Y412715D01*
X262619Y412219D01*
X269071Y405766D01*
Y403129D01*
X267100D01*
Y388609D01*
X274100D01*
Y403129D01*
X272129D01*
Y406400D01*
X272013Y406985D01*
X271681Y407481D01*
X265229Y413934D01*
Y430217D01*
X266958Y431945D01*
X272038Y437025D01*
X272400Y436953D01*
X273336Y437139D01*
X274130Y437670D01*
X274661Y438464D01*
X274847Y439400D01*
X274661Y440336D01*
X274130Y441130D01*
X273336Y441661D01*
X272400Y441847D01*
X272163Y441800D01*
X268808Y445155D01*
Y452823D01*
X268691Y453408D01*
X268360Y453904D01*
X263583Y458681D01*
X263087Y459013D01*
X262501Y459129D01*
D02*
G37*
G36*
X288200Y456647D02*
X287264Y456461D01*
X286470Y455930D01*
X286335Y455729D01*
X281000D01*
X280415Y455613D01*
X279919Y455281D01*
X275819Y451181D01*
X275487Y450685D01*
X275371Y450100D01*
Y437561D01*
X267419Y429609D01*
X267087Y429113D01*
X266971Y428528D01*
Y426664D01*
X266770Y426530D01*
X266239Y425736D01*
X266053Y424800D01*
X266239Y423864D01*
X266770Y423070D01*
X267564Y422539D01*
X268500Y422353D01*
X269436Y422539D01*
X270230Y423070D01*
X270761Y423864D01*
X270947Y424800D01*
X270761Y425736D01*
X270230Y426530D01*
X270029Y426664D01*
Y427894D01*
X277981Y435846D01*
X278313Y436342D01*
X278429Y436928D01*
Y449467D01*
X281633Y452671D01*
X286335D01*
X286470Y452470D01*
X287264Y451939D01*
X288200Y451753D01*
X289136Y451939D01*
X289930Y452470D01*
X290461Y453264D01*
X290647Y454200D01*
X290461Y455136D01*
X289930Y455930D01*
X289136Y456461D01*
X288200Y456647D01*
D02*
G37*
G36*
X236732Y451648D02*
Y449800D01*
X238580D01*
X238493Y450236D01*
X237963Y451030D01*
X237169Y451561D01*
X236732Y451648D01*
D02*
G37*
G36*
X235732D02*
X235296Y451561D01*
X234502Y451030D01*
X233972Y450236D01*
X233885Y449800D01*
X235732D01*
Y451648D01*
D02*
G37*
G36*
X238580Y448800D02*
X236732D01*
Y446952D01*
X237169Y447039D01*
X237963Y447570D01*
X238493Y448364D01*
X238580Y448800D01*
D02*
G37*
G36*
X235732D02*
X233885D01*
X233972Y448364D01*
X234502Y447570D01*
X235296Y447039D01*
X235732Y446952D01*
Y448800D01*
D02*
G37*
G36*
X227300Y452747D02*
X226364Y452561D01*
X225570Y452030D01*
X225039Y451236D01*
X224853Y450300D01*
X225039Y449364D01*
X225570Y448570D01*
X226364Y448039D01*
X226827Y447947D01*
X226916Y447814D01*
X235811Y438919D01*
X236308Y438587D01*
X236893Y438471D01*
X262436D01*
X262570Y438270D01*
X263364Y437739D01*
X264300Y437553D01*
X265236Y437739D01*
X266030Y438270D01*
X266561Y439064D01*
X266747Y440000D01*
X266561Y440936D01*
X266030Y441730D01*
X265236Y442261D01*
X264300Y442447D01*
X263364Y442261D01*
X262570Y441730D01*
X262436Y441529D01*
X237526D01*
X229583Y449473D01*
X229747Y450300D01*
X229561Y451236D01*
X229030Y452030D01*
X228236Y452561D01*
X227300Y452747D01*
D02*
G37*
G36*
X264100Y403129D02*
X261100D01*
Y396369D01*
X264100D01*
Y403129D01*
D02*
G37*
G36*
X260100D02*
X257100D01*
Y396369D01*
X260100D01*
Y403129D01*
D02*
G37*
G36*
X294100D02*
X287100D01*
Y388609D01*
X294100D01*
Y403129D01*
D02*
G37*
G36*
X284100D02*
X277100D01*
Y388609D01*
X284100D01*
Y403129D01*
D02*
G37*
G36*
X264100Y395369D02*
X261100D01*
Y388609D01*
X264100D01*
Y395369D01*
D02*
G37*
G36*
X260100D02*
X257100D01*
Y388609D01*
X260100D01*
Y395369D01*
D02*
G37*
%LPD*%
G36*
X250161Y457298D02*
X250233Y457236D01*
X250315Y457180D01*
X250405Y457132D01*
X250505Y457092D01*
X250615Y457059D01*
X250733Y457033D01*
X250861Y457015D01*
X250998Y457004D01*
X251144Y457000D01*
Y456000D01*
X250998Y455996D01*
X250861Y455985D01*
X250733Y455967D01*
X250615Y455941D01*
X250505Y455908D01*
X250405Y455867D01*
X250315Y455820D01*
X250233Y455764D01*
X250161Y455702D01*
X250098Y455632D01*
Y457368D01*
X250161Y457298D01*
D02*
G37*
G36*
X271105Y402927D02*
X271120Y402757D01*
X271145Y402607D01*
X271180Y402477D01*
X271225Y402367D01*
X271280Y402277D01*
X271345Y402207D01*
X271420Y402157D01*
X271505Y402127D01*
X271600Y402117D01*
X269600D01*
X269695Y402127D01*
X269780Y402157D01*
X269855Y402207D01*
X269920Y402277D01*
X269975Y402367D01*
X270020Y402477D01*
X270055Y402607D01*
X270080Y402757D01*
X270095Y402927D01*
X270100Y403117D01*
X271100D01*
X271105Y402927D01*
D02*
G37*
G36*
X271105Y397883D02*
X271119Y397754D01*
X271143Y397629D01*
X271177Y397508D01*
X271220Y397391D01*
X271273Y397278D01*
X271335Y397169D01*
X271407Y397065D01*
X271489Y396965D01*
X271580Y396869D01*
X269620D01*
X269711Y396965D01*
X269793Y397065D01*
X269865Y397169D01*
X269927Y397278D01*
X269980Y397391D01*
X270023Y397508D01*
X270057Y397629D01*
X270081Y397754D01*
X270095Y397883D01*
X270100Y398017D01*
X271100D01*
X271105Y397883D01*
D02*
G37*
D42*
X263700Y413300D02*
X270600Y406400D01*
X263700Y430850D02*
X265877Y433027D01*
X263700Y413300D02*
Y430850D01*
X276900Y436928D02*
Y450100D01*
X281000Y454200D02*
X288200D01*
X276900Y450100D02*
X281000Y454200D01*
X268500Y428528D02*
X276900Y436928D01*
X268500Y424800D02*
Y428528D01*
X236893Y440000D02*
X264300D01*
X227300Y449813D02*
Y450300D01*
Y449813D02*
X227997Y449116D01*
Y448896D02*
Y449116D01*
Y448896D02*
X236893Y440000D01*
X252244Y457600D02*
X262501D01*
X251144Y456500D02*
X252244Y457600D01*
X249000Y456500D02*
X251144D01*
X265877Y433027D02*
X272250Y439400D01*
X261300Y433000D02*
X261327Y433027D01*
X265877D01*
X272250Y439400D02*
X272400D01*
X270600Y395869D02*
Y406400D01*
X262501Y457600D02*
X267278Y452823D01*
Y444522D02*
X272400Y439400D01*
X267278Y444522D02*
Y452823D01*
D43*
X280600Y395869D02*
D03*
X290600D02*
D03*
X270600D02*
D03*
X260600D02*
D03*
D44*
X236232Y449300D02*
D03*
X227300Y450300D02*
D03*
X264300Y440000D02*
D03*
X261300Y433000D02*
D03*
X268500Y424800D02*
D03*
X270600Y395869D02*
D03*
X280600D02*
D03*
X288200Y454200D02*
D03*
X272400Y439400D02*
D03*
X249000Y456500D02*
D03*
M02*
