G04*
G04 #@! TF.GenerationSoftware,Altium Limited,Altium Designer,20.2.3 (150)*
G04*
G04 Layer_Physical_Order=4*
G04 Layer_Color=16711680*
%FSLAX25Y25*%
%MOIN*%
G70*
G04*
G04 #@! TF.SameCoordinates,E3536D8E-EA57-4637-94A7-A09A4E1BA4FE*
G04*
G04*
G04 #@! TF.FilePolarity,Positive*
G04*
G01*
G75*
%ADD47C,0.03400*%
%ADD48C,0.03500*%
G36*
X298209Y454595D02*
Y373105D01*
X294681Y369577D01*
X254419D01*
X252791Y371205D01*
Y377600D01*
X252676Y378478D01*
X252535Y378817D01*
X252337Y379296D01*
X251798Y379998D01*
X242898Y388898D01*
X242196Y389437D01*
X241717Y389635D01*
X241378Y389776D01*
X240500Y389891D01*
X226205D01*
X222591Y393505D01*
Y453095D01*
X228605Y459109D01*
X293695D01*
X298209Y454595D01*
D02*
G37*
%LPC*%
G36*
X275000Y448723D02*
X274295Y448631D01*
X273638Y448358D01*
X273074Y447926D01*
X272642Y447362D01*
X272370Y446705D01*
X272277Y446000D01*
X272370Y445295D01*
X272642Y444638D01*
X273074Y444074D01*
X273638Y443642D01*
X274295Y443369D01*
X275000Y443277D01*
X275705Y443369D01*
X276362Y443642D01*
X276926Y444074D01*
X277358Y444638D01*
X277630Y445295D01*
X277723Y446000D01*
X277630Y446705D01*
X277358Y447362D01*
X276926Y447926D01*
X276362Y448358D01*
X275705Y448631D01*
X275000Y448723D01*
D02*
G37*
G36*
X247500Y443774D02*
X246782Y443679D01*
X246113Y443402D01*
X245539Y442961D01*
X245098Y442387D01*
X244821Y441718D01*
X244726Y441000D01*
X244821Y440282D01*
X245098Y439613D01*
X245539Y439039D01*
X246113Y438598D01*
X246782Y438321D01*
X247500Y438226D01*
X248218Y438321D01*
X248887Y438598D01*
X249461Y439039D01*
X249902Y439613D01*
X250179Y440282D01*
X250274Y441000D01*
X250179Y441718D01*
X249902Y442387D01*
X249461Y442961D01*
X248887Y443402D01*
X248218Y443679D01*
X247500Y443774D01*
D02*
G37*
G36*
X241000D02*
X240282Y443679D01*
X239613Y443402D01*
X239039Y442961D01*
X238598Y442387D01*
X238321Y441718D01*
X238226Y441000D01*
X238321Y440282D01*
X238598Y439613D01*
X239039Y439039D01*
X239613Y438598D01*
X240282Y438321D01*
X241000Y438226D01*
X241718Y438321D01*
X242387Y438598D01*
X242961Y439039D01*
X243402Y439613D01*
X243679Y440282D01*
X243774Y441000D01*
X243679Y441718D01*
X243402Y442387D01*
X242961Y442961D01*
X242387Y443402D01*
X241718Y443679D01*
X241000Y443774D01*
D02*
G37*
G36*
X234000D02*
X233282Y443679D01*
X232613Y443402D01*
X232039Y442961D01*
X231598Y442387D01*
X231321Y441718D01*
X231226Y441000D01*
X231321Y440282D01*
X231598Y439613D01*
X232039Y439039D01*
X232613Y438598D01*
X233282Y438321D01*
X234000Y438226D01*
X234718Y438321D01*
X235387Y438598D01*
X235961Y439039D01*
X236402Y439613D01*
X236679Y440282D01*
X236774Y441000D01*
X236679Y441718D01*
X236402Y442387D01*
X235961Y442961D01*
X235387Y443402D01*
X234718Y443679D01*
X234000Y443774D01*
D02*
G37*
G36*
X227000D02*
X226282Y443679D01*
X225613Y443402D01*
X225039Y442961D01*
X224598Y442387D01*
X224321Y441718D01*
X224226Y441000D01*
X224321Y440282D01*
X224598Y439613D01*
X225039Y439039D01*
X225613Y438598D01*
X226282Y438321D01*
X227000Y438226D01*
X227718Y438321D01*
X228387Y438598D01*
X228961Y439039D01*
X229402Y439613D01*
X229679Y440282D01*
X229774Y441000D01*
X229679Y441718D01*
X229402Y442387D01*
X228961Y442961D01*
X228387Y443402D01*
X227718Y443679D01*
X227000Y443774D01*
D02*
G37*
G36*
X258500Y432723D02*
X257795Y432630D01*
X257138Y432358D01*
X256574Y431926D01*
X256142Y431362D01*
X255870Y430705D01*
X255777Y430000D01*
X255870Y429295D01*
X256142Y428638D01*
X256574Y428074D01*
X257138Y427642D01*
X257795Y427369D01*
X258500Y427277D01*
X259205Y427369D01*
X259862Y427642D01*
X260426Y428074D01*
X260858Y428638D01*
X261130Y429295D01*
X261223Y430000D01*
X261130Y430705D01*
X260858Y431362D01*
X260426Y431926D01*
X259862Y432358D01*
X259205Y432630D01*
X258500Y432723D01*
D02*
G37*
G36*
X267500Y427723D02*
X266795Y427631D01*
X266138Y427358D01*
X265574Y426926D01*
X265142Y426362D01*
X264869Y425705D01*
X264777Y425000D01*
X264869Y424295D01*
X265142Y423638D01*
X265574Y423074D01*
X266138Y422642D01*
X266795Y422369D01*
X267500Y422277D01*
X268205Y422369D01*
X268862Y422642D01*
X269426Y423074D01*
X269858Y423638D01*
X270130Y424295D01*
X270223Y425000D01*
X270130Y425705D01*
X269858Y426362D01*
X269426Y426926D01*
X268862Y427358D01*
X268205Y427631D01*
X267500Y427723D01*
D02*
G37*
G36*
X252500Y413774D02*
X251782Y413679D01*
X251113Y413402D01*
X250539Y412961D01*
X250098Y412387D01*
X249821Y411718D01*
X249726Y411000D01*
X249821Y410282D01*
X250098Y409613D01*
X250539Y409039D01*
X251113Y408598D01*
X251782Y408321D01*
X252500Y408226D01*
X253218Y408321D01*
X253887Y408598D01*
X254461Y409039D01*
X254902Y409613D01*
X255179Y410282D01*
X255274Y411000D01*
X255179Y411718D01*
X254902Y412387D01*
X254461Y412961D01*
X253887Y413402D01*
X253218Y413679D01*
X252500Y413774D01*
D02*
G37*
G36*
X290500Y407574D02*
X289782Y407479D01*
X289113Y407202D01*
X288539Y406761D01*
X288098Y406187D01*
X287821Y405518D01*
X287726Y404800D01*
X287821Y404082D01*
X288098Y403413D01*
X288539Y402839D01*
X289113Y402398D01*
X289782Y402121D01*
X290500Y402026D01*
X291218Y402121D01*
X291887Y402398D01*
X292461Y402839D01*
X292902Y403413D01*
X293179Y404082D01*
X293274Y404800D01*
X293179Y405518D01*
X292902Y406187D01*
X292461Y406761D01*
X291887Y407202D01*
X291218Y407479D01*
X290500Y407574D01*
D02*
G37*
G36*
X252500Y407274D02*
X251782Y407179D01*
X251113Y406902D01*
X250539Y406461D01*
X250098Y405887D01*
X249821Y405218D01*
X249726Y404500D01*
X249821Y403782D01*
X250098Y403113D01*
X250539Y402539D01*
X251113Y402098D01*
X251782Y401821D01*
X252500Y401726D01*
X253218Y401821D01*
X253887Y402098D01*
X254461Y402539D01*
X254902Y403113D01*
X255179Y403782D01*
X255274Y404500D01*
X255179Y405218D01*
X254902Y405887D01*
X254461Y406461D01*
X253887Y406902D01*
X253218Y407179D01*
X252500Y407274D01*
D02*
G37*
G36*
X290600Y389674D02*
X289882Y389579D01*
X289213Y389302D01*
X288639Y388861D01*
X288198Y388287D01*
X287921Y387618D01*
X287826Y386900D01*
X287921Y386182D01*
X288198Y385513D01*
X288639Y384939D01*
X289213Y384498D01*
X289882Y384221D01*
X290600Y384126D01*
X291318Y384221D01*
X291987Y384498D01*
X292561Y384939D01*
X293002Y385513D01*
X293279Y386182D01*
X293374Y386900D01*
X293279Y387618D01*
X293002Y388287D01*
X292561Y388861D01*
X291987Y389302D01*
X291318Y389579D01*
X290600Y389674D01*
D02*
G37*
%LPD*%
D47*
X258500Y430000D02*
D03*
X278000Y415500D02*
D03*
X267500Y425000D02*
D03*
X275000Y446000D02*
D03*
X258500Y448000D02*
D03*
D48*
X230500Y394500D02*
D03*
X260600Y404400D02*
D03*
X290600Y386900D02*
D03*
X260500Y387000D02*
D03*
X290500Y404800D02*
D03*
X247500Y441000D02*
D03*
X252500Y411000D02*
D03*
Y404500D02*
D03*
X227500Y401500D02*
D03*
X234000Y441000D02*
D03*
X227000D02*
D03*
X241000D02*
D03*
M02*
