G04*
G04 #@! TF.GenerationSoftware,Altium Limited,Altium Designer,20.2.3 (150)*
G04*
G04 Layer_Color=65535*
%FSLAX25Y25*%
%MOIN*%
G70*
G04*
G04 #@! TF.SameCoordinates,E3536D8E-EA57-4637-94A7-A09A4E1BA4FE*
G04*
G04*
G04 #@! TF.FilePolarity,Positive*
G04*
G01*
G75*
%ADD10C,0.00984*%
%ADD11C,0.00787*%
%ADD12C,0.01575*%
%ADD13C,0.00500*%
%ADD14C,0.00600*%
D10*
X288039Y421063D02*
X287301Y421489D01*
Y420637D01*
X288039Y421063D01*
X291092Y404293D02*
X290354Y404719D01*
Y403867D01*
X291092Y404293D01*
X224000Y409780D02*
X223262Y410206D01*
Y409353D01*
X224000Y409780D01*
D11*
X272094Y418602D02*
X283906D01*
X272094Y431398D02*
X283906D01*
X250909Y446720D02*
X252091D01*
X250909Y449280D02*
X252091D01*
X246780Y396862D02*
Y398043D01*
X244220Y396862D02*
Y398043D01*
X252280Y396909D02*
Y398091D01*
X249720Y396909D02*
Y398091D01*
X249689Y415094D02*
Y426906D01*
X223311Y415094D02*
Y426906D01*
X249689D01*
X223311Y415094D02*
X249689D01*
X255600Y380081D02*
X295600D01*
X255600Y370081D02*
Y380081D01*
Y370081D02*
X295600D01*
Y380081D01*
D12*
X257150Y451925D02*
Y455075D01*
D13*
X281167Y435500D02*
Y433834D01*
X281500Y433500D01*
X282167D01*
X282500Y433834D01*
Y435500D01*
X283166Y433500D02*
X283833D01*
X283500D01*
Y435500D01*
X283166Y435167D01*
X257500Y417833D02*
X259500D01*
Y416833D01*
X259166Y416500D01*
X258500D01*
X258167Y416833D01*
Y417833D01*
Y417166D02*
X257500Y416500D01*
Y415834D02*
Y415167D01*
Y415500D01*
X259500D01*
X259166Y415834D01*
X244834Y431500D02*
Y429834D01*
X245167Y429500D01*
X245834D01*
X246167Y429834D01*
Y431500D01*
X248166Y429500D02*
X246833D01*
X248166Y430833D01*
Y431167D01*
X247833Y431500D01*
X247166D01*
X246833Y431167D01*
X250667Y392667D02*
X250334Y393000D01*
X249667D01*
X249334Y392667D01*
Y391334D01*
X249667Y391000D01*
X250334D01*
X250667Y391334D01*
X252333Y391000D02*
Y393000D01*
X251333Y392000D01*
X252666D01*
X268334Y436500D02*
Y438500D01*
X269334D01*
X269667Y438167D01*
Y437500D01*
X269334Y437167D01*
X268334D01*
X269000D02*
X269667Y436500D01*
X271666D02*
X270333D01*
X271666Y437833D01*
Y438167D01*
X271333Y438500D01*
X270667D01*
X270333Y438167D01*
X263000Y445499D02*
Y443833D01*
X263333Y443500D01*
X264000D01*
X264333Y443833D01*
Y445499D01*
X264999Y445166D02*
X265333Y445499D01*
X265999D01*
X266332Y445166D01*
Y444833D01*
X265999Y444500D01*
X265666D01*
X265999D01*
X266332Y444166D01*
Y443833D01*
X265999Y443500D01*
X265333D01*
X264999Y443833D01*
X248334Y456000D02*
Y458000D01*
X249334D01*
X249667Y457666D01*
Y457000D01*
X249334Y456667D01*
X248334D01*
X250334Y458000D02*
Y456000D01*
X251000Y456667D01*
X251666Y456000D01*
Y458000D01*
X252333Y456000D02*
Y458000D01*
X253333D01*
X253666Y457666D01*
Y457000D01*
X253333Y456667D01*
X252333D01*
X252999D02*
X253666Y456000D01*
X251167Y444666D02*
X250834Y445000D01*
X250167D01*
X249834Y444666D01*
Y443334D01*
X250167Y443000D01*
X250834D01*
X251167Y443334D01*
X251833Y444666D02*
X252167Y445000D01*
X252833D01*
X253166Y444666D01*
Y444333D01*
X252833Y444000D01*
X252500D01*
X252833D01*
X253166Y443667D01*
Y443334D01*
X252833Y443000D01*
X252167D01*
X251833Y443334D01*
X236167Y391166D02*
X235834Y391500D01*
X235167D01*
X234834Y391166D01*
Y389834D01*
X235167Y389500D01*
X235834D01*
X236167Y389834D01*
X238166Y389500D02*
X236833D01*
X238166Y390833D01*
Y391166D01*
X237833Y391500D01*
X237167D01*
X236833Y391166D01*
X245500Y392667D02*
X245167Y393000D01*
X244500D01*
X244167Y392667D01*
Y391334D01*
X244500Y391000D01*
X245167D01*
X245500Y391334D01*
X246166Y391000D02*
X246833D01*
X246500D01*
Y393000D01*
X246166Y392667D01*
D14*
X274234Y394933D02*
X273901Y394600D01*
Y393933D01*
X274234Y393600D01*
X274567D01*
X274900Y393933D01*
Y394600D01*
X275234Y394933D01*
X275567D01*
X275900Y394600D01*
Y393933D01*
X275567Y393600D01*
X274234Y396932D02*
X273901Y396599D01*
Y395933D01*
X274234Y395599D01*
X275567D01*
X275900Y395933D01*
Y396599D01*
X275567Y396932D01*
X273901Y397599D02*
X275900D01*
Y398932D01*
X284234Y394433D02*
X283901Y394100D01*
Y393433D01*
X284234Y393100D01*
X284567D01*
X284900Y393433D01*
Y394100D01*
X285234Y394433D01*
X285567D01*
X285900Y394100D01*
Y393433D01*
X285567Y393100D01*
X283901Y395099D02*
X285900D01*
Y396099D01*
X285567Y396432D01*
X284234D01*
X283901Y396099D01*
Y395099D01*
X285900Y397099D02*
X284567D01*
X283901Y397765D01*
X284567Y398432D01*
X285900D01*
X284900D01*
Y397099D01*
X264234Y394933D02*
X263901Y394600D01*
Y393933D01*
X264234Y393600D01*
X265567D01*
X265900Y393933D01*
Y394600D01*
X265567Y394933D01*
X264900D01*
Y394266D01*
X265900Y395599D02*
X263901D01*
X265900Y396932D01*
X263901D01*
Y397599D02*
X265900D01*
Y398598D01*
X265567Y398932D01*
X264234D01*
X263901Y398598D01*
Y397599D01*
X294234Y393100D02*
X293901Y393433D01*
Y394100D01*
X294234Y394433D01*
X294567D01*
X294900Y394100D01*
Y393766D01*
Y394100D01*
X295234Y394433D01*
X295567D01*
X295900Y394100D01*
Y393433D01*
X295567Y393100D01*
X293901Y395099D02*
X295234D01*
X295900Y395766D01*
X295234Y396432D01*
X293901D01*
X294234Y397099D02*
X293901Y397432D01*
Y398098D01*
X294234Y398432D01*
X294567D01*
X294900Y398098D01*
Y397765D01*
Y398098D01*
X295234Y398432D01*
X295567D01*
X295900Y398098D01*
Y397432D01*
X295567Y397099D01*
M02*
