G04*
G04 #@! TF.GenerationSoftware,Altium Limited,Altium Designer,20.1.14 (287)*
G04*
G04 Layer_Color=8421504*
%FSLAX25Y25*%
%MOIN*%
G70*
G04*
G04 #@! TF.SameCoordinates,9836355C-B803-4AE6-937A-367240942F31*
G04*
G04*
G04 #@! TF.FilePolarity,Positive*
G04*
G01*
G75*
%ADD16R,0.04134X0.05906*%
%ADD17R,0.03543X0.08268*%
%ADD18R,0.12598X0.08268*%
%ADD19O,0.05315X0.02362*%
%ADD20R,0.02756X0.03347*%
%ADD21R,0.02953X0.03347*%
%ADD22R,0.02362X0.03150*%
%ADD23R,0.05000X0.12520*%
%ADD24R,0.04331X0.04724*%
%ADD25R,0.03347X0.01772*%
%ADD26R,0.04134X0.05315*%
%ADD27R,0.01772X0.03347*%
%ADD28R,0.02165X0.01575*%
D16*
X274200Y445828D02*
D03*
D17*
X245455Y418620D02*
D03*
X236400D02*
D03*
X227345D02*
D03*
D18*
X236400Y396180D02*
D03*
D19*
X283900Y414700D02*
D03*
Y419700D02*
D03*
Y424700D02*
D03*
Y429700D02*
D03*
X256144Y414700D02*
D03*
Y419700D02*
D03*
Y424700D02*
D03*
Y429700D02*
D03*
D20*
X243500D02*
D03*
X248421D02*
D03*
X244739Y440100D02*
D03*
X249661D02*
D03*
D21*
X263000Y438200D02*
D03*
X257882D02*
D03*
D22*
X240500Y448700D02*
D03*
X234791D02*
D03*
D23*
X260600Y395869D02*
D03*
X270600D02*
D03*
X290600D02*
D03*
X280600D02*
D03*
D24*
X249735Y448900D02*
D03*
X258002D02*
D03*
D25*
X284100Y442847D02*
D03*
Y448753D02*
D03*
D26*
X228800Y430000D02*
D03*
X234706D02*
D03*
D27*
X231194Y440300D02*
D03*
X237100D02*
D03*
D28*
X279023Y448978D02*
D03*
Y445828D02*
D03*
Y442678D02*
D03*
X269377Y448978D02*
D03*
Y445828D02*
D03*
Y442678D02*
D03*
M02*
