G04*
G04 #@! TF.GenerationSoftware,Altium Limited,Altium Designer,20.2.3 (150)*
G04*
G04 Layer_Color=8421504*
%FSLAX25Y25*%
%MOIN*%
G70*
G04*
G04 #@! TF.SameCoordinates,E3536D8E-EA57-4637-94A7-A09A4E1BA4FE*
G04*
G04*
G04 #@! TF.FilePolarity,Positive*
G04*
G01*
G75*
%ADD15R,0.03937X0.03937*%
%ADD16C,0.01595*%
%ADD17R,0.02165X0.01575*%
%ADD18R,0.04134X0.05906*%
%ADD19R,0.05000X0.12520*%
%ADD20R,0.03347X0.02953*%
%ADD21R,0.02362X0.03150*%
%ADD22R,0.01772X0.03347*%
%ADD23R,0.05315X0.04134*%
%ADD24R,0.03543X0.08268*%
%ADD25R,0.12598X0.08268*%
%ADD26R,0.03347X0.01772*%
G36*
X273581Y421814D02*
X273830Y421565D01*
X273965Y421239D01*
Y421063D01*
Y420887D01*
X273830Y420561D01*
X273581Y420312D01*
X273255Y420177D01*
X273079D01*
Y420177D01*
X270618D01*
Y421949D01*
X273255D01*
X273581Y421814D01*
D02*
G37*
G36*
Y425751D02*
X273830Y425502D01*
X273965Y425176D01*
Y425000D01*
Y424824D01*
X273830Y424498D01*
X273581Y424249D01*
X273255Y424114D01*
X270618D01*
Y425886D01*
X273255D01*
X273581Y425751D01*
D02*
G37*
G36*
Y429688D02*
X273830Y429439D01*
X273965Y429113D01*
Y428937D01*
Y428761D01*
X273830Y428435D01*
X273581Y428186D01*
X273255Y428051D01*
X270618D01*
Y429823D01*
X273079Y429823D01*
X273255D01*
X273581Y429688D01*
D02*
G37*
G36*
X285382Y420177D02*
X282921Y420177D01*
X282745D01*
X282419Y420312D01*
X282170Y420561D01*
X282035Y420887D01*
Y421063D01*
Y421239D01*
X282170Y421565D01*
X282419Y421814D01*
X282745Y421949D01*
X285382D01*
Y420177D01*
D02*
G37*
G36*
Y424114D02*
X282745D01*
X282419Y424249D01*
X282170Y424498D01*
X282035Y424824D01*
Y425000D01*
Y425176D01*
X282170Y425502D01*
X282419Y425751D01*
X282745Y425886D01*
X285382D01*
Y424114D01*
D02*
G37*
G36*
X282921Y429823D02*
X285382D01*
Y428051D01*
X282745D01*
X282419Y428186D01*
X282170Y428435D01*
X282035Y428761D01*
Y428937D01*
Y429113D01*
X282170Y429439D01*
X282419Y429688D01*
X282745Y429823D01*
X282921D01*
Y429823D01*
D02*
G37*
D15*
X278000Y422441D02*
D03*
X278000Y427559D02*
D03*
D16*
X272202Y421063D02*
D03*
Y425000D02*
D03*
X272291Y428937D02*
D03*
X283798D02*
D03*
X284496Y425000D02*
D03*
X283709Y421063D02*
D03*
D17*
X264323Y434350D02*
D03*
X254677Y437500D02*
D03*
Y434350D02*
D03*
X264323Y440650D02*
D03*
X254677D02*
D03*
X264323Y437500D02*
D03*
D18*
X259500D02*
D03*
D19*
X290600Y395869D02*
D03*
X260600D02*
D03*
X280600D02*
D03*
X270600D02*
D03*
D20*
X270000Y446059D02*
D03*
Y440941D02*
D03*
X255000Y413941D02*
D03*
Y419059D02*
D03*
D21*
X248291Y453500D02*
D03*
X254000D02*
D03*
D22*
X248547Y448000D02*
D03*
X254453D02*
D03*
D23*
X236500Y400453D02*
D03*
Y394547D02*
D03*
D24*
Y409780D02*
D03*
X227445D02*
D03*
X245555D02*
D03*
D25*
X236500Y432220D02*
D03*
D26*
X251000Y394547D02*
D03*
Y400453D02*
D03*
X245500Y400406D02*
D03*
Y394500D02*
D03*
M02*
