G04*
G04 #@! TF.GenerationSoftware,Altium Limited,Altium Designer,20.1.14 (287)*
G04*
G04 Layer_Color=2752767*
%FSLAX25Y25*%
%MOIN*%
G70*
G04*
G04 #@! TF.SameCoordinates,9836355C-B803-4AE6-937A-367240942F31*
G04*
G04*
G04 #@! TF.FilePolarity,Positive*
G04*
G01*
G75*
%ADD47C,0.00200*%
D47*
X262200Y437400D02*
Y439000D01*
X263800D01*
Y437400D01*
X262200D01*
X275600Y415400D02*
Y417000D01*
X277200D01*
Y415400D01*
X275600D01*
X276300Y438800D02*
Y440400D01*
X277900D01*
Y438800D01*
X276300D01*
X264300Y445800D02*
Y447400D01*
X265900D01*
Y445800D01*
X264300D01*
X229800Y452200D02*
Y453800D01*
X231400D01*
Y452200D01*
X229800D01*
X228000Y429200D02*
Y430800D01*
X229600D01*
Y429200D01*
X228000D01*
X235600Y417821D02*
Y419421D01*
X237200D01*
Y417821D01*
X235600D01*
Y395380D02*
Y396980D01*
X237200D01*
Y395380D01*
X235600D01*
X226545Y417821D02*
Y419421D01*
X228145D01*
Y417821D01*
X226545D01*
X226600Y444500D02*
Y446100D01*
X228200D01*
Y444500D01*
X226600D01*
X242700Y428900D02*
Y430500D01*
X244300D01*
Y428900D01*
X242700D01*
X243939Y439300D02*
Y440900D01*
X245539D01*
Y439300D01*
X243939D01*
X290500Y421200D02*
Y422800D01*
X292100D01*
Y421200D01*
X290500D01*
X289800Y395069D02*
Y396669D01*
X291400D01*
Y395069D01*
X289800D01*
X259800D02*
Y396669D01*
X261400D01*
Y395069D01*
X259800D01*
M02*
