G04*
G04 #@! TF.GenerationSoftware,Altium Limited,Altium Designer,20.1.14 (287)*
G04*
G04 Layer_Color=8421504*
%FSLAX25Y25*%
%MOIN*%
G70*
G04*
G04 #@! TF.SameCoordinates,382E2BFE-DF1F-4DD7-88B8-9F832B5EDFD0*
G04*
G04*
G04 #@! TF.FilePolarity,Positive*
G04*
G01*
G75*
%ADD16R,0.02362X0.03150*%
%ADD17R,0.03347X0.01772*%
%ADD18O,0.05315X0.02362*%
%ADD19R,0.04134X0.05906*%
%ADD20R,0.02165X0.01575*%
%ADD21R,0.02756X0.03347*%
%ADD22R,0.04134X0.05315*%
%ADD23R,0.03543X0.08268*%
%ADD24R,0.12598X0.08268*%
%ADD25R,0.04331X0.04724*%
%ADD26R,0.01772X0.03347*%
%ADD27R,0.02953X0.03347*%
D16*
X234791Y448700D02*
D03*
X240500D02*
D03*
D17*
X284100Y448753D02*
D03*
Y442847D02*
D03*
D18*
X256144Y429700D02*
D03*
Y424700D02*
D03*
Y419700D02*
D03*
Y414700D02*
D03*
X283900Y429700D02*
D03*
Y424700D02*
D03*
Y419700D02*
D03*
Y414700D02*
D03*
D19*
X274200Y445828D02*
D03*
D20*
X269377Y442678D02*
D03*
Y445828D02*
D03*
Y448978D02*
D03*
X279023Y442678D02*
D03*
Y445828D02*
D03*
Y448978D02*
D03*
D21*
X249661Y440100D02*
D03*
X244739D02*
D03*
X248421Y429700D02*
D03*
X243500D02*
D03*
D22*
X228800Y430000D02*
D03*
X234706D02*
D03*
D23*
X245455Y418621D02*
D03*
X236400D02*
D03*
X227345D02*
D03*
D24*
X236400Y396180D02*
D03*
D25*
X249735Y448900D02*
D03*
X258002D02*
D03*
D26*
X237100Y440300D02*
D03*
X231194D02*
D03*
D27*
X263000Y438200D02*
D03*
X257882D02*
D03*
M02*
