G04*
G04 #@! TF.GenerationSoftware,Altium Limited,Altium Designer,20.1.14 (287)*
G04*
G04 Layer_Color=8421504*
%FSLAX25Y25*%
%MOIN*%
G70*
G04*
G04 #@! TF.SameCoordinates,25341EFE-2045-4F96-BCC5-9C0D11CA6E78*
G04*
G04*
G04 #@! TF.FilePolarity,Positive*
G04*
G01*
G75*
%ADD16R,0.03543X0.08268*%
%ADD17R,0.12598X0.08268*%
%ADD18O,0.05315X0.02362*%
%ADD19R,0.02362X0.03150*%
%ADD20R,0.04134X0.05906*%
%ADD21R,0.02165X0.01575*%
%ADD22R,0.04331X0.04724*%
%ADD23R,0.01772X0.03347*%
%ADD24R,0.02756X0.03347*%
%ADD25R,0.05315X0.04134*%
%ADD26R,0.03347X0.01772*%
%ADD27R,0.02953X0.03347*%
D16*
X245455Y418621D02*
D03*
X236400D02*
D03*
X227345D02*
D03*
D17*
X236400Y396180D02*
D03*
D18*
X283900Y414700D02*
D03*
Y419700D02*
D03*
Y424700D02*
D03*
Y429700D02*
D03*
X256144Y414700D02*
D03*
Y419700D02*
D03*
Y424700D02*
D03*
Y429700D02*
D03*
D19*
X228991Y430100D02*
D03*
X234700D02*
D03*
D20*
X281000Y448300D02*
D03*
D21*
X285823Y451450D02*
D03*
Y448300D02*
D03*
Y445150D02*
D03*
X276177Y451450D02*
D03*
Y448300D02*
D03*
Y445150D02*
D03*
D22*
X244500Y449300D02*
D03*
X236232D02*
D03*
D23*
X237100Y440300D02*
D03*
X231194D02*
D03*
D24*
X242939Y430300D02*
D03*
X247861D02*
D03*
X250461Y440200D02*
D03*
X245539D02*
D03*
D25*
X259500Y440247D02*
D03*
Y446153D02*
D03*
D26*
X270400Y445547D02*
D03*
Y451453D02*
D03*
D27*
X280341Y438400D02*
D03*
X285459D02*
D03*
M02*
