G04*
G04 #@! TF.GenerationSoftware,Altium Limited,Altium Designer,20.1.14 (287)*
G04*
G04 Layer_Physical_Order=3*
G04 Layer_Color=6736896*
%FSLAX25Y25*%
%MOIN*%
G70*
G04*
G04 #@! TF.SameCoordinates,25341EFE-2045-4F96-BCC5-9C0D11CA6E78*
G04*
G04*
G04 #@! TF.FilePolarity,Positive*
G04*
G01*
G75*
%ADD44C,0.02800*%
G36*
X294295Y459809D02*
X299009Y455095D01*
X299009Y374105D01*
X295795Y370891D01*
X254805D01*
X252791Y372905D01*
X252791Y381500D01*
X252676Y382378D01*
X252374Y383107D01*
X252337Y383196D01*
D01*
X252337Y383196D01*
X251798Y383898D01*
X247098Y388598D01*
X246396Y389137D01*
X245578Y389476D01*
X244700Y389591D01*
X224705D01*
X221391Y392905D01*
X221391Y453595D01*
X227605Y459809D01*
X294295Y459809D01*
D02*
G37*
%LPC*%
G36*
X262200Y457348D02*
Y455500D01*
X264048D01*
X263961Y455936D01*
X263430Y456730D01*
X262636Y457261D01*
X262200Y457348D01*
D02*
G37*
G36*
X261200D02*
X260764Y457261D01*
X259970Y456730D01*
X259439Y455936D01*
X259352Y455500D01*
X261200D01*
Y457348D01*
D02*
G37*
G36*
X249000Y458947D02*
X248064Y458761D01*
X247270Y458230D01*
X246739Y457436D01*
X246553Y456500D01*
X246739Y455564D01*
X247270Y454770D01*
X248064Y454239D01*
X249000Y454053D01*
X249936Y454239D01*
X250730Y454770D01*
X251261Y455564D01*
X251447Y456500D01*
X251261Y457436D01*
X250730Y458230D01*
X249936Y458761D01*
X249000Y458947D01*
D02*
G37*
G36*
X264048Y454500D02*
X262200D01*
Y452652D01*
X262636Y452739D01*
X263430Y453270D01*
X263961Y454064D01*
X264048Y454500D01*
D02*
G37*
G36*
X261200D02*
X259352D01*
X259439Y454064D01*
X259970Y453270D01*
X260764Y452739D01*
X261200Y452652D01*
Y454500D01*
D02*
G37*
G36*
X288200Y456647D02*
X287264Y456461D01*
X286470Y455930D01*
X285939Y455136D01*
X285753Y454200D01*
X285939Y453264D01*
X286470Y452470D01*
X287264Y451939D01*
X288200Y451753D01*
X289136Y451939D01*
X289930Y452470D01*
X290461Y453264D01*
X290647Y454200D01*
X290461Y455136D01*
X289930Y455930D01*
X289136Y456461D01*
X288200Y456647D01*
D02*
G37*
G36*
X227300Y452747D02*
X226364Y452561D01*
X225570Y452030D01*
X225039Y451236D01*
X224853Y450300D01*
X225039Y449364D01*
X225570Y448570D01*
X226364Y448039D01*
X227300Y447853D01*
X228236Y448039D01*
X229030Y448570D01*
X229561Y449364D01*
X229747Y450300D01*
X229561Y451236D01*
X229030Y452030D01*
X228236Y452561D01*
X227300Y452747D01*
D02*
G37*
G36*
X236232Y451747D02*
X235296Y451561D01*
X234502Y451030D01*
X233972Y450236D01*
X233785Y449300D01*
X233972Y448364D01*
X234502Y447570D01*
X235296Y447039D01*
X236232Y446853D01*
X237169Y447039D01*
X237963Y447570D01*
X238493Y448364D01*
X238679Y449300D01*
X238493Y450236D01*
X237963Y451030D01*
X237169Y451561D01*
X236232Y451747D01*
D02*
G37*
G36*
X264300Y442447D02*
X263364Y442261D01*
X262570Y441730D01*
X262039Y440936D01*
X261853Y440000D01*
X262039Y439064D01*
X262570Y438270D01*
X263364Y437739D01*
X264300Y437553D01*
X265236Y437739D01*
X266030Y438270D01*
X266561Y439064D01*
X266747Y440000D01*
X266561Y440936D01*
X266030Y441730D01*
X265236Y442261D01*
X264300Y442447D01*
D02*
G37*
G36*
X272400Y441847D02*
X271464Y441661D01*
X270670Y441130D01*
X270139Y440336D01*
X269953Y439400D01*
X270139Y438464D01*
X270670Y437670D01*
X271464Y437139D01*
X272400Y436953D01*
X273336Y437139D01*
X274130Y437670D01*
X274661Y438464D01*
X274847Y439400D01*
X274661Y440336D01*
X274130Y441130D01*
X273336Y441661D01*
X272400Y441847D01*
D02*
G37*
G36*
X261300Y435447D02*
X260364Y435261D01*
X259570Y434730D01*
X259039Y433936D01*
X258853Y433000D01*
X259039Y432064D01*
X259570Y431270D01*
X260364Y430739D01*
X261300Y430553D01*
X262236Y430739D01*
X263030Y431270D01*
X263561Y432064D01*
X263747Y433000D01*
X263561Y433936D01*
X263030Y434730D01*
X262236Y435261D01*
X261300Y435447D01*
D02*
G37*
G36*
X268500Y427247D02*
X267564Y427061D01*
X266770Y426530D01*
X266239Y425736D01*
X266053Y424800D01*
X266239Y423864D01*
X266770Y423070D01*
X267564Y422539D01*
X268500Y422353D01*
X269436Y422539D01*
X270230Y423070D01*
X270761Y423864D01*
X270947Y424800D01*
X270761Y425736D01*
X270230Y426530D01*
X269436Y427061D01*
X268500Y427247D01*
D02*
G37*
G36*
X236900Y420968D02*
Y419121D01*
X238748D01*
X238661Y419557D01*
X238130Y420351D01*
X237336Y420881D01*
X236900Y420968D01*
D02*
G37*
G36*
X235900D02*
X235464Y420881D01*
X234670Y420351D01*
X234139Y419557D01*
X234052Y419121D01*
X235900D01*
Y420968D01*
D02*
G37*
G36*
X238748Y418121D02*
X236900D01*
Y416273D01*
X237336Y416360D01*
X238130Y416890D01*
X238661Y417684D01*
X238748Y418121D01*
D02*
G37*
G36*
X235900D02*
X234052D01*
X234139Y417684D01*
X234670Y416890D01*
X235464Y416360D01*
X235900Y416273D01*
Y418121D01*
D02*
G37*
G36*
X236900Y398527D02*
Y396680D01*
X238748D01*
X238661Y397116D01*
X238130Y397910D01*
X237336Y398440D01*
X236900Y398527D01*
D02*
G37*
G36*
X235900D02*
X235464Y398440D01*
X234670Y397910D01*
X234139Y397116D01*
X234052Y396680D01*
X235900D01*
Y398527D01*
D02*
G37*
G36*
X238748Y395680D02*
X236900D01*
Y393832D01*
X237336Y393919D01*
X238130Y394449D01*
X238661Y395243D01*
X238748Y395680D01*
D02*
G37*
G36*
X235900D02*
X234052D01*
X234139Y395243D01*
X234670Y394449D01*
X235464Y393919D01*
X235900Y393832D01*
Y395680D01*
D02*
G37*
G36*
X294100Y403129D02*
X287100D01*
Y388609D01*
X294100D01*
Y403129D01*
D02*
G37*
G36*
X284100D02*
X277100D01*
Y388609D01*
X284100D01*
Y403129D01*
D02*
G37*
G36*
X274100D02*
X267100D01*
Y388609D01*
X274100D01*
Y403129D01*
D02*
G37*
G36*
X264100D02*
X257100D01*
Y388609D01*
X264100D01*
Y403129D01*
D02*
G37*
%LPD*%
D44*
X261700Y455000D02*
D03*
X236400Y418621D02*
D03*
Y396180D02*
D03*
M02*
