G04*
G04 #@! TF.GenerationSoftware,Altium Limited,Altium Designer,20.2.3 (150)*
G04*
G04 Layer_Color=8388736*
%FSLAX25Y25*%
%MOIN*%
G70*
G04*
G04 #@! TF.SameCoordinates,E3536D8E-EA57-4637-94A7-A09A4E1BA4FE*
G04*
G04*
G04 #@! TF.FilePolarity,Negative*
G04*
G01*
G75*
%ADD16C,0.01595*%
%ADD27R,0.06299X0.09843*%
%ADD28R,0.02565X0.01975*%
%ADD29R,0.04534X0.06306*%
%ADD30R,0.05400X0.12920*%
%ADD31R,0.03747X0.03353*%
%ADD32R,0.02762X0.03550*%
%ADD33R,0.02172X0.03747*%
%ADD34R,0.05715X0.04534*%
%ADD35R,0.03943X0.08668*%
%ADD36R,0.12998X0.08668*%
%ADD37R,0.03747X0.02172*%
%ADD38C,0.03800*%
%ADD39C,0.03900*%
G36*
X273581Y421814D02*
X273830Y421565D01*
X273965Y421239D01*
Y421063D01*
Y420887D01*
X273830Y420561D01*
X273581Y420312D01*
X273255Y420177D01*
X273079D01*
Y420177D01*
X270618D01*
Y421949D01*
X273255D01*
X273581Y421814D01*
D02*
G37*
G36*
Y425751D02*
X273830Y425502D01*
X273965Y425176D01*
Y425000D01*
Y424824D01*
X273830Y424498D01*
X273581Y424249D01*
X273255Y424114D01*
X270618D01*
Y425886D01*
X273255D01*
X273581Y425751D01*
D02*
G37*
G36*
Y429688D02*
X273830Y429439D01*
X273965Y429113D01*
Y428937D01*
Y428761D01*
X273830Y428435D01*
X273581Y428186D01*
X273255Y428051D01*
X270618D01*
Y429823D01*
X273079Y429823D01*
X273255D01*
X273581Y429688D01*
D02*
G37*
G36*
X285382Y420177D02*
X282921Y420177D01*
X282745D01*
X282419Y420312D01*
X282170Y420561D01*
X282035Y420887D01*
Y421063D01*
Y421239D01*
X282170Y421565D01*
X282419Y421814D01*
X282745Y421949D01*
X285382D01*
Y420177D01*
D02*
G37*
G36*
Y424114D02*
X282745D01*
X282419Y424249D01*
X282170Y424498D01*
X282035Y424824D01*
Y425000D01*
Y425176D01*
X282170Y425502D01*
X282419Y425751D01*
X282745Y425886D01*
X285382D01*
Y424114D01*
D02*
G37*
G36*
X282921Y429823D02*
X285382D01*
Y428051D01*
X282745D01*
X282419Y428186D01*
X282170Y428435D01*
X282035Y428761D01*
Y428937D01*
Y429113D01*
X282170Y429439D01*
X282419Y429688D01*
X282745Y429823D01*
X282921D01*
Y429823D01*
D02*
G37*
D16*
X272202Y421063D02*
D03*
Y425000D02*
D03*
X272291Y428937D02*
D03*
X283798D02*
D03*
X284496Y425000D02*
D03*
X283709Y421063D02*
D03*
D27*
X278000Y425000D02*
D03*
D28*
X264323Y434350D02*
D03*
X254677Y437500D02*
D03*
Y434350D02*
D03*
X264323Y440650D02*
D03*
X254677D02*
D03*
X264323Y437500D02*
D03*
D29*
X259500D02*
D03*
D30*
X290600Y395869D02*
D03*
X260600D02*
D03*
X280600D02*
D03*
X270600D02*
D03*
D31*
X270000Y446059D02*
D03*
Y440941D02*
D03*
X255000Y413941D02*
D03*
Y419059D02*
D03*
D32*
X248291Y453500D02*
D03*
X254000D02*
D03*
D33*
X248547Y448000D02*
D03*
X254453D02*
D03*
D34*
X236500Y400453D02*
D03*
Y394547D02*
D03*
D35*
Y409780D02*
D03*
X227445D02*
D03*
X245555D02*
D03*
D36*
X236500Y432220D02*
D03*
D37*
X251000Y394547D02*
D03*
Y400453D02*
D03*
X245500Y400406D02*
D03*
Y394500D02*
D03*
D38*
X258500Y430000D02*
D03*
X278000Y415500D02*
D03*
X267500Y425000D02*
D03*
X275000Y446000D02*
D03*
X258500Y448000D02*
D03*
D39*
X230500Y394500D02*
D03*
X260600Y404400D02*
D03*
X290600Y386900D02*
D03*
X260500Y387000D02*
D03*
X290500Y404800D02*
D03*
X247500Y441000D02*
D03*
X252500Y411000D02*
D03*
Y404500D02*
D03*
X227500Y401500D02*
D03*
X234000Y441000D02*
D03*
X227000D02*
D03*
X241000D02*
D03*
M02*
