G04*
G04 #@! TF.GenerationSoftware,Altium Limited,Altium Designer,20.1.14 (287)*
G04*
G04 Layer_Color=65535*
%FSLAX25Y25*%
%MOIN*%
G70*
G04*
G04 #@! TF.SameCoordinates,25341EFE-2045-4F96-BCC5-9C0D11CA6E78*
G04*
G04*
G04 #@! TF.FilePolarity,Positive*
G04*
G01*
G75*
%ADD10C,0.00984*%
%ADD11C,0.02362*%
%ADD12C,0.00787*%
%ADD13C,0.01575*%
%ADD14C,0.00600*%
%ADD15C,0.00500*%
G36*
X277100Y453300D02*
X275100D01*
Y454300D01*
X277100D01*
Y453300D01*
D02*
G37*
D10*
X291092Y404293D02*
G03*
X291092Y404293I-492J0D01*
G01*
X249884Y418620D02*
G03*
X249884Y418620I-492J0D01*
G01*
X256636Y433046D02*
G03*
X256636Y433046I-492J0D01*
G01*
D11*
X265494Y429090D02*
G03*
X265494Y429090I-1181J0D01*
G01*
D12*
X255600Y380081D02*
X295600D01*
X255600Y370081D02*
Y380081D01*
Y370081D02*
X295600D01*
Y380081D01*
X223211Y413306D02*
X249589D01*
X223211Y401495D02*
X249589D01*
Y413306D01*
X223211Y401495D02*
Y413306D01*
X260376Y411373D02*
X279668D01*
X260376Y433027D02*
X279668D01*
Y411373D02*
Y433027D01*
X260376Y411373D02*
Y433027D01*
X239776Y447331D02*
Y451269D01*
Y447331D02*
X240957D01*
X239776Y451269D02*
X240957D01*
X233557Y439020D02*
X234738D01*
X233557Y441580D02*
X234738D01*
X269120Y447909D02*
Y449091D01*
X271680Y447909D02*
Y449091D01*
D13*
X225842Y428525D02*
Y431675D01*
D14*
X290728Y414000D02*
X292061D01*
X292728Y414666D01*
X292061Y415333D01*
X290728D01*
Y416999D02*
Y416333D01*
X291061Y415999D01*
X292394D01*
X292728Y416333D01*
Y416999D01*
X292394Y417332D01*
X291061D01*
X290728Y416999D01*
X291061Y419332D02*
X290728Y418998D01*
Y418332D01*
X291061Y417999D01*
X292394D01*
X292728Y418332D01*
Y418998D01*
X292394Y419332D01*
X293061Y419998D02*
Y421331D01*
X291061Y421997D02*
X290728Y422331D01*
Y422997D01*
X291061Y423330D01*
X292394D01*
X292728Y422997D01*
Y422331D01*
X292394Y421997D01*
X291061D01*
X292728Y423997D02*
Y424663D01*
Y424330D01*
X290728D01*
X291061Y423997D01*
X294901Y414000D02*
X296900D01*
Y415000D01*
X296567Y415333D01*
X296234D01*
X295900Y415000D01*
Y414000D01*
Y415000D01*
X295567Y415333D01*
X295234D01*
X294901Y415000D01*
Y414000D01*
X295567Y415999D02*
X296900D01*
X296234D01*
X295900Y416333D01*
X295567Y416666D01*
Y416999D01*
Y418332D02*
Y418998D01*
X295900Y419332D01*
X296900D01*
Y418332D01*
X296567Y417999D01*
X296234Y418332D01*
Y419332D01*
X294901Y421331D02*
X296900D01*
Y420331D01*
X296567Y419998D01*
X295900D01*
X295567Y420331D01*
Y421331D01*
X294901Y421997D02*
X296900D01*
X296234Y422664D01*
X296900Y423330D01*
X294901D01*
X296900Y423997D02*
Y424663D01*
Y424330D01*
X295567D01*
Y423997D01*
X296900Y425663D02*
Y426329D01*
Y425996D01*
X294901D01*
Y425663D01*
X296900Y427329D02*
Y427995D01*
Y427662D01*
X294901D01*
Y427329D01*
X296900Y428995D02*
Y429662D01*
Y429328D01*
X295567D01*
Y428995D01*
Y430995D02*
Y431661D01*
X295900Y431994D01*
X296900D01*
Y430995D01*
X296567Y430661D01*
X296234Y430995D01*
Y431994D01*
X296900Y432661D02*
X295567D01*
Y432994D01*
X295900Y433327D01*
X296900D01*
X295900D01*
X295567Y433660D01*
X295900Y433993D01*
X296900D01*
Y434660D02*
Y435660D01*
X296567Y435993D01*
X296234Y435660D01*
Y434993D01*
X295900Y434660D01*
X295567Y434993D01*
Y435993D01*
X279533Y406666D02*
X279200Y406999D01*
X278533D01*
X278200Y406666D01*
Y406333D01*
X278533Y406000D01*
X279200D01*
X279533Y405666D01*
Y405333D01*
X279200Y405000D01*
X278533D01*
X278200Y405333D01*
X281532Y406666D02*
X281199Y406999D01*
X280533D01*
X280199Y406666D01*
Y405333D01*
X280533Y405000D01*
X281199D01*
X281532Y405333D01*
X282199Y406999D02*
Y405000D01*
X283532D01*
X269333Y406466D02*
X269000Y406799D01*
X268333D01*
X268000Y406466D01*
Y406133D01*
X268333Y405800D01*
X269000D01*
X269333Y405466D01*
Y405133D01*
X269000Y404800D01*
X268333D01*
X268000Y405133D01*
X269999Y406799D02*
Y404800D01*
X270999D01*
X271332Y405133D01*
Y406466D01*
X270999Y406799D01*
X269999D01*
X271999Y404800D02*
Y406133D01*
X272665Y406799D01*
X273332Y406133D01*
Y404800D01*
Y405800D01*
X271999D01*
X259133Y406566D02*
X258800Y406899D01*
X258133D01*
X257800Y406566D01*
Y405233D01*
X258133Y404900D01*
X258800D01*
X259133Y405233D01*
Y405900D01*
X258466D01*
X259799Y404900D02*
Y406899D01*
X261132Y404900D01*
Y406899D01*
X261799D02*
Y404900D01*
X262798D01*
X263132Y405233D01*
Y406566D01*
X262798Y406899D01*
X261799D01*
X287900Y408266D02*
X288233Y408599D01*
X288900D01*
X289233Y408266D01*
Y407933D01*
X288900Y407600D01*
X288566D01*
X288900D01*
X289233Y407266D01*
Y406933D01*
X288900Y406600D01*
X288233D01*
X287900Y406933D01*
X289899Y408599D02*
Y407266D01*
X290566Y406600D01*
X291232Y407266D01*
Y408599D01*
X291899Y408266D02*
X292232Y408599D01*
X292898D01*
X293232Y408266D01*
Y407933D01*
X292898Y407600D01*
X292565D01*
X292898D01*
X293232Y407266D01*
Y406933D01*
X292898Y406600D01*
X292232D01*
X291899Y406933D01*
D15*
X244234Y395200D02*
Y393534D01*
X244567Y393200D01*
X245234D01*
X245567Y393534D01*
Y395200D01*
X247566Y393200D02*
X246233D01*
X247566Y394533D01*
Y394866D01*
X247233Y395200D01*
X246567D01*
X246233Y394866D01*
X243000Y438634D02*
X241000D01*
Y439634D01*
X241334Y439967D01*
X242000D01*
X242333Y439634D01*
Y438634D01*
Y439300D02*
X243000Y439967D01*
X241334Y440633D02*
X241000Y440967D01*
Y441633D01*
X241334Y441966D01*
X241667D01*
X242000Y441633D01*
Y441300D01*
Y441633D01*
X242333Y441966D01*
X242666D01*
X243000Y441633D01*
Y440967D01*
X242666Y440633D01*
X240600Y428734D02*
X238600D01*
Y429734D01*
X238933Y430067D01*
X239600D01*
X239933Y429734D01*
Y428734D01*
Y429400D02*
X240600Y430067D01*
Y432066D02*
Y430733D01*
X239267Y432066D01*
X238933D01*
X238600Y431733D01*
Y431067D01*
X238933Y430733D01*
X279500Y455399D02*
Y453733D01*
X279833Y453400D01*
X280500D01*
X280833Y453733D01*
Y455399D01*
X281499Y455066D02*
X281833Y455399D01*
X282499D01*
X282832Y455066D01*
Y454733D01*
X282499Y454400D01*
X282166D01*
X282499D01*
X282832Y454066D01*
Y453733D01*
X282499Y453400D01*
X281833D01*
X281499Y453733D01*
X236501Y455300D02*
Y453300D01*
X237500D01*
X237834Y453634D01*
Y454966D01*
X237500Y455300D01*
X236501D01*
X238500Y453300D02*
Y454633D01*
X239166Y455300D01*
X239833Y454633D01*
Y453300D01*
Y454300D01*
X238500D01*
X240499Y455300D02*
X241832D01*
X241166D01*
Y453300D01*
X242499D02*
Y454633D01*
X243165Y455300D01*
X243832Y454633D01*
Y453300D01*
Y454300D01*
X242499D01*
X229080Y432600D02*
Y434600D01*
X230080D01*
X230413Y434267D01*
Y433600D01*
X230080Y433267D01*
X229080D01*
X231079Y434600D02*
Y432600D01*
X231746Y433267D01*
X232412Y432600D01*
Y434600D01*
X233079Y432600D02*
Y434600D01*
X234078D01*
X234411Y434267D01*
Y433600D01*
X234078Y433267D01*
X233079D01*
X233745D02*
X234411Y432600D01*
X269689Y436700D02*
Y435034D01*
X270022Y434700D01*
X270689D01*
X271022Y435034D01*
Y436700D01*
X271689Y434700D02*
X272355D01*
X272022D01*
Y436700D01*
X271689Y436367D01*
X281567Y441100D02*
Y443100D01*
X282567D01*
X282900Y442767D01*
Y442100D01*
X282567Y441767D01*
X281567D01*
X282234D02*
X282900Y441100D01*
X283566D02*
X284233D01*
X283900D01*
Y443100D01*
X283566Y442767D01*
X270067Y455666D02*
X269734Y456000D01*
X269067D01*
X268734Y455666D01*
Y454334D01*
X269067Y454000D01*
X269734D01*
X270067Y454334D01*
X270733Y455666D02*
X271066Y456000D01*
X271733D01*
X272066Y455666D01*
Y455333D01*
X271733Y455000D01*
X271400D01*
X271733D01*
X272066Y454667D01*
Y454334D01*
X271733Y454000D01*
X271066D01*
X270733Y454334D01*
X258967Y450719D02*
X258634Y451052D01*
X257967D01*
X257634Y450719D01*
Y449386D01*
X257967Y449053D01*
X258634D01*
X258967Y449386D01*
X260966Y449053D02*
X259633D01*
X260966Y450386D01*
Y450719D01*
X260633Y451052D01*
X259966D01*
X259633Y450719D01*
X227381Y440400D02*
X227047Y440067D01*
Y439400D01*
X227381Y439067D01*
X228714D01*
X229047Y439400D01*
Y440067D01*
X228714Y440400D01*
X229047Y441067D02*
Y441733D01*
Y441400D01*
X227047D01*
X227381Y441067D01*
M02*
