G04*
G04 #@! TF.GenerationSoftware,Altium Limited,Altium Designer,20.2.3 (150)*
G04*
G04 Layer_Physical_Order=3*
G04 Layer_Color=128*
%FSLAX25Y25*%
%MOIN*%
G70*
G04*
G04 #@! TF.SameCoordinates,E3536D8E-EA57-4637-94A7-A09A4E1BA4FE*
G04*
G04*
G04 #@! TF.FilePolarity,Negative*
G04*
G01*
G75*
%ADD49C,0.04000*%
%ADD50C,0.05500*%
%ADD51C,0.01200*%
D49*
X301600Y455800D02*
X301600Y371900D01*
X294900Y462500D02*
X301600Y455800D01*
X227200Y462500D02*
X294900Y462500D01*
X219200Y454500D02*
X227200Y462500D01*
X219200Y454500D02*
X219200Y392200D01*
X224900Y386500D01*
X240500Y386500D01*
X249300Y377700D01*
X249300Y369900D01*
X252800Y366400D01*
X296100D01*
X301600Y371900D01*
D50*
X258500Y430000D02*
D03*
X278000Y415500D02*
D03*
X230500Y394500D02*
D03*
X258500Y448000D02*
D03*
X260600Y404400D02*
D03*
X260500Y387000D02*
D03*
X247500Y441000D02*
D03*
X227500Y401500D02*
D03*
X234000Y441000D02*
D03*
X227000D02*
D03*
X241000D02*
D03*
D51*
X262000Y440500D02*
X264000Y442500D01*
X242000Y407500D02*
X247500Y413000D01*
X242000Y388500D02*
Y407500D01*
X241000Y387500D02*
X242000Y388500D01*
X262500Y462500D02*
X264000Y461000D01*
Y442500D02*
Y461000D01*
X247500Y413000D02*
X262000Y427500D01*
Y440500D01*
M02*
