G04*
G04 #@! TF.GenerationSoftware,Altium Limited,Altium Designer,20.2.3 (150)*
G04*
G04 Layer_Color=32896*
%FSLAX25Y25*%
%MOIN*%
G70*
G04*
G04 #@! TF.SameCoordinates,E3536D8E-EA57-4637-94A7-A09A4E1BA4FE*
G04*
G04*
G04 #@! TF.FilePolarity,Positive*
G04*
G01*
G75*
%ADD11C,0.00787*%
G36*
X249689Y415094D02*
X223311D01*
Y426906D01*
X249689D01*
Y415094D01*
D02*
G37*
%LPC*%
G36*
X247689Y424906D02*
X247472D01*
Y421241D01*
X247689D01*
Y424906D01*
D02*
G37*
G36*
X247037D02*
X246820D01*
Y421241D01*
X247037D01*
Y424906D01*
D02*
G37*
G36*
X246603D02*
X246168D01*
Y421241D01*
X246603D01*
Y424906D01*
D02*
G37*
G36*
X245951D02*
X245516D01*
Y421241D01*
X245951D01*
Y424906D01*
D02*
G37*
G36*
X245299D02*
X245082D01*
Y421241D01*
X245299D01*
Y424906D01*
D02*
G37*
G36*
X244865D02*
X244647D01*
Y421241D01*
X244865D01*
Y424906D01*
D02*
G37*
G36*
X244213D02*
X243778D01*
Y421241D01*
X244213D01*
Y424906D01*
D02*
G37*
G36*
X243561D02*
X243344D01*
Y421241D01*
X243561D01*
Y424906D01*
D02*
G37*
G36*
X243127D02*
X242909D01*
Y421241D01*
X243127D01*
Y424906D01*
D02*
G37*
G36*
X242692D02*
X242257D01*
Y421241D01*
X242692D01*
Y424906D01*
D02*
G37*
G36*
X242040D02*
X241606D01*
Y421241D01*
X242040D01*
Y424906D01*
D02*
G37*
G36*
X241389D02*
X241171D01*
Y421241D01*
X241389D01*
Y424906D01*
D02*
G37*
G36*
X240954D02*
X240519D01*
Y421241D01*
X240954D01*
Y424906D01*
D02*
G37*
G36*
X240302D02*
X240085D01*
Y421241D01*
X240302D01*
Y424906D01*
D02*
G37*
G36*
X239650D02*
X239433D01*
Y421241D01*
X239650D01*
Y424906D01*
D02*
G37*
G36*
X239216D02*
X238781D01*
Y421241D01*
X239216D01*
Y424906D01*
D02*
G37*
G36*
X238564D02*
X238130D01*
Y421241D01*
X238564D01*
Y424906D01*
D02*
G37*
G36*
X237912D02*
X237695D01*
Y421241D01*
X237912D01*
Y424906D01*
D02*
G37*
G36*
X237261D02*
X237043D01*
Y421241D01*
X237261D01*
Y424906D01*
D02*
G37*
G36*
X236826D02*
X236609D01*
Y421241D01*
X236826D01*
Y424906D01*
D02*
G37*
G36*
X236391D02*
X236174D01*
Y421241D01*
X236391D01*
Y424906D01*
D02*
G37*
G36*
X235957D02*
X235740D01*
Y421241D01*
X235957D01*
Y424906D01*
D02*
G37*
G36*
X235305D02*
X235088D01*
Y421241D01*
X235305D01*
Y424906D01*
D02*
G37*
G36*
X234653D02*
X234436D01*
Y421241D01*
X234653D01*
Y424906D01*
D02*
G37*
G36*
X234002D02*
X233784D01*
Y421241D01*
X234002D01*
Y424906D01*
D02*
G37*
G36*
X233567D02*
X233133D01*
Y421241D01*
X233567D01*
Y424906D01*
D02*
G37*
G36*
X232915D02*
X232698D01*
Y421241D01*
X232915D01*
Y424906D01*
D02*
G37*
G36*
X232481D02*
X232046D01*
Y421241D01*
X232481D01*
Y424906D01*
D02*
G37*
G36*
X231829D02*
X231612D01*
Y421241D01*
X231829D01*
Y424906D01*
D02*
G37*
G36*
X231177D02*
X230960D01*
Y421241D01*
X231177D01*
Y424906D01*
D02*
G37*
G36*
X230743D02*
X230308D01*
Y421241D01*
X230743D01*
Y424906D01*
D02*
G37*
G36*
X230091D02*
X229656D01*
Y421241D01*
X230091D01*
Y424906D01*
D02*
G37*
G36*
X229222D02*
X229005D01*
Y421241D01*
X229222D01*
Y424906D01*
D02*
G37*
G36*
X228787D02*
X228570D01*
Y421241D01*
X228787D01*
Y424906D01*
D02*
G37*
G36*
X228353D02*
X228136D01*
Y421241D01*
X228353D01*
Y424906D01*
D02*
G37*
G36*
X227918D02*
X227701D01*
Y421241D01*
X227918D01*
Y424906D01*
D02*
G37*
G36*
X227267D02*
X227049D01*
Y421241D01*
X227267D01*
Y424906D01*
D02*
G37*
G36*
X226832D02*
X226397D01*
Y421241D01*
X226832D01*
Y424906D01*
D02*
G37*
G36*
X226180D02*
X225746D01*
Y421241D01*
X226180D01*
Y424906D01*
D02*
G37*
G36*
X225529D02*
X225311D01*
Y421241D01*
X225529D01*
Y424906D01*
D02*
G37*
G36*
X227715Y420308D02*
X227670D01*
X227645Y420304D01*
X227621Y420301D01*
X227555Y420294D01*
X227482Y420280D01*
X227399Y420259D01*
X227316Y420231D01*
X227232Y420193D01*
X227229D01*
X227222Y420190D01*
X227211Y420183D01*
X227194Y420172D01*
X227156Y420148D01*
X227107Y420113D01*
X227052Y420068D01*
X226996Y420016D01*
X226941Y419957D01*
X226892Y419888D01*
Y419884D01*
X226889Y419881D01*
X226882Y419867D01*
X226875Y419853D01*
X226865Y419836D01*
X226854Y419815D01*
X226833Y419763D01*
X226813Y419700D01*
X226792Y419631D01*
X226778Y419555D01*
X226774Y419475D01*
Y419471D01*
Y419464D01*
Y419454D01*
Y419440D01*
X226781Y419398D01*
X226788Y419350D01*
X226802Y419291D01*
X226823Y419228D01*
X226851Y419163D01*
X226889Y419097D01*
Y419093D01*
X226892Y419090D01*
X226910Y419069D01*
X226934Y419038D01*
X226972Y418999D01*
X227017Y418954D01*
X227076Y418909D01*
X227142Y418868D01*
X227219Y418826D01*
X227215D01*
X227205Y418822D01*
X227191Y418819D01*
X227170Y418812D01*
X227149Y418805D01*
X227121Y418795D01*
X227055Y418767D01*
X226986Y418729D01*
X226913Y418684D01*
X226840Y418625D01*
X226778Y418552D01*
X226774Y418548D01*
X226771Y418541D01*
X226764Y418531D01*
X226753Y418514D01*
X226740Y418496D01*
X226726Y418472D01*
X226712Y418444D01*
X226698Y418409D01*
X226684Y418375D01*
X226670Y418337D01*
X226642Y418250D01*
X226625Y418149D01*
X226618Y418094D01*
Y418038D01*
Y418035D01*
Y418021D01*
X226622Y417997D01*
Y417969D01*
X226629Y417931D01*
X226636Y417889D01*
X226642Y417844D01*
X226656Y417792D01*
X226674Y417736D01*
X226694Y417681D01*
X226719Y417622D01*
X226750Y417563D01*
X226785Y417500D01*
X226826Y417441D01*
X226871Y417382D01*
X226927Y417327D01*
X226930Y417323D01*
X226941Y417313D01*
X226958Y417299D01*
X226982Y417282D01*
X227010Y417261D01*
X227048Y417237D01*
X227090Y417209D01*
X227139Y417185D01*
X227191Y417157D01*
X227250Y417129D01*
X227312Y417105D01*
X227382Y417084D01*
X227454Y417067D01*
X227531Y417053D01*
X227611Y417042D01*
X227697Y417039D01*
X227715D01*
X227739Y417042D01*
X227767D01*
X227805Y417046D01*
X227847Y417053D01*
X227892Y417060D01*
X227944Y417070D01*
X227999Y417084D01*
X228055Y417101D01*
X228114Y417119D01*
X228173Y417143D01*
X228232Y417174D01*
X228287Y417205D01*
X228346Y417244D01*
X228398Y417289D01*
X228402Y417292D01*
X228409Y417299D01*
X228423Y417313D01*
X228443Y417334D01*
X228464Y417358D01*
X228488Y417389D01*
X228513Y417424D01*
X228540Y417466D01*
X228568Y417507D01*
X228596Y417559D01*
X228624Y417611D01*
X228648Y417670D01*
X228669Y417733D01*
X228690Y417799D01*
X228704Y417868D01*
X228714Y417941D01*
X228322Y417993D01*
Y417990D01*
X228319Y417979D01*
X228315Y417962D01*
X228308Y417938D01*
X228301Y417910D01*
X228294Y417879D01*
X228270Y417806D01*
X228239Y417726D01*
X228201Y417646D01*
X228152Y417573D01*
X228124Y417542D01*
X228096Y417511D01*
X228093D01*
X228089Y417504D01*
X228079Y417497D01*
X228069Y417486D01*
X228034Y417466D01*
X227985Y417438D01*
X227926Y417410D01*
X227860Y417389D01*
X227781Y417372D01*
X227697Y417365D01*
X227670D01*
X227649Y417369D01*
X227628Y417372D01*
X227597Y417376D01*
X227534Y417389D01*
X227458Y417410D01*
X227378Y417445D01*
X227340Y417469D01*
X227302Y417493D01*
X227264Y417521D01*
X227225Y417556D01*
X227222Y417559D01*
X227219Y417566D01*
X227208Y417577D01*
X227194Y417591D01*
X227180Y417608D01*
X227166Y417632D01*
X227149Y417657D01*
X227128Y417688D01*
X227094Y417757D01*
X227066Y417837D01*
X227042Y417931D01*
X227038Y417979D01*
X227035Y418031D01*
Y418035D01*
Y418042D01*
Y418059D01*
X227038Y418076D01*
X227042Y418101D01*
X227045Y418125D01*
X227055Y418187D01*
X227080Y418260D01*
X227111Y418333D01*
X227132Y418371D01*
X227156Y418406D01*
X227184Y418441D01*
X227215Y418475D01*
X227219Y418479D01*
X227222Y418482D01*
X227232Y418493D01*
X227246Y418503D01*
X227264Y418517D01*
X227284Y418531D01*
X227337Y418566D01*
X227402Y418597D01*
X227479Y418625D01*
X227566Y418645D01*
X227614Y418649D01*
X227663Y418652D01*
X227683D01*
X227708Y418649D01*
X227739D01*
X227781Y418642D01*
X227826Y418635D01*
X227881Y418625D01*
X227940Y418611D01*
X227899Y418954D01*
X227892D01*
X227874Y418951D01*
X227853Y418947D01*
X227808D01*
X227791Y418951D01*
X227767D01*
X227742Y418954D01*
X227683Y418965D01*
X227614Y418979D01*
X227538Y419003D01*
X227458Y419034D01*
X227382Y419079D01*
X227378D01*
X227371Y419086D01*
X227364Y419093D01*
X227350Y419103D01*
X227316Y419135D01*
X227277Y419180D01*
X227243Y419235D01*
X227208Y419305D01*
X227194Y419343D01*
X227187Y419388D01*
X227180Y419433D01*
X227177Y419482D01*
Y419485D01*
Y419492D01*
Y419503D01*
X227180Y419520D01*
X227184Y419558D01*
X227194Y419610D01*
X227211Y419666D01*
X227239Y419725D01*
X227277Y419787D01*
X227298Y419815D01*
X227326Y419843D01*
X227333Y419850D01*
X227354Y419864D01*
X227385Y419888D01*
X227427Y419915D01*
X227482Y419940D01*
X227548Y419964D01*
X227621Y419978D01*
X227704Y419985D01*
X227725D01*
X227742Y419981D01*
X227763D01*
X227784Y419978D01*
X227840Y419968D01*
X227899Y419950D01*
X227964Y419922D01*
X228027Y419888D01*
X228089Y419839D01*
X228096Y419832D01*
X228114Y419811D01*
X228141Y419780D01*
X228169Y419732D01*
X228204Y419673D01*
X228235Y419596D01*
X228263Y419510D01*
X228284Y419409D01*
X228676Y419478D01*
Y419482D01*
X228672Y419496D01*
X228669Y419517D01*
X228662Y419544D01*
X228652Y419576D01*
X228641Y419614D01*
X228627Y419655D01*
X228610Y419700D01*
X228565Y419801D01*
X228540Y419850D01*
X228509Y419902D01*
X228475Y419950D01*
X228436Y419999D01*
X228395Y420047D01*
X228350Y420089D01*
X228346Y420092D01*
X228339Y420099D01*
X228322Y420110D01*
X228305Y420124D01*
X228277Y420141D01*
X228249Y420158D01*
X228214Y420179D01*
X228173Y420200D01*
X228131Y420217D01*
X228082Y420238D01*
X228030Y420256D01*
X227975Y420273D01*
X227912Y420287D01*
X227850Y420297D01*
X227784Y420304D01*
X227715Y420308D01*
D02*
G37*
G36*
X247035Y420297D02*
X246573D01*
X245740Y417969D01*
Y417965D01*
X245737Y417955D01*
X245730Y417941D01*
X245723Y417920D01*
X245716Y417896D01*
X245706Y417868D01*
X245695Y417837D01*
X245681Y417799D01*
X245657Y417719D01*
X245629Y417632D01*
X245602Y417539D01*
X245574Y417445D01*
Y417448D01*
X245570Y417455D01*
X245567Y417473D01*
X245560Y417490D01*
X245553Y417514D01*
X245546Y417542D01*
X245535Y417573D01*
X245525Y417608D01*
X245501Y417688D01*
X245470Y417778D01*
X245435Y417872D01*
X245400Y417969D01*
X244536Y420297D01*
X244106D01*
X245355Y417094D01*
X245792D01*
X247035Y420297D01*
D02*
G37*
G36*
X236492Y420353D02*
X236447D01*
X236413Y420349D01*
X236371Y420346D01*
X236322Y420339D01*
X236270Y420332D01*
X236211Y420322D01*
X236149Y420308D01*
X236083Y420294D01*
X236017Y420273D01*
X235948Y420249D01*
X235878Y420221D01*
X235812Y420186D01*
X235746Y420152D01*
X235684Y420106D01*
X235680Y420103D01*
X235670Y420096D01*
X235653Y420082D01*
X235632Y420061D01*
X235604Y420037D01*
X235573Y420006D01*
X235542Y419971D01*
X235503Y419929D01*
X235465Y419884D01*
X235427Y419832D01*
X235389Y419777D01*
X235354Y419714D01*
X235316Y419648D01*
X235285Y419576D01*
X235254Y419499D01*
X235226Y419419D01*
X235642Y419322D01*
Y419326D01*
X235649Y419336D01*
X235653Y419357D01*
X235663Y419381D01*
X235673Y419409D01*
X235691Y419440D01*
X235725Y419517D01*
X235771Y419600D01*
X235830Y419687D01*
X235892Y419766D01*
X235930Y419801D01*
X235968Y419832D01*
X235972Y419836D01*
X235979Y419839D01*
X235989Y419846D01*
X236007Y419857D01*
X236027Y419870D01*
X236052Y419884D01*
X236079Y419898D01*
X236114Y419912D01*
X236152Y419926D01*
X236191Y419940D01*
X236281Y419968D01*
X236385Y419985D01*
X236440Y419992D01*
X236534D01*
X236562Y419988D01*
X236593Y419985D01*
X236631Y419981D01*
X236673Y419978D01*
X236715Y419971D01*
X236815Y419947D01*
X236919Y419915D01*
X236971Y419895D01*
X237023Y419870D01*
X237072Y419843D01*
X237120Y419811D01*
X237124Y419808D01*
X237131Y419804D01*
X237145Y419794D01*
X237162Y419780D01*
X237179Y419763D01*
X237204Y419738D01*
X237228Y419714D01*
X237256Y419687D01*
X237283Y419652D01*
X237315Y419617D01*
X237370Y419537D01*
X237422Y419444D01*
X237468Y419336D01*
Y419333D01*
X237471Y419322D01*
X237478Y419305D01*
X237481Y419284D01*
X237488Y419256D01*
X237499Y419225D01*
X237506Y419187D01*
X237516Y419149D01*
X237526Y419103D01*
X237533Y419055D01*
X237551Y418951D01*
X237561Y418840D01*
X237565Y418722D01*
Y418718D01*
Y418705D01*
Y418684D01*
X237561Y418652D01*
Y418618D01*
X237558Y418576D01*
X237554Y418531D01*
X237551Y418479D01*
X237544Y418423D01*
X237537Y418368D01*
X237516Y418246D01*
X237485Y418125D01*
X237447Y418007D01*
Y418004D01*
X237440Y417993D01*
X237433Y417979D01*
X237426Y417958D01*
X237412Y417931D01*
X237395Y417903D01*
X237356Y417837D01*
X237304Y417761D01*
X237242Y417688D01*
X237166Y417615D01*
X237124Y417584D01*
X237079Y417552D01*
X237075D01*
X237068Y417546D01*
X237054Y417539D01*
X237034Y417528D01*
X237009Y417518D01*
X236982Y417504D01*
X236950Y417493D01*
X236916Y417480D01*
X236836Y417452D01*
X236742Y417427D01*
X236642Y417410D01*
X236590Y417407D01*
X236534Y417403D01*
X236499D01*
X236475Y417407D01*
X236444Y417410D01*
X236409Y417414D01*
X236368Y417421D01*
X236326Y417427D01*
X236229Y417452D01*
X236180Y417469D01*
X236128Y417490D01*
X236076Y417514D01*
X236027Y417542D01*
X235979Y417573D01*
X235930Y417608D01*
X235927Y417611D01*
X235920Y417618D01*
X235906Y417629D01*
X235889Y417646D01*
X235871Y417667D01*
X235847Y417695D01*
X235823Y417726D01*
X235795Y417761D01*
X235767Y417802D01*
X235739Y417847D01*
X235712Y417896D01*
X235684Y417951D01*
X235660Y418011D01*
X235635Y418076D01*
X235611Y418146D01*
X235594Y418219D01*
X235170Y418111D01*
Y418104D01*
X235177Y418087D01*
X235184Y418062D01*
X235198Y418024D01*
X235212Y417983D01*
X235233Y417931D01*
X235254Y417875D01*
X235281Y417816D01*
X235313Y417750D01*
X235347Y417688D01*
X235385Y417618D01*
X235431Y417552D01*
X235479Y417490D01*
X235531Y417427D01*
X235590Y417369D01*
X235653Y417313D01*
X235656Y417310D01*
X235670Y417303D01*
X235687Y417289D01*
X235715Y417271D01*
X235746Y417251D01*
X235788Y417226D01*
X235833Y417202D01*
X235889Y417178D01*
X235948Y417153D01*
X236010Y417129D01*
X236079Y417105D01*
X236156Y417084D01*
X236236Y417067D01*
X236319Y417053D01*
X236406Y417046D01*
X236499Y417042D01*
X236548D01*
X236586Y417046D01*
X236628Y417049D01*
X236680Y417053D01*
X236735Y417060D01*
X236798Y417070D01*
X236864Y417080D01*
X236933Y417094D01*
X237002Y417112D01*
X237072Y417129D01*
X237145Y417153D01*
X237214Y417181D01*
X237280Y417212D01*
X237343Y417251D01*
X237346Y417254D01*
X237356Y417261D01*
X237374Y417271D01*
X237395Y417289D01*
X237422Y417313D01*
X237454Y417337D01*
X237488Y417369D01*
X237526Y417407D01*
X237565Y417448D01*
X237606Y417493D01*
X237644Y417542D01*
X237686Y417597D01*
X237728Y417657D01*
X237766Y417719D01*
X237801Y417788D01*
X237835Y417861D01*
X237839Y417865D01*
X237842Y417879D01*
X237849Y417903D01*
X237860Y417931D01*
X237873Y417969D01*
X237887Y418011D01*
X237901Y418062D01*
X237919Y418118D01*
X237932Y418181D01*
X237950Y418246D01*
X237964Y418316D01*
X237974Y418392D01*
X237995Y418552D01*
X237998Y418635D01*
X238002Y418718D01*
Y418725D01*
Y418739D01*
Y418767D01*
X237998Y418802D01*
X237995Y418847D01*
X237991Y418899D01*
X237984Y418954D01*
X237978Y419017D01*
X237967Y419083D01*
X237957Y419152D01*
X237922Y419301D01*
X237898Y419374D01*
X237873Y419447D01*
X237846Y419523D01*
X237811Y419593D01*
X237807Y419596D01*
X237801Y419610D01*
X237790Y419628D01*
X237776Y419655D01*
X237755Y419687D01*
X237731Y419721D01*
X237703Y419759D01*
X237672Y419804D01*
X237634Y419846D01*
X237596Y419895D01*
X237551Y419940D01*
X237502Y419988D01*
X237450Y420034D01*
X237395Y420079D01*
X237332Y420120D01*
X237270Y420158D01*
X237266Y420162D01*
X237252Y420165D01*
X237235Y420176D01*
X237207Y420190D01*
X237176Y420203D01*
X237134Y420221D01*
X237089Y420238D01*
X237041Y420256D01*
X236985Y420273D01*
X236923Y420290D01*
X236860Y420308D01*
X236791Y420322D01*
X236649Y420346D01*
X236572Y420349D01*
X236492Y420353D01*
D02*
G37*
G36*
X241076D02*
X241034D01*
X241003Y420349D01*
X240961Y420346D01*
X240916Y420342D01*
X240867Y420335D01*
X240812Y420325D01*
X240749Y420315D01*
X240687Y420301D01*
X240621Y420283D01*
X240552Y420262D01*
X240482Y420238D01*
X240413Y420211D01*
X240347Y420179D01*
X240277Y420141D01*
X240274Y420138D01*
X240260Y420131D01*
X240243Y420120D01*
X240218Y420103D01*
X240187Y420082D01*
X240156Y420054D01*
X240118Y420023D01*
X240076Y419988D01*
X240031Y419947D01*
X239986Y419902D01*
X239941Y419853D01*
X239896Y419801D01*
X239854Y419745D01*
X239809Y419683D01*
X239771Y419617D01*
X239733Y419548D01*
X239729Y419544D01*
X239726Y419530D01*
X239715Y419510D01*
X239705Y419482D01*
X239688Y419447D01*
X239674Y419402D01*
X239656Y419353D01*
X239639Y419298D01*
X239622Y419239D01*
X239604Y419173D01*
X239587Y419100D01*
X239573Y419027D01*
X239563Y418947D01*
X239552Y418864D01*
X239549Y418781D01*
X239545Y418691D01*
Y418684D01*
Y418670D01*
Y418642D01*
X239549Y418607D01*
X239552Y418566D01*
X239556Y418517D01*
X239563Y418462D01*
X239570Y418399D01*
X239580Y418333D01*
X239594Y418264D01*
X239608Y418191D01*
X239629Y418118D01*
X239653Y418042D01*
X239677Y417969D01*
X239708Y417893D01*
X239743Y417820D01*
X239746Y417816D01*
X239754Y417802D01*
X239764Y417781D01*
X239778Y417757D01*
X239799Y417726D01*
X239823Y417688D01*
X239854Y417646D01*
X239885Y417601D01*
X239924Y417556D01*
X239965Y417507D01*
X240014Y417459D01*
X240062Y417410D01*
X240114Y417365D01*
X240173Y417320D01*
X240236Y417275D01*
X240302Y417237D01*
X240305Y417233D01*
X240319Y417230D01*
X240336Y417219D01*
X240364Y417205D01*
X240399Y417192D01*
X240437Y417174D01*
X240482Y417157D01*
X240534Y417139D01*
X240590Y417122D01*
X240649Y417105D01*
X240715Y417088D01*
X240781Y417074D01*
X240926Y417049D01*
X241003Y417046D01*
X241079Y417042D01*
X241124D01*
X241155Y417046D01*
X241194Y417049D01*
X241242Y417053D01*
X241291Y417060D01*
X241350Y417070D01*
X241409Y417080D01*
X241475Y417094D01*
X241541Y417112D01*
X241610Y417133D01*
X241679Y417157D01*
X241749Y417188D01*
X241818Y417219D01*
X241887Y417257D01*
X241891Y417261D01*
X241901Y417268D01*
X241922Y417282D01*
X241947Y417299D01*
X241974Y417320D01*
X242009Y417348D01*
X242047Y417379D01*
X242089Y417414D01*
X242134Y417455D01*
X242176Y417500D01*
X242221Y417549D01*
X242266Y417601D01*
X242311Y417660D01*
X242353Y417719D01*
X242391Y417785D01*
X242429Y417854D01*
X242432Y417858D01*
X242436Y417872D01*
X242446Y417893D01*
X242457Y417920D01*
X242471Y417955D01*
X242484Y417997D01*
X242502Y418042D01*
X242519Y418097D01*
X242536Y418153D01*
X242554Y418215D01*
X242568Y418281D01*
X242582Y418351D01*
X242602Y418496D01*
X242606Y418576D01*
X242609Y418652D01*
Y418656D01*
Y418663D01*
Y418673D01*
Y418687D01*
X242606Y418708D01*
Y418729D01*
X242602Y418784D01*
X242595Y418850D01*
X242585Y418930D01*
X242575Y419013D01*
X242557Y419107D01*
X242533Y419208D01*
X242505Y419308D01*
X242471Y419412D01*
X242429Y419517D01*
X242380Y419621D01*
X242325Y419718D01*
X242259Y419815D01*
X242182Y419902D01*
X242179Y419905D01*
X242162Y419922D01*
X242137Y419943D01*
X242106Y419971D01*
X242061Y420006D01*
X242012Y420044D01*
X241953Y420085D01*
X241884Y420127D01*
X241808Y420169D01*
X241724Y420211D01*
X241634Y420249D01*
X241534Y420283D01*
X241429Y420311D01*
X241318Y420332D01*
X241200Y420349D01*
X241076Y420353D01*
D02*
G37*
G36*
X233446Y416491D02*
X230840D01*
Y416206D01*
X233446D01*
Y416491D01*
D02*
G37*
%LPD*%
G36*
X241117Y419985D02*
X241152D01*
X241190Y419978D01*
X241235Y419971D01*
X241284Y419961D01*
X241339Y419950D01*
X241398Y419933D01*
X241461Y419912D01*
X241527Y419888D01*
X241589Y419857D01*
X241655Y419822D01*
X241721Y419780D01*
X241787Y419732D01*
X241849Y419676D01*
X241853Y419673D01*
X241863Y419662D01*
X241881Y419641D01*
X241898Y419617D01*
X241926Y419582D01*
X241950Y419541D01*
X241981Y419489D01*
X242009Y419433D01*
X242040Y419364D01*
X242071Y419287D01*
X242096Y419204D01*
X242120Y419110D01*
X242141Y419010D01*
X242158Y418899D01*
X242169Y418777D01*
X242172Y418645D01*
Y418639D01*
Y418621D01*
X242169Y418590D01*
Y418548D01*
X242162Y418500D01*
X242155Y418444D01*
X242148Y418382D01*
X242134Y418316D01*
X242117Y418243D01*
X242096Y418167D01*
X242071Y418094D01*
X242040Y418017D01*
X242005Y417941D01*
X241964Y417868D01*
X241919Y417799D01*
X241863Y417733D01*
X241860Y417729D01*
X241849Y417719D01*
X241832Y417702D01*
X241808Y417681D01*
X241776Y417657D01*
X241738Y417629D01*
X241697Y417597D01*
X241648Y417570D01*
X241596Y417539D01*
X241534Y417507D01*
X241471Y417480D01*
X241402Y417455D01*
X241329Y417435D01*
X241249Y417417D01*
X241169Y417407D01*
X241083Y417403D01*
X241062D01*
X241037Y417407D01*
X241003Y417410D01*
X240961Y417414D01*
X240916Y417421D01*
X240860Y417431D01*
X240805Y417445D01*
X240742Y417462D01*
X240680Y417483D01*
X240614Y417511D01*
X240548Y417546D01*
X240482Y417584D01*
X240416Y417625D01*
X240354Y417677D01*
X240295Y417736D01*
X240291Y417740D01*
X240281Y417754D01*
X240267Y417771D01*
X240246Y417799D01*
X240222Y417834D01*
X240194Y417875D01*
X240166Y417924D01*
X240139Y417983D01*
X240111Y418045D01*
X240080Y418118D01*
X240055Y418194D01*
X240031Y418281D01*
X240010Y418375D01*
X239996Y418472D01*
X239986Y418580D01*
X239983Y418691D01*
Y418694D01*
Y418708D01*
Y418729D01*
X239986Y418756D01*
Y418791D01*
X239989Y418829D01*
X239993Y418875D01*
X240000Y418923D01*
X240014Y419031D01*
X240038Y419145D01*
X240073Y419260D01*
X240118Y419374D01*
Y419378D01*
X240125Y419388D01*
X240132Y419402D01*
X240142Y419423D01*
X240156Y419447D01*
X240173Y419475D01*
X240215Y419541D01*
X240270Y419614D01*
X240336Y419687D01*
X240413Y419759D01*
X240503Y419825D01*
X240507Y419829D01*
X240513Y419832D01*
X240527Y419839D01*
X240548Y419850D01*
X240572Y419864D01*
X240600Y419877D01*
X240631Y419891D01*
X240670Y419909D01*
X240711Y419922D01*
X240753Y419936D01*
X240850Y419964D01*
X240958Y419981D01*
X241017Y419988D01*
X241096D01*
X241117Y419985D01*
D02*
G37*
D11*
X296743Y373834D02*
X295910Y373001D01*
X294244D01*
X293411Y373834D01*
Y377166D01*
X294244Y377999D01*
X295910D01*
X296743Y377166D01*
Y376333D01*
X295910Y375500D01*
X293411D01*
X291745Y373001D02*
X288412Y376333D01*
X286746Y373001D02*
X285080D01*
X285913D01*
Y377999D01*
X286746Y377166D01*
X280082Y373001D02*
Y377999D01*
X282581Y375500D01*
X279249D01*
X277583Y373001D02*
X274250Y376333D01*
X269252Y373001D02*
X272584D01*
X269252Y376333D01*
Y377166D01*
X270085Y377999D01*
X271751D01*
X272584Y377166D01*
X267586D02*
X266753Y377999D01*
X265087D01*
X264254Y377166D01*
Y373834D01*
X265087Y373001D01*
X266753D01*
X267586Y373834D01*
Y377166D01*
X259255Y373001D02*
X262587D01*
X259255Y376333D01*
Y377166D01*
X260088Y377999D01*
X261754D01*
X262587Y377166D01*
X257589D02*
X256756Y377999D01*
X255090D01*
X254257Y377166D01*
Y373834D01*
X255090Y373001D01*
X256756D01*
X257589Y373834D01*
Y377166D01*
M02*
