G04*
G04 #@! TF.GenerationSoftware,Altium Limited,Altium Designer,20.1.14 (287)*
G04*
G04 Layer_Physical_Order=4*
G04 Layer_Color=16711680*
%FSLAX25Y25*%
%MOIN*%
G70*
G04*
G04 #@! TF.SameCoordinates,9836355C-B803-4AE6-937A-367240942F31*
G04*
G04*
G04 #@! TF.FilePolarity,Positive*
G04*
G01*
G75*
%ADD43C,0.01000*%
%ADD44C,0.02800*%
G36*
X298600Y454800D02*
Y386500D01*
X293800Y381700D01*
X251496D01*
X244598Y388598D01*
X244598Y388598D01*
X243896Y389137D01*
X243078Y389476D01*
X242200Y389591D01*
X225209D01*
X221391Y393409D01*
X221391Y454695D01*
X226496Y459800D01*
X293600D01*
X298600Y454800D01*
D02*
G37*
%LPC*%
G36*
X230600Y455447D02*
X229664Y455261D01*
X228870Y454730D01*
X228339Y453936D01*
X228153Y453000D01*
X228339Y452064D01*
X228870Y451270D01*
X229664Y450739D01*
X230600Y450553D01*
X231536Y450739D01*
X232330Y451270D01*
X232861Y452064D01*
X233047Y453000D01*
X232861Y453936D01*
X232330Y454730D01*
X231536Y455261D01*
X230600Y455447D01*
D02*
G37*
G36*
X265100Y449047D02*
X264164Y448861D01*
X263370Y448330D01*
X262839Y447536D01*
X262653Y446600D01*
X262839Y445664D01*
X263370Y444870D01*
X264164Y444339D01*
X265100Y444153D01*
X266036Y444339D01*
X266830Y444870D01*
X267361Y445664D01*
X267547Y446600D01*
X267361Y447536D01*
X266830Y448330D01*
X266036Y448861D01*
X265100Y449047D01*
D02*
G37*
G36*
X227400Y447747D02*
X226464Y447561D01*
X225670Y447030D01*
X225139Y446236D01*
X224953Y445300D01*
X225139Y444364D01*
X225670Y443570D01*
X226464Y443039D01*
X227400Y442853D01*
X228336Y443039D01*
X229130Y443570D01*
X229661Y444364D01*
X229847Y445300D01*
X229661Y446236D01*
X229130Y447030D01*
X228336Y447561D01*
X227400Y447747D01*
D02*
G37*
G36*
X244739Y442547D02*
X243803Y442361D01*
X243009Y441830D01*
X242479Y441036D01*
X242292Y440100D01*
X242479Y439164D01*
X243009Y438370D01*
X243803Y437839D01*
X244739Y437653D01*
X245676Y437839D01*
X246470Y438370D01*
X247000Y439164D01*
X247186Y440100D01*
X247000Y441036D01*
X246470Y441830D01*
X245676Y442361D01*
X244739Y442547D01*
D02*
G37*
G36*
X277100Y442047D02*
X276164Y441861D01*
X275370Y441330D01*
X274839Y440536D01*
X274653Y439600D01*
X274839Y438664D01*
X275370Y437870D01*
X276164Y437339D01*
X277100Y437153D01*
X278036Y437339D01*
X278830Y437870D01*
X279361Y438664D01*
X279547Y439600D01*
X279361Y440536D01*
X278830Y441330D01*
X278036Y441861D01*
X277100Y442047D01*
D02*
G37*
G36*
X228800Y432447D02*
X227864Y432261D01*
X227070Y431730D01*
X226539Y430936D01*
X226353Y430000D01*
X226539Y429064D01*
X227070Y428270D01*
X227864Y427739D01*
X228800Y427553D01*
X229736Y427739D01*
X230530Y428270D01*
X231061Y429064D01*
X231247Y430000D01*
X231061Y430936D01*
X230530Y431730D01*
X229736Y432261D01*
X228800Y432447D01*
D02*
G37*
G36*
X243500Y432147D02*
X242564Y431961D01*
X241770Y431430D01*
X241239Y430636D01*
X241053Y429700D01*
X241239Y428764D01*
X241770Y427970D01*
X242564Y427439D01*
X243500Y427253D01*
X244436Y427439D01*
X245230Y427970D01*
X245761Y428764D01*
X245947Y429700D01*
X245761Y430636D01*
X245230Y431430D01*
X244436Y431961D01*
X243500Y432147D01*
D02*
G37*
G36*
X291300Y424447D02*
X290364Y424261D01*
X289570Y423730D01*
X289039Y422936D01*
X288853Y422000D01*
X289039Y421064D01*
X289570Y420270D01*
X290364Y419739D01*
X291300Y419553D01*
X292236Y419739D01*
X293030Y420270D01*
X293561Y421064D01*
X293747Y422000D01*
X293561Y422936D01*
X293030Y423730D01*
X292236Y424261D01*
X291300Y424447D01*
D02*
G37*
G36*
X236400Y421068D02*
X235464Y420881D01*
X234670Y420351D01*
X234139Y419557D01*
X233953Y418621D01*
X234139Y417684D01*
X234670Y416890D01*
X235464Y416360D01*
X236400Y416174D01*
X237336Y416360D01*
X238130Y416890D01*
X238661Y417684D01*
X238847Y418621D01*
X238661Y419557D01*
X238130Y420351D01*
X237336Y420881D01*
X236400Y421068D01*
D02*
G37*
G36*
X227345D02*
X226408Y420881D01*
X225615Y420351D01*
X225084Y419557D01*
X224898Y418621D01*
X225084Y417684D01*
X225615Y416890D01*
X226408Y416360D01*
X227345Y416174D01*
X228281Y416360D01*
X229075Y416890D01*
X229606Y417684D01*
X229792Y418621D01*
X229606Y419557D01*
X229075Y420351D01*
X228281Y420881D01*
X227345Y421068D01*
D02*
G37*
G36*
X263000Y440647D02*
X262064Y440461D01*
X261270Y439930D01*
X260739Y439136D01*
X260553Y438200D01*
X260739Y437264D01*
X261270Y436470D01*
X261364Y436407D01*
X261376Y436392D01*
X261402Y436355D01*
X261422Y436320D01*
X261438Y436284D01*
X261452Y436247D01*
X261463Y436207D01*
X261471Y436169D01*
Y429600D01*
X261587Y429015D01*
X261919Y428519D01*
X273883Y416555D01*
X273904Y416523D01*
X273925Y416486D01*
X273941Y416451D01*
X273955Y416414D01*
X273965Y416374D01*
X273973Y416330D01*
X273975Y416312D01*
X273953Y416200D01*
X274139Y415264D01*
X274670Y414470D01*
X275464Y413939D01*
X276400Y413753D01*
X277336Y413939D01*
X278130Y414470D01*
X278661Y415264D01*
X278847Y416200D01*
X278661Y417136D01*
X278130Y417930D01*
X277336Y418461D01*
X276400Y418647D01*
X276288Y418625D01*
X276270Y418627D01*
X276226Y418635D01*
X276186Y418645D01*
X276150Y418659D01*
X276114Y418675D01*
X276078Y418696D01*
X276045Y418717D01*
X264529Y430233D01*
Y436169D01*
X264537Y436207D01*
X264548Y436247D01*
X264562Y436284D01*
X264578Y436320D01*
X264598Y436355D01*
X264624Y436392D01*
X264636Y436407D01*
X264730Y436470D01*
X265261Y437264D01*
X265447Y438200D01*
X265261Y439136D01*
X264730Y439930D01*
X263936Y440461D01*
X263000Y440647D01*
D02*
G37*
G36*
X261100Y398216D02*
Y396369D01*
X262948D01*
X262861Y396805D01*
X262330Y397599D01*
X261536Y398130D01*
X261100Y398216D01*
D02*
G37*
G36*
X260100D02*
X259664Y398130D01*
X258870Y397599D01*
X258339Y396805D01*
X258252Y396369D01*
X260100D01*
Y398216D01*
D02*
G37*
G36*
X236400Y398627D02*
X235464Y398440D01*
X234670Y397910D01*
X234139Y397116D01*
X233953Y396180D01*
X234139Y395243D01*
X234670Y394449D01*
X235464Y393919D01*
X236400Y393733D01*
X237336Y393919D01*
X238130Y394449D01*
X238661Y395243D01*
X238847Y396180D01*
X238661Y397116D01*
X238130Y397910D01*
X237336Y398440D01*
X236400Y398627D01*
D02*
G37*
G36*
X262948Y395369D02*
X261100D01*
Y393521D01*
X261536Y393608D01*
X262330Y394139D01*
X262861Y394932D01*
X262948Y395369D01*
D02*
G37*
G36*
X260100D02*
X258252D01*
X258339Y394932D01*
X258870Y394139D01*
X259664Y393608D01*
X260100Y393521D01*
Y395369D01*
D02*
G37*
G36*
X290600Y398316D02*
X289664Y398130D01*
X288870Y397599D01*
X288339Y396805D01*
X288153Y395869D01*
X288339Y394932D01*
X288870Y394139D01*
X289664Y393608D01*
X290600Y393422D01*
X291536Y393608D01*
X292330Y394139D01*
X292861Y394932D01*
X293047Y395869D01*
X292861Y396805D01*
X292330Y397599D01*
X291536Y398130D01*
X290600Y398316D01*
D02*
G37*
%LPD*%
G36*
X263889Y437104D02*
X263807Y437004D01*
X263735Y436899D01*
X263673Y436791D01*
X263620Y436678D01*
X263577Y436561D01*
X263543Y436440D01*
X263519Y436315D01*
X263505Y436186D01*
X263500Y436052D01*
X262500D01*
X262495Y436186D01*
X262481Y436315D01*
X262457Y436440D01*
X262423Y436561D01*
X262380Y436678D01*
X262327Y436791D01*
X262265Y436899D01*
X262193Y437004D01*
X262111Y437104D01*
X262020Y437200D01*
X263980D01*
X263889Y437104D01*
D02*
G37*
G36*
X275333Y417981D02*
X275434Y417900D01*
X275540Y417829D01*
X275649Y417767D01*
X275762Y417715D01*
X275879Y417672D01*
X276000Y417640D01*
X276125Y417617D01*
X276254Y417603D01*
X276386Y417600D01*
X275000Y416214D01*
X274997Y416347D01*
X274983Y416475D01*
X274960Y416600D01*
X274928Y416721D01*
X274885Y416838D01*
X274833Y416951D01*
X274771Y417060D01*
X274700Y417166D01*
X274619Y417267D01*
X274528Y417365D01*
X275235Y418072D01*
X275333Y417981D01*
D02*
G37*
D43*
X263000Y429600D02*
X276400Y416200D01*
X263000Y429600D02*
Y438200D01*
D44*
D03*
X276400Y416200D02*
D03*
X277100Y439600D02*
D03*
X265100Y446600D02*
D03*
X230600Y453000D02*
D03*
X228800Y430000D02*
D03*
X236400Y418621D02*
D03*
Y396180D02*
D03*
X227345Y418621D02*
D03*
X227400Y445300D02*
D03*
X243500Y429700D02*
D03*
X244739Y440100D02*
D03*
X291300Y422000D02*
D03*
X290600Y395869D02*
D03*
X260600D02*
D03*
M02*
