G04*
G04 #@! TF.GenerationSoftware,Altium Limited,Altium Designer,20.1.14 (287)*
G04*
G04 Layer_Color=32896*
%FSLAX25Y25*%
%MOIN*%
G70*
G04*
G04 #@! TF.SameCoordinates,382E2BFE-DF1F-4DD7-88B8-9F832B5EDFD0*
G04*
G04*
G04 #@! TF.FilePolarity,Positive*
G04*
G01*
G75*
%ADD45C,0.01100*%
D45*
X242169Y397900D02*
X238837D01*
X237171Y399566D01*
X238837Y401232D01*
X242169D01*
Y405398D02*
Y403731D01*
X241336Y402898D01*
X238004D01*
X237171Y403731D01*
Y405398D01*
X238004Y406231D01*
X241336D01*
X242169Y405398D01*
X241336Y411229D02*
X242169Y410396D01*
Y408730D01*
X241336Y407897D01*
X238004D01*
X237171Y408730D01*
Y410396D01*
X238004Y411229D01*
X236338Y412895D02*
Y416227D01*
X241336Y417894D02*
X242169Y418727D01*
Y420393D01*
X241336Y421226D01*
X238004D01*
X237171Y420393D01*
Y418727D01*
X238004Y417894D01*
X241336D01*
X237171Y426224D02*
Y422892D01*
X240503Y426224D01*
X241336D01*
X242169Y425391D01*
Y423725D01*
X241336Y422892D01*
X232698Y397900D02*
X227700D01*
Y400399D01*
X228533Y401232D01*
X229366D01*
X230199Y400399D01*
Y397900D01*
Y400399D01*
X231032Y401232D01*
X231865D01*
X232698Y400399D01*
Y397900D01*
X231032Y402898D02*
X227700D01*
X229366D01*
X230199Y403731D01*
X231032Y404565D01*
Y405398D01*
Y408730D02*
Y410396D01*
X230199Y411229D01*
X227700D01*
Y408730D01*
X228533Y407897D01*
X229366Y408730D01*
Y411229D01*
X232698Y416227D02*
X227700D01*
Y413728D01*
X228533Y412895D01*
X230199D01*
X231032Y413728D01*
Y416227D01*
X232698Y417894D02*
X227700D01*
X229366Y419560D01*
X227700Y421226D01*
X232698D01*
X227700Y422892D02*
Y424558D01*
Y423725D01*
X231032D01*
Y422892D01*
X227700Y427057D02*
Y428723D01*
Y427890D01*
X232698D01*
Y427057D01*
X227700Y431222D02*
Y432889D01*
Y432056D01*
X232698D01*
Y431222D01*
X227700Y435388D02*
Y437054D01*
Y436221D01*
X231032D01*
Y435388D01*
Y440386D02*
Y442052D01*
X230199Y442885D01*
X227700D01*
Y440386D01*
X228533Y439553D01*
X229366Y440386D01*
Y442885D01*
X227700Y444552D02*
X231032D01*
Y445385D01*
X230199Y446218D01*
X227700D01*
X230199D01*
X231032Y447051D01*
X230199Y447884D01*
X227700D01*
Y449550D02*
Y452049D01*
X228533Y452882D01*
X229366Y452049D01*
Y450383D01*
X230199Y449550D01*
X231032Y450383D01*
Y452882D01*
M02*
