G04*
G04 #@! TF.GenerationSoftware,Altium Limited,Altium Designer,20.1.14 (287)*
G04*
G04 Layer_Color=8388736*
%FSLAX25Y25*%
%MOIN*%
G70*
G04*
G04 #@! TF.SameCoordinates,25341EFE-2045-4F96-BCC5-9C0D11CA6E78*
G04*
G04*
G04 #@! TF.FilePolarity,Negative*
G04*
G01*
G75*
%ADD28R,0.03943X0.08668*%
%ADD29R,0.12998X0.08668*%
%ADD30O,0.05715X0.02762*%
%ADD31R,0.02762X0.03550*%
%ADD32R,0.04534X0.06306*%
%ADD33R,0.02565X0.01975*%
%ADD34R,0.04731X0.05124*%
%ADD35R,0.02172X0.03747*%
%ADD36R,0.03156X0.03747*%
%ADD37R,0.05715X0.04534*%
%ADD38R,0.03747X0.02172*%
%ADD39R,0.03353X0.03747*%
%ADD40R,0.05400X0.12920*%
%ADD41C,0.03200*%
D28*
X245455Y418621D02*
D03*
X236400D02*
D03*
X227345D02*
D03*
D29*
X236400Y396180D02*
D03*
D30*
X283900Y414700D02*
D03*
Y419700D02*
D03*
Y424700D02*
D03*
Y429700D02*
D03*
X256144Y414700D02*
D03*
Y419700D02*
D03*
Y424700D02*
D03*
Y429700D02*
D03*
D31*
X228991Y430100D02*
D03*
X234700D02*
D03*
D32*
X281000Y448300D02*
D03*
D33*
X285823Y451450D02*
D03*
Y448300D02*
D03*
Y445150D02*
D03*
X276177Y451450D02*
D03*
Y448300D02*
D03*
Y445150D02*
D03*
D34*
X244500Y449300D02*
D03*
X236232D02*
D03*
D35*
X237100Y440300D02*
D03*
X231194D02*
D03*
D36*
X242939Y430300D02*
D03*
X247861D02*
D03*
X250461Y440200D02*
D03*
X245539D02*
D03*
D37*
X259500Y440247D02*
D03*
Y446153D02*
D03*
D38*
X270400Y445547D02*
D03*
Y451453D02*
D03*
D39*
X280341Y438400D02*
D03*
X285459D02*
D03*
D40*
X280600Y395869D02*
D03*
X290600D02*
D03*
X270600D02*
D03*
X260600D02*
D03*
D41*
X236232Y449300D02*
D03*
X261700Y455000D02*
D03*
X236400Y418621D02*
D03*
Y396180D02*
D03*
X227300Y450300D02*
D03*
X264300Y440000D02*
D03*
X261300Y433000D02*
D03*
X268500Y424800D02*
D03*
X270600Y395869D02*
D03*
X280600D02*
D03*
X288200Y454200D02*
D03*
X272400Y439400D02*
D03*
X249000Y456500D02*
D03*
X225200Y443500D02*
D03*
X231300Y408400D02*
D03*
X241344Y427244D02*
D03*
X290100Y428500D02*
D03*
M02*
