G04*
G04 #@! TF.GenerationSoftware,Altium Limited,Altium Designer,20.1.14 (287)*
G04*
G04 Layer_Physical_Order=2*
G04 Layer_Color=16440176*
%FSLAX25Y25*%
%MOIN*%
G70*
G04*
G04 #@! TF.SameCoordinates,6E086365-E2DE-403D-A888-8F504F8E791D*
G04*
G04*
G04 #@! TF.FilePolarity,Positive*
G04*
G01*
G75*
%ADD42C,0.01000*%
%ADD43R,0.05000X0.12520*%
%ADD44C,0.02800*%
G36*
X298600Y454800D02*
X298600Y454800D01*
Y386500D01*
X293800Y381700D01*
X251496D01*
X244598Y388598D01*
X244598Y388598D01*
X243896Y389137D01*
X243078Y389476D01*
X242200Y389591D01*
X225209D01*
X221391Y393409D01*
X221391Y454695D01*
X223911Y457215D01*
X226800Y459800D01*
X293600D01*
X298600Y454800D01*
D02*
G37*
%LPC*%
G36*
X230600Y455447D02*
X229664Y455261D01*
X228870Y454730D01*
X228339Y453936D01*
X228153Y453000D01*
X228339Y452064D01*
X228870Y451270D01*
X229664Y450739D01*
X230600Y450553D01*
X231536Y450739D01*
X232330Y451270D01*
X232861Y452064D01*
X233047Y453000D01*
X232861Y453936D01*
X232330Y454730D01*
X231536Y455261D01*
X230600Y455447D01*
D02*
G37*
G36*
X265100Y449047D02*
X264164Y448861D01*
X263370Y448330D01*
X262839Y447536D01*
X262653Y446600D01*
X262839Y445664D01*
X263370Y444870D01*
X264164Y444339D01*
X265100Y444153D01*
X266036Y444339D01*
X266830Y444870D01*
X267361Y445664D01*
X267547Y446600D01*
X267361Y447536D01*
X266830Y448330D01*
X266036Y448861D01*
X265100Y449047D01*
D02*
G37*
G36*
X277100Y442047D02*
X276164Y441861D01*
X275370Y441330D01*
X274839Y440536D01*
X274653Y439600D01*
X274839Y438664D01*
X275370Y437870D01*
X276164Y437339D01*
X277100Y437153D01*
X278036Y437339D01*
X278830Y437870D01*
X279361Y438664D01*
X279547Y439600D01*
X279361Y440536D01*
X278830Y441330D01*
X278036Y441861D01*
X277100Y442047D01*
D02*
G37*
G36*
X263000Y440647D02*
X262064Y440461D01*
X261270Y439930D01*
X260739Y439136D01*
X260553Y438200D01*
X260739Y437264D01*
X261270Y436470D01*
X262064Y435939D01*
X263000Y435753D01*
X263936Y435939D01*
X264730Y436470D01*
X265261Y437264D01*
X265447Y438200D01*
X265261Y439136D01*
X264730Y439930D01*
X263936Y440461D01*
X263000Y440647D01*
D02*
G37*
G36*
X236400Y421068D02*
X235464Y420881D01*
X234670Y420351D01*
X234139Y419557D01*
X233953Y418621D01*
X234139Y417684D01*
X234670Y416890D01*
X235464Y416360D01*
X236400Y416174D01*
X237336Y416360D01*
X238130Y416890D01*
X238661Y417684D01*
X238847Y418621D01*
X238661Y419557D01*
X238130Y420351D01*
X237336Y420881D01*
X236400Y421068D01*
D02*
G37*
G36*
X276400Y418647D02*
X275464Y418461D01*
X274670Y417930D01*
X274139Y417136D01*
X273953Y416200D01*
X274139Y415264D01*
X274670Y414470D01*
X275464Y413939D01*
X276400Y413753D01*
X277336Y413939D01*
X278130Y414470D01*
X278661Y415264D01*
X278847Y416200D01*
X278661Y417136D01*
X278130Y417930D01*
X277336Y418461D01*
X276400Y418647D01*
D02*
G37*
G36*
X264100Y403129D02*
X261100D01*
Y396369D01*
X264100D01*
Y403129D01*
D02*
G37*
G36*
X260100D02*
X257100D01*
Y396369D01*
X260100D01*
Y403129D01*
D02*
G37*
G36*
X236400Y398627D02*
X235464Y398440D01*
X234670Y397910D01*
X234139Y397116D01*
X233953Y396180D01*
X234139Y395243D01*
X234670Y394449D01*
X235464Y393919D01*
X236400Y393733D01*
X237336Y393919D01*
X238130Y394449D01*
X238661Y395243D01*
X238847Y396180D01*
X238661Y397116D01*
X238130Y397910D01*
X237336Y398440D01*
X236400Y398627D01*
D02*
G37*
G36*
X227400Y447747D02*
X226464Y447561D01*
X225670Y447030D01*
X225139Y446236D01*
X224953Y445300D01*
X224975Y445188D01*
X224973Y445169D01*
X224965Y445126D01*
X224955Y445086D01*
X224941Y445049D01*
X224925Y445014D01*
X224904Y444978D01*
X224883Y444945D01*
X224619Y444681D01*
X224287Y444185D01*
X224171Y443600D01*
Y424538D01*
X224287Y423953D01*
X224619Y423457D01*
X225815Y422260D01*
Y420651D01*
X225808Y420613D01*
X225797Y420573D01*
X225783Y420536D01*
X225767Y420501D01*
X225746Y420466D01*
X225721Y420429D01*
X225709Y420414D01*
X225615Y420351D01*
X225084Y419557D01*
X224898Y418621D01*
X225084Y417684D01*
X225615Y416890D01*
X226408Y416360D01*
X227345Y416174D01*
X228281Y416360D01*
X229075Y416890D01*
X229606Y417684D01*
X229792Y418621D01*
X229606Y419557D01*
X229075Y420351D01*
X228980Y420414D01*
X228969Y420429D01*
X228943Y420466D01*
X228923Y420501D01*
X228906Y420536D01*
X228893Y420573D01*
X228882Y420613D01*
X228874Y420651D01*
Y422894D01*
X228758Y423479D01*
X228426Y423975D01*
X227229Y425172D01*
Y427633D01*
X227670Y427868D01*
X227864Y427739D01*
X228800Y427553D01*
X229736Y427739D01*
X230530Y428270D01*
X231061Y429064D01*
X231247Y430000D01*
X231061Y430936D01*
X230530Y431730D01*
X229736Y432261D01*
X228800Y432447D01*
X227864Y432261D01*
X227670Y432132D01*
X227229Y432367D01*
Y442377D01*
X227400Y442853D01*
X228336Y443039D01*
X228962Y443457D01*
X228977Y443465D01*
X228989Y443475D01*
X229130Y443570D01*
X229143Y443588D01*
X229148Y443591D01*
X229194Y443615D01*
X229239Y443634D01*
X229285Y443650D01*
X229334Y443663D01*
X229379Y443671D01*
X237467D01*
X241838Y439299D01*
X242075Y439141D01*
X241971Y438614D01*
Y431731D01*
X241963Y431693D01*
X241952Y431653D01*
X241938Y431616D01*
X241922Y431580D01*
X241902Y431545D01*
X241876Y431508D01*
X241864Y431494D01*
X241770Y431430D01*
X241239Y430636D01*
X241053Y429700D01*
X241239Y428764D01*
X241770Y427970D01*
X241864Y427907D01*
X241876Y427892D01*
X241902Y427855D01*
X241922Y427820D01*
X241938Y427784D01*
X241952Y427747D01*
X241963Y427707D01*
X241971Y427669D01*
Y427286D01*
X242087Y426700D01*
X242419Y426204D01*
X243004Y425619D01*
X243500Y425287D01*
X244086Y425171D01*
X272012D01*
X290016Y407166D01*
Y403129D01*
X287100D01*
Y388609D01*
X294100D01*
Y403129D01*
X293075D01*
Y420117D01*
X293083Y420171D01*
X293097Y420232D01*
X293114Y420291D01*
X293135Y420351D01*
X293161Y420410D01*
X293192Y420471D01*
X293228Y420532D01*
X293287Y420619D01*
X293324Y420710D01*
X293561Y421064D01*
X293747Y422000D01*
X293561Y422936D01*
X293030Y423730D01*
X292236Y424261D01*
X291300Y424447D01*
X290364Y424261D01*
X289570Y423730D01*
X289039Y422936D01*
X288853Y422000D01*
X289039Y421064D01*
X289570Y420270D01*
X289850Y420083D01*
X289898Y420029D01*
X289961Y419982D01*
X289978Y419966D01*
X289988Y419954D01*
X289995Y419945D01*
X290000Y419936D01*
X290005Y419924D01*
X290012Y419905D01*
X290016Y419885D01*
Y412146D01*
X289554Y411954D01*
X273727Y427781D01*
X273230Y428113D01*
X272645Y428229D01*
X245934D01*
X245698Y428670D01*
X245761Y428764D01*
X245947Y429700D01*
X245761Y430636D01*
X245230Y431430D01*
X245136Y431494D01*
X245124Y431508D01*
X245098Y431545D01*
X245078Y431580D01*
X245061Y431616D01*
X245048Y431653D01*
X245037Y431693D01*
X245029Y431731D01*
Y437711D01*
X245676Y437839D01*
X246470Y438370D01*
X247000Y439164D01*
X247186Y440100D01*
X247000Y441036D01*
X246470Y441830D01*
X245676Y442361D01*
X244739Y442547D01*
X243803Y442361D01*
X243383Y442080D01*
X239181Y446281D01*
X238685Y446613D01*
X238100Y446729D01*
X229472D01*
X229441Y446736D01*
X229410Y446745D01*
X229383Y446756D01*
X229358Y446769D01*
X229333Y446784D01*
X229306Y446805D01*
X229277Y446832D01*
X229225Y446888D01*
X229130Y447030D01*
X228336Y447561D01*
X227400Y447747D01*
D02*
G37*
G36*
X284100Y403129D02*
X277100D01*
Y388609D01*
X284100D01*
Y403129D01*
D02*
G37*
G36*
X274100D02*
X267100D01*
Y388609D01*
X274100D01*
Y403129D01*
D02*
G37*
G36*
X264100Y395369D02*
X261100D01*
Y388609D01*
X264100D01*
Y395369D01*
D02*
G37*
G36*
X260100D02*
X257100D01*
Y388609D01*
X260100D01*
Y395369D01*
D02*
G37*
%LPD*%
G36*
X228556Y446110D02*
X228649Y446024D01*
X228748Y445948D01*
X228852Y445882D01*
X228961Y445826D01*
X229075Y445781D01*
X229194Y445746D01*
X229318Y445720D01*
X229447Y445705D01*
X229582Y445700D01*
X229505Y444700D01*
X229373Y444696D01*
X229243Y444682D01*
X229118Y444660D01*
X228995Y444628D01*
X228876Y444588D01*
X228759Y444538D01*
X228646Y444480D01*
X228537Y444413D01*
X228430Y444336D01*
X228327Y444251D01*
X228467Y446206D01*
X228556Y446110D01*
D02*
G37*
G36*
X227386Y443900D02*
X227254Y443897D01*
X227125Y443883D01*
X227000Y443860D01*
X226879Y443828D01*
X226762Y443785D01*
X226649Y443733D01*
X226540Y443672D01*
X226434Y443600D01*
X226333Y443519D01*
X226235Y443428D01*
X225528Y444135D01*
X225619Y444233D01*
X225700Y444334D01*
X225771Y444440D01*
X225833Y444549D01*
X225885Y444662D01*
X225928Y444779D01*
X225960Y444900D01*
X225983Y445025D01*
X225997Y445154D01*
X226000Y445286D01*
X227386Y443900D01*
D02*
G37*
G36*
X243572Y440873D02*
X243362Y439848D01*
X243357Y439854D01*
X243343Y439860D01*
X243320Y439865D01*
X243288Y439869D01*
X243200Y439876D01*
X242919Y439881D01*
Y440881D01*
X243572Y440873D01*
D02*
G37*
G36*
X244467Y438727D02*
X244439Y438727D01*
X244403Y438716D01*
X244360Y438695D01*
X244310Y438664D01*
X244252Y438622D01*
X244115Y438509D01*
X243948Y438354D01*
X243853Y438261D01*
X243146Y438968D01*
X243221Y439044D01*
X243388Y439242D01*
X243426Y439297D01*
X243454Y439347D01*
X243473Y439393D01*
X243483Y439432D01*
X243484Y439467D01*
X243476Y439497D01*
X244467Y438727D01*
D02*
G37*
G36*
X244005Y431714D02*
X244019Y431585D01*
X244043Y431460D01*
X244077Y431339D01*
X244120Y431222D01*
X244173Y431109D01*
X244235Y431001D01*
X244307Y430896D01*
X244389Y430796D01*
X244480Y430700D01*
X242520D01*
X242611Y430796D01*
X242693Y430896D01*
X242765Y431001D01*
X242827Y431109D01*
X242880Y431222D01*
X242923Y431339D01*
X242957Y431460D01*
X242981Y431585D01*
X242995Y431714D01*
X243000Y431848D01*
X244000D01*
X244005Y431714D01*
D02*
G37*
G36*
X244389Y428604D02*
X244307Y428504D01*
X244235Y428399D01*
X244173Y428291D01*
X244120Y428178D01*
X244077Y428061D01*
X244043Y427940D01*
X244019Y427815D01*
X244005Y427686D01*
X244000Y427552D01*
X243000D01*
X242995Y427686D01*
X242981Y427815D01*
X242957Y427940D01*
X242923Y428061D01*
X242880Y428178D01*
X242827Y428291D01*
X242765Y428399D01*
X242693Y428504D01*
X242611Y428604D01*
X242520Y428700D01*
X244480D01*
X244389Y428604D01*
D02*
G37*
G36*
X292365Y421075D02*
X292298Y420962D01*
X292239Y420846D01*
X292187Y420727D01*
X292144Y420607D01*
X292108Y420485D01*
X292081Y420361D01*
X292061Y420234D01*
X292049Y420106D01*
X292045Y419975D01*
X291045Y419783D01*
X291040Y419919D01*
X291024Y420048D01*
X290997Y420171D01*
X290960Y420287D01*
X290911Y420396D01*
X290853Y420499D01*
X290783Y420595D01*
X290703Y420685D01*
X290612Y420768D01*
X290510Y420844D01*
X292440Y421187D01*
X292365Y421075D01*
D02*
G37*
G36*
X227850Y420635D02*
X227864Y420506D01*
X227888Y420380D01*
X227922Y420260D01*
X227965Y420143D01*
X228018Y420030D01*
X228080Y419921D01*
X228152Y419817D01*
X228234Y419717D01*
X228325Y419620D01*
X226365D01*
X226456Y419717D01*
X226538Y419817D01*
X226610Y419921D01*
X226672Y420030D01*
X226725Y420143D01*
X226768Y420260D01*
X226802Y420380D01*
X226826Y420506D01*
X226840Y420635D01*
X226845Y420768D01*
X227845D01*
X227850Y420635D01*
D02*
G37*
G36*
X292050Y402927D02*
X292065Y402757D01*
X292090Y402607D01*
X292125Y402477D01*
X292170Y402367D01*
X292225Y402277D01*
X292290Y402207D01*
X292365Y402157D01*
X292450Y402127D01*
X292545Y402117D01*
X290545D01*
X290640Y402127D01*
X290725Y402157D01*
X290800Y402207D01*
X290865Y402277D01*
X290920Y402367D01*
X290965Y402477D01*
X291000Y402607D01*
X291025Y402757D01*
X291040Y402927D01*
X291045Y403117D01*
X292045D01*
X292050Y402927D01*
D02*
G37*
G36*
X292045Y397742D02*
X291977Y396120D01*
X290552Y397268D01*
X290646Y397279D01*
X290730Y397304D01*
X290804Y397344D01*
X290868Y397399D01*
X290922Y397468D01*
X290966Y397553D01*
X291001Y397652D01*
X291025Y397765D01*
X291040Y397893D01*
X291045Y398036D01*
X292045Y397742D01*
D02*
G37*
D42*
X291545Y396814D02*
Y421755D01*
X290600Y395869D02*
X291545Y396814D01*
X291300Y422000D02*
X291545Y421755D01*
X244086Y426700D02*
X272645D01*
X291323Y408023D01*
X243500Y429700D02*
Y438614D01*
Y427286D02*
Y429700D01*
Y438614D02*
X244739Y439854D01*
Y440100D01*
X243500Y427286D02*
X244086Y426700D01*
X227400Y445300D02*
X227500Y445200D01*
X225700Y424538D02*
Y443600D01*
X227345Y418621D02*
Y422894D01*
X225700Y424538D02*
X227345Y422894D01*
X227400Y445300D02*
Y445300D01*
X225700Y443600D02*
X227400Y445300D01*
X227500Y445200D02*
X238100D01*
X242919Y440381D01*
X244459D01*
X244739Y440100D01*
D43*
X290600Y395869D02*
D03*
X260600D02*
D03*
D44*
X290600D02*
D03*
X291300Y422000D02*
D03*
X227345Y418621D02*
D03*
X243500Y429700D02*
D03*
X244739Y440100D02*
D03*
X227400Y445300D02*
D03*
X260600Y395869D02*
D03*
M02*
